<?xml version="1.0" standalone="no"?>
<!DOCTYPE svg PUBLIC "-//W3C//DTD SVG 20010904//EN"
 "http://www.w3.org/TR/2001/REC-SVG-20010904/DTD/svg10.dtd">
<svg version="1.0" xmlns="http://www.w3.org/2000/svg"
 width="256.000000pt" height="256.000000pt" viewBox="0 0 256.000000 256.000000"
 preserveAspectRatio="xMidYMid meet">
<metadata>
Created by potrace 1.14, written by Peter Selinger 2001-2017
</metadata>
<g transform="translate(0.000000,256.000000) scale(0.100000,-0.100000)"
fill="#000000" stroke="none">
<path d="M1070 2543 c-71 -25 -129 -100 -155 -202 -27 -106 -119 -622 -135
-761 -36 -308 20 -523 179 -681 106 -105 148 -124 281 -123 93 0 111 3 160 27
109 53 185 132 244 254 61 126 71 178 70 373 0 155 -3 187 -26 276 -42 162
-130 358 -234 519 -56 87 -178 234 -221 265 -61 45 -126 66 -163 53z m222
-370 c130 -223 239 -447 294 -608 56 -164 42 -360 -36 -502 -74 -133 -185
-204 -318 -202 -87 1 -123 13 -65 22 29 5 55 20 91 52 66 59 85 108 82 205 -6
166 -3 186 35 254 49 88 47 102 -16 110 -13 2 -31 6 -39 9 -8 2 -35 10 -60 16
-25 7 -58 17 -73 23 l-28 11 30 20 c49 30 37 62 -43 113 -28 17 -29 17 -42 -1
-8 -10 -14 -39 -14 -63 l0 -44 -32 7 c-33 7 -140 37 -146 41 -2 2 17 45 42 98
25 52 46 97 46 99 0 8 139 267 173 322 16 28 36 60 44 73 7 12 17 22 22 22 4
0 29 -35 53 -77z m-84 -700 c-5 -25 -28 -28 -28 -4 0 12 6 21 16 21 9 0 14 -7
12 -17z m-288 -68 c37 -19 39 -47 5 -69 -42 -28 -55 -21 -55 27 0 39 5 57 17
57 2 0 17 -7 33 -15z m138 -36 c-16 -10 -33 5 -23 21 5 8 11 8 21 -1 12 -10
12 -14 2 -20z m117 -141 c22 -20 24 -25 13 -39 -7 -10 -23 -20 -35 -24 -22 -6
-23 -3 -23 39 0 52 8 56 45 24z m-255 -92 c0 -8 -4 -18 -10 -21 -5 -3 -10 3
-10 14 0 12 5 21 10 21 6 0 10 -6 10 -14z"/>
<path d="M0 365 l0 -365 1280 0 1280 0 0 365 0 365 -1280 0 -1280 0 0 -365z
m151 252 c36 -24 49 -61 29 -81 -9 -8 -17 -4 -34 17 -27 34 -66 37 -66 5 0
-17 12 -30 47 -48 50 -27 70 -62 59 -106 -17 -65 -84 -84 -128 -36 -36 39 -41
60 -18 72 16 9 22 6 35 -20 18 -34 50 -40 60 -10 8 27 1 37 -45 60 -43 22 -60
46 -60 82 0 30 26 67 54 78 30 12 29 12 67 -13z m144 0 c10 -8 30 -52 45 -98
15 -46 31 -84 35 -84 9 0 12 8 45 123 l21 72 40 0 c42 0 62 -21 40 -43 -15
-15 -15 -189 0 -204 21 -21 2 -43 -37 -43 -36 0 -36 0 -29 33 12 47 15 107 8
147 -6 32 -8 27 -37 -65 -25 -80 -36 -101 -52 -103 -17 -2 -24 9 -43 70 -13
40 -29 84 -37 98 -12 23 -13 18 -14 -50 0 -44 5 -81 11 -87 21 -21 2 -45 -33
-41 -25 2 -34 8 -36 26 -2 12 1 22 7 22 14 0 15 186 1 195 -5 3 -10 15 -10 26
0 23 46 27 75 6z m417 2 c27 -14 58 -85 58 -133 0 -78 -52 -146 -112 -146 -27
0 -85 62 -93 101 -19 85 34 189 97 189 16 0 38 -5 50 -11z m186 -16 c2 -16 -2
-23 -13 -23 -13 0 -15 -13 -13 -92 l3 -93 30 0 c23 0 31 5 33 23 2 14 10 22
23 22 18 0 20 -6 17 -47 l-3 -48 -82 -3 c-83 -3 -83 -3 -83 23 0 14 5 25 10
25 6 0 10 38 10 95 0 57 -4 95 -10 95 -5 0 -10 12 -10 26 0 23 3 25 43 22 35
-2 43 -7 45 -25z m263 -2 c23 -28 25 -88 4 -118 -9 -12 -32 -25 -51 -29 -40
-7 -53 -28 -36 -55 7 -10 12 -28 12 -39 0 -18 -5 -21 -37 -18 -31 2 -39 7 -41
26 -2 12 1 22 7 22 7 0 11 34 11 95 0 57 -4 95 -10 95 -5 0 -10 12 -10 26 0
26 0 26 66 22 55 -3 70 -8 85 -27z m208 3 c64 -54 63 -185 -1 -240 -95 -79
-198 71 -139 202 31 69 86 84 140 38z m174 12 c3 -8 -1 -20 -9 -27 -11 -9 -14
-32 -12 -103 l3 -91 28 -3 c18 -2 29 2 32 12 3 9 7 23 10 32 4 13 8 14 21 3
10 -8 14 -26 12 -53 l-3 -41 -81 -3 c-76 -3 -82 -1 -87 18 -3 13 0 23 9 27 21
8 20 181 -2 197 -9 7 -12 18 -8 29 8 22 79 24 87 3z m200 -7 c3 -12 0 -22 -9
-26 -11 -4 -14 -27 -14 -99 0 -56 4 -94 10 -94 16 0 11 -37 -6 -44 -50 -19
-90 10 -59 44 11 12 15 39 15 95 0 56 -4 83 -15 95 -25 27 -8 50 35 50 30 0
39 -4 43 -21z m111 6 c8 -8 27 -53 42 -100 16 -47 31 -85 35 -85 4 0 17 37 29
83 26 97 42 119 84 115 23 -2 32 -9 34 -25 2 -13 -1 -23 -7 -23 -14 0 -15
-176 -1 -185 6 -3 10 -17 10 -31 0 -21 -5 -24 -34 -24 -27 0 -36 5 -42 22 -4
13 -2 24 5 26 7 2 11 31 11 78 0 74 -12 98 -24 47 -4 -16 -16 -59 -28 -96 -18
-57 -24 -68 -41 -65 -16 2 -27 22 -48 87 -16 46 -31 87 -35 90 -3 3 -5 -37 -3
-89 l4 -95 -31 -3 c-25 -2 -33 1 -37 17 -3 11 1 25 9 32 20 17 19 166 -1 189
-9 10 -13 25 -9 34 8 20 57 21 78 1z m434 -32 c-3 -53 -23 -68 -38 -28 -15 40
-54 31 -58 -12 -3 -28 0 -33 17 -33 16 0 21 -6 21 -25 0 -18 -5 -25 -20 -25
-16 0 -20 -7 -20 -35 0 -32 2 -35 30 -35 25 0 30 4 30 25 0 19 5 25 21 25 18
0 20 -5 17 -47 l-3 -48 -78 -3 c-63 -2 -78 0 -83 13 -4 8 -1 22 6 30 15 18 16
188 1 193 -6 2 -11 15 -11 28 0 24 2 24 86 24 l85 0 -3 -47z m197 22 c28 -27
32 -66 11 -104 -10 -18 -11 -32 -2 -62 7 -21 17 -44 23 -50 17 -17 4 -51 -20
-47 -24 4 -34 20 -42 70 -6 37 -32 57 -55 43 -13 -8 -13 -52 0 -60 6 -3 10
-14 10 -24 0 -19 -52 -37 -71 -25 -12 7 -11 41 1 49 6 3 10 46 10 96 0 53 -4
89 -10 89 -5 0 -10 11 -10 25 0 24 2 25 65 25 57 0 69 -3 90 -25z"/>
<path d="M626 558 c-24 -34 -21 -123 4 -148 11 -11 27 -20 35 -20 25 0 53 36
61 76 15 80 -60 149 -100 92z"/>
<path d="M1077 573 c-4 -3 -7 -21 -7 -40 0 -28 3 -33 24 -33 35 0 52 25 38 55
-11 24 -40 33 -55 18z"/>
<path d="M1276 561 c-22 -25 -31 -88 -17 -124 13 -34 57 -53 79 -35 8 7 21 28
29 46 33 80 -39 170 -91 113z"/>
<path d="M2397 573 c-4 -3 -7 -19 -7 -35 0 -25 3 -28 34 -28 37 0 51 23 34 54
-9 16 -49 22 -61 9z"/>
</g>
</svg>
