<svg xmlns="http://www.w3.org/2000/svg" viewBox="0 0 300 242" xml:space="preserve"><path fill="#040204" d="M1.332 83.226C1 56.677 1.035 30.354.942 4.032.931 1.614 1.384.93 3.965.932c97.96.08 195.92.086 293.88-.02 2.976-.003 3.219.86 3.216 3.432-.076 78.468-.08 156.937.014 235.405.003 2.767-.546 3.33-3.322 3.327-97.794-.091-195.588-.101-293.382.032-3.34.004-3.427-1.102-3.424-3.733.07-51.48.052-102.958.052-154.906 1.433-1.506 3.074-.638 4.25-.972-.973-.012-2.28.038-3.918-.271z"/><path fill="#12171B" d="M1 83.25C2.09 83 3.178 83 4.41 83c-.73 1.512-1.874.75-3.075.995C1 84 1 83.5 1 83.25z"/><path fill="#D6737B" d="M88.049 199.58c8.808-6.514 17.658-12.505 26.291-18.793 2.076-1.512 2.976-1.474 4.16.662.856 1.547 2.412 2.567-.359 4.166-8.34 4.814-16.466 9.997-24.984 15.21-2.256 1.451-3.923 1.379-5.108-1.245z"/><path fill="#0B2DBB" d="M163.118 121.57c-2.393 2.187-4.84 3.814-5.436 7.069-1.98-.757-2.442 1.398-3.296 2.45-1.335 1.647-2.638 3.197-5.071 3.976-.658.701-1.162.735-1.947.492-.33-.283-.425-.435-.394-.822-1.949-4.609-.449-7.87 3.248-10.514 3.375-2.413 5.546-6.176 9.558-8.355 2.967.86 4.434 2.48 3.338 5.704z"/><path fill="#9F0D40" d="M100.958 222.884c3.138-.5 5.698-1.981 8.622-1.394 1.08.217 2.64-.19 2.843 1.313.2 1.484-1.228 1.912-2.382 1.96-3.65.154-6.58 2.21-9.788 3.521-.752.308-1.997.706-2.065 1.196-.788 5.616-4.491 3.542-7.646 3.057-1.63-.25-3.786-.127-3.954-2.154-.147-1.781 1.744-2.728 3.284-3.362 3.53-1.454 7.115-2.77 11.086-4.137z"/><path fill="#276C8A" d="M114.245 40.545c-4.28 1.686-8.763 1.435-12.491 3.882-2.149 1.41-4.401-.578-6.537-1.035-1.853-.397-.565-2.146.42-2.352 9.969-2.086 19.108-7.178 29.602-8.655-.132 4.654-7.543 1.447-6.312 7.082-1.213 2.066-2.71 1.812-4.682 1.078z"/><path fill="#4383BD" d="M127.7 194.856c1.207 4.61-.52 6.268-4.955 6.584-5.952.425-11.834 1.765-17.778 2.437-1.691.192-4.637 1.936-5.05-.996-.459-3.256 2.99-2.163 4.765-2.548 6.772-1.469 13.854-1.201 20.465-4.018-.04-2.228 1.144-1.917 2.552-1.459z"/><path fill="#5DB5E8" d="M140.027 26.602c.623.366.963.491 1.167.732 1.504 1.766 6.518 1.42 4.678 4.683-1.632 2.892-5.752 4.6-9.598 2.948-3.267-1.404-6.47-3.104-9.7-6.063 4.502-2.028 8.615-3.094 13.453-2.3z"/><path fill="#C3AFC0" d="M93.766 153.279c4.642-1.069 8.92-2.118 12.942-4.285 1.647-.888 3.843-.803 5.803-1.051 1.99-.252 3.241.757 3.45 2.694.257 2.394-1.38 2.45-3.223 2.535-2.135.098-4.25.617-6.632 1.244-.51.97-.969 1.435-2.007 1.67-3.492.304-6.718 2.261-9.927-.747-.545-.746-.693-1.216-.406-2.06z"/><path fill="#9A7E15" d="M133.401 92.718c-1.813.24-3.298.833-4.829-.298 1.449-5.456 5.819-9.096 8.701-13.654.678-1.07 1.895-1.73 2.806-.295.97 1.528 3.76 2.905 1.95 4.974-2.702 3.089-4.255 7.262-8.628 9.273z"/><path fill="#911413" d="M115.724 74.196c-2.023.057-4.543 2.074-4.914-.812-.35-2.73 2.586-1.781 4.17-2.076 6.08-1.13 12.24-.997 18.391-.98 2.073.006 3.826.543 3.673 2.963-.148 2.325-2.22 1.575-3.529 1.564-5.796-.047-11.532-1.589-17.791-.659z"/><path fill="#C98D6F" d="M139.319 192.431c-.697 3.27-.402 6.266.351 9.04.756 2.781-.705 4.82-2.152 6.116-1.102.989-3.176-2.246-5.463-.917-.325.188-.584-.978-.42-1.648 1.055-4.292 1.402-8.771 3.81-12.69 1.33-2.165 2.435-2.622 3.874.1z"/><path fill="#694653" d="M111.215 133.356c-4.35-.237-7.504-4.162-5.713-6.95 3.001-4.67 4.54-9.952 6.999-14.83.6-1.193.735-3.23 3.26-2.027 1.06 3.671-.224 6.818-1.196 9.97-.62 2.012-1.593 3.915-.9 6.485.41 2.968-.676 5.098-2.45 7.352z"/><path fill="#86531E" d="M132.764 221.21c1.05-.197 1.85-.194 3.01-.004.736.043 1.127-.016 1.818.08 1.433-.238 2.578-.558 4.082-.853.576.071.792.117 1.319.277.31.115.683.139.854.215.63 1.273-.107 1.546-1.37 1.636-.522.058-.725.14-1.241.325-.41.25-.506.395-.853.464-5.616 1.89-10.883 4.149-16.868 3.325-2.31-.318-4.78-.801-4.684-3.274.09-2.32 2.907-1.213 4.472-1.69 1.226-.372 2.602-.251 4.326-.37 1.898.288 3.391.175 5.135-.13z"/><path fill="#0B2DBB" d="M137.6 166.562c-2.05 6.253-7.131 8.567-13.221 11.092 1.345-5.234 1.242-9.97 5.037-13.716.498-.259.724-.308 1.295-.312 2.235 1.469 4.658 1.589 6.89 2.936z"/><path fill="#BE3A1E" d="M136.435 158.682c-.53-.781-1.137-1.73-.999-1.854 3.715-3.357 8.435-5.03 12.747-7.388.881-.482 1.6.644 1.387 1.472-.789 3.067-1.8 6.11-4.813 7.77-2.596 1.429-5.29 3.212-8.322 0z"/><path fill="#755C83" d="M146.733 112.532c5.583.575 6.591 2.362 3.85 6.485-1.182 1.779-2.705 3.351-4.2 4.895-1.497 1.548-2.844 2.323-4.749.01-1.565-1.903-2.02-3.013-.127-4.91 1.864-1.867 3.32-4.14 5.226-6.48z"/><path fill="#4383BD" d="M108.716 97.01a584.191 584.191 0 0 1 12.494-13.032c1.087-1.1 2.233-2.969 4.027-1.04 1.622 1.742-.324 2.656-1.243 3.585a622.04 622.04 0 0 1-14.68 14.357c-1.455-.285-2.007-1.036-1.726-2.645.081-.381.109-.5.17-.51.422-.01.698-.17.958-.715z"/><path fill="#49428E" d="M146.704 134.502c.937.319 1.466.433 2.148.642 1.494 1.564 4.044 2.341 3.028 5.156-.596 1.65-.521 3.77-2.617 4.436-1.968.625-3.63-.387-4.765-1.806-1.637-2.046-4.32-3.07-5.457-5.995-1.383-3.541.493-4.31 3.038-4.111 1.448.113 2.786 1.037 4.625 1.678z"/><path fill="#0E65AB" d="M131.797 138.429c1.928-1.292 2.848-.089 4 1.275.939 1.22 1.34 2.48 2.873 3.078 1.525 1.768 4.849 2.565 2.949 5.43-1.71 2.579-7.177 2.42-9.883-.24.117-.761.021-1.136-.398-1.727-.294-1.238-.424-2.22-.539-3.576-.432-1.71.35-2.787.998-4.24z"/><path fill="#9F6864" d="M113.936 208.14c4.127 6.225 3.648 8.911-1.447 9.315-1.279.102-2.726.417-2.79-1.671-.09-3.034-2.549-4.852-4.105-7.732 2.892.201 5.283-2.891 8.342.089z"/><path fill="#C6A337" d="M146.184 187.905c2.637 4.7 2.02 9.656.533 14.596-.2.66-.593 1.673-1.625 1.545-1.04-.13-1.172-1.083-1.181-1.896-.049-4.309-.532-8.498-2.132-12.583-.599-1.53.178-3.356 1.749-4.278 1.697-.995 2.344.2 2.735 2.028-.052.491-.167.623-.08.588z"/><path fill="#2C2B2C" d="M125.313 215.075a236.142 236.142 0 0 0-4.033-1.524c.668-2.794 2.85-2.676 4.774-2.47 4.612.493 9.203 1.184 13.791 1.871 1.234.185 2.98.144 2.682 2.122-.244 1.62-1.722 1.925-3.085 1.92-4.662-.017-9.238-.784-14.13-1.919z"/><path fill="#BE3A1E" d="M121.883 54.833c-1.277 1.983-3.423 1.982-5.291 2.455-2.976.752-5.187 2.025-5.98 5.242-.61 2.478-2.245 3.87-4.817 2.7-2.528-1.15-1.801-3.314-.882-5.147 1.154-2.3 1.583-5.178 4.828-6.375 1.997 1.261 3.737.615 5.469.098 2.27-.677 4.5-1.002 6.673 1.027zM141.33 102.775c-1.586-.955-2.664-1.83-.553-2.897 3.147-1.592 6.621-2.161 10.042-2.443 3.018-.249 2.018 2.92 2.729 4.482 1.013 2.227-1.289 1.693-2.34 1.859-3.245.512-6.647 2.283-9.878-1.001z"/><path fill="#7F6F98" d="M95.58 61.274c2.023 3.432 3.793 6.595 5.67 9.692.671 1.106 2.022 2.11.068 3.127-1.27.66-2.728 1.605-3.835-.301-1.984-3.418-3.927-6.86-5.908-10.28-.582-1.004-.457-1.953.338-2.68 1.136-1.04 2.352-1.03 3.668.442z"/><path fill="#ABA7DE" d="M131.16 19.707c-2.178 4.263-6.71 4.059-10.115 5.887-1.467.788-1.885-.625-2.052-2.188.773-1.86.87-3.409.379-5.346-.403-1.691-1.399-2.919-.583-4.697.24-.266.283-.34.319-.317 1.356-1.13 2.421.03 3.937.547a318.2 318.2 0 0 1 3.642 1.376c1.578 1.633 4.285 1.772 4.472 4.738z"/><path fill="#4383BD" d="M94.723 120.246c6.495-6.338 12.516-12.812 19.863-18.308.933.177.995.754 1.042 1.657-6.082 5.753-12.23 11.215-18.613 16.917-.954 1.243-1.615.883-2.292-.266z"/><path fill="#072C64" d="M144.578 178.453c-5.153-1.433-5.345-2.102-2.162-5.254 1.276-1.263 2.266-2.812 3.4-4.22 1.219-1.513 2.665-2.745 4.632-1.473 1.93 1.248 1.433 2.86.57 4.743-1.312 2.865-3.364 4.772-6.44 6.204z"/><path fill="#4383BD" d="M124.038 138.798c-.296.178-.345.299-.407.278-.503.048-.89.23-1.425.78-.192.267-.276.456-.325.547-.289.05-.528.01-1.04-.274-1.174-1.52-3.39-2.162-2.07-4.708 4.437-3 8.54-5.913 13.208-7.859 1.001-.417 1.968-1.383 3.102.245 1.055 2.847-.952 3.678-2.902 4.868-1.941 1.322-3.535 2.527-5.434 3.874-2.198-.514-1.501 1.655-2.707 2.25z"/><path fill="#DC611B" d="M170.458 135.777c1.677-3.31 4.954-2.738 7.438-3.804 1.25-.537 1.862.58 1.394 1.716-.687 1.667-1.47 3.339-2.494 4.812-1.414 2.033-3.33 4.77-5.771 3.858-2.717-1.016-.38-4.062-.567-6.582z"/><path fill="#205496" d="M185.461 188.398c-3.343-1.673-4.011-3.369-.663-5.375.853-.51 1.586-1.215 2.41-1.78 1.47-1.006 2.73-4.045 4.658-2.017 1.634 1.72.567 4.505-1.03 6.366-1.294 1.509-2.917 2.734-5.375 2.806z"/><path fill="#276C8A" d="M127.958 107.213c-1.321-2.497-2.475-4.666-3.6-6.85-.398-.774-1.599-1.599-.237-2.425.833-.505 1.99-.694 2.817-.016 1.902 1.56 3.715 3.231 5.518 4.907 1.793 1.666 1.457 4.053.368 5.416-1.22 1.53-3.265.661-4.866-1.032z"/><path fill="#D2C33C" d="M186.521 151.523c.92.98 1.833 1.61 2.203 2.473.826 1.925 4.71 3.086 2.367 5.669-2.01 2.214-5.352.696-7.36-.328-3.229-1.646-.183-4.534-.072-6.885.082-1.73.698-3.11 2.862-.929z"/><path fill="#5DB5E8" d="M142.807 68.352a56.226 56.226 0 0 1 8.65-4.92c1.615-.74 3.71-1.509 5.107-.283.868.76 1.153 2.873.828 4.16-.607 2.407-3.027 1.124-5.013 1.615-3.448.847-6.492.997-9.572-.572z"/><path fill="#072C64" d="M125.278 159.872c-7.452 2.57-14.746 2.242-22.076-.32 1.188-2.034 3.164-1.656 5.268-1.97 5.196.11 10.007.167 15.165.263.871.538 1.603.858 1.643 2.027z"/><path fill="#C6A337" d="M150.667 33.381c-1.438-3.688.68-4.78 3.242-5.708 1.38-.5 2.13-1.162 3.592.63 1.81 2.218 1.425 4.312.367 5.822-1.202 1.716-3.244 3.437-5.785 2.975-1.826-.332-.767-2.265-1.416-3.719z"/><path fill="#2C2B2C" d="M104.563 167.49c5.912.292 10.3 3.975 15.557 6.141-5.087.454-10.174.907-15.693 1.336-2.774-2.489-2.317-4.856.136-7.477z"/><path fill="#276C8A" d="M128.804 56.92c2.36-.305 4.323-.467 6.712-.639 1.568.564 2.835-.382 4.225.542.256.258.32.678.283.888-1.314 1.551-1.876 3.494-3.92 4.608-2.282 1.846-4.576 2.556-7.52 2.372-1.855-2.62-2.502-5.163.22-7.771z"/><path fill="#0E65AB" d="M209.673 37.429c-2.53-.732-4.754-1.374-6.887-2.24-1.706-.694-1.848-2.34-1.384-3.791.595-1.864 2.079-1.105 3.292-.666 1.706.617 3.364 1.37 5.078 1.962 4.039 1.397 3.206 2.994-.099 4.735zM196.099 102.112c3.73 3.895-.244 7.064-.827 10.505-.256 1.507-1.883.363-2.903.015-1.677-.571-1.82-1.713-1.182-3.121 1.214-2.677 2.313-5.432 4.912-7.399z"/><path fill="#5DB5E8" d="M167.293 19.824c-.563-3.772.537-6.343 4.496-6.113 1.125.065 3.252.67 3.204 2.527-.057 2.204-1.26 4.123-2.994 5.465-2.17 1.679-3.115-.747-4.706-1.879z"/><path fill="#4C3B60" d="M111.243 133.634c.016-2.196.384-4.36.787-6.888.712-3.915.703-7.767 4.68-9.897 2.028 6.361-.469 13.952-5.467 16.785z"/><path fill="#49428E" d="M184.258 214.885c-1.37-4.293 1.182-6.531 4.135-8.565 1.1-.757 2.224-.634 3.188.117 1.214.947.71 2.118-.065 3.01-1.977 2.27-2.473 6.44-7.258 5.438z"/><path fill="#2593A0" d="M128.348 194.97c-1.137.3-1.927.43-2.964.734-5.056-2.298-2.229-5.744-.966-8.496 1.238-2.7 3.093-5.849 7.105-2.734-.828 2.054-1.565 3.82-1.996 5.984-.065.26-.303.666-.303.666s-.455-.042-.414.157c.04.2.44.31.562.48-.145 1.125-.41 2.083-1.024 3.21z"/><path fill="#D2C33C" d="M196.507 67.22c-1.084-1.639-2.072-3-2.561-4.52-.544-1.69-3.116-3.493-.995-5.159 2.096-1.646 5.042-.599 6.929.662 2.33 1.556-.336 3.395-.934 5.441-.866 1.442.312 3.643-2.44 3.577z"/><path fill="#DC611B" d="M191.345 50.05c-3.072 3.229-5.765 7.224-11.23 4.554 3.96-1.126 4.817-8.773 11.23-4.553z"/><path fill="#911413" d="M176.975 77.773c-1.935-1.666-4.09-1.951-6.587-2.411 1.53-2.81 3.006-5.136 6.276-4.98 1.365.066 3.683.025 3.675 1.775-.01 2.12-.42 4.632-3.364 5.616z"/><path fill="#4383BD" d="M139.096 42.812c1.137-.304 2.018-.705 2.762-.53 1.584.375 3.992-2.29 4.626.623.48 2.208-.688 4.507-2.959 5.885-1.785 1.083-3.196 1.248-3.713-1.148-.336-1.557-1.81-2.87-.716-4.83z"/><path fill="#7F6F98" d="M252.607 137.42c-.416.567-.62.828-.862 1.045-2.058 1.84-4.215 1.546-6.261.086-1.3-.927-1.948-2.309-1.05-3.857 1.062-1.83 2.705-3.096 4.864-2.526 2.343.619 4.215 1.953 3.309 5.252z"/><path fill="#911413" d="M197.52 84.48c.551 1.428 1.025 2.48 1.333 3.579.472 1.685-.146 2.979-1.846 3.428-1.54.407-2.757-.687-3.024-1.898-.555-2.52-.693-5.14-.89-7.728-.067-.886.457-1.618 1.5-1.429 2.025.367 2.148 2.235 2.927 4.047z"/><path fill="#2593A0" d="M177.565 23.856c2.367-1.219 4.601-1.894 5.974.49.816 1.417-.333 3.07-1.747 3.635-2.215.887-5.145 2.576-6.902.836-2.386-2.363-.036-3.927 2.675-4.96z"/><path fill="#072C64" d="M203.045 24.509c.667 3.425-1.725 3.63-3.619 3.687-2.43.074-2.282-2.09-2.17-3.68.143-2.006-1.12-5.338 1.306-5.649 2.585-.331 3.362 3.099 4.483 5.642z"/><path fill="#BE3A1E" d="M164.25 190.218c1.438 4.603-3.339 2.735-4.59 4.786-.83 1.363-2.353-.027-3.286-.968-.959-.966-1.17-2.15-.009-3 1.639-1.201 2.716-3.692 5.346-2.846.878.282 1.561 1.167 2.54 2.028z"/><path fill="#9185B2" d="M246.078 49.804c1.408 2.902.294 4.526-2.155 5.232-1.862.538-3.707.138-4.738-1.756-.768-1.41-.835-2.955.498-4.089 2.098-1.782 4.215-1.647 6.395.613z"/><path fill="#6AAFA7" d="M175.98 185.759c-.078 2.882 1.565 6.508-3.656 5.402-1.883-.398-2.636-1.239-2.261-2.996.38-1.778-.656-4.262 2.053-4.993 1.872-.506 3.744-.578 3.863 2.587z"/><path fill="#ABA7DE" d="M114.168 28.54c-8.18-.7-16.115-1.654-24.05-2.61l.118-1.614c7.698.207 15.337 1.47 23.378 2.613.74.438.866.866.554 1.611z"/><path fill="#49428E" d="M188.991 127.284c-2.492-2.646.383-4.613.542-6.904.074-1.055 1.39-.43 1.982.074 1.922 1.635 4.159 3.506 3.28 6.218-1.05 3.243-3.61.574-5.804.612z"/><path fill="#134264" d="M156.91 210.934c-1.888 1-3.522 3.544-5.075.36-.865-1.772-1.478-5.047.09-5.42 2.49-.593 6.183-.575 7.964 1.387 1.838 2.024-1.51 2.438-2.98 3.673z"/><path fill="#9F0D40" d="M163.006 46.21c-1.764 2.855-3.802 2.041-4.977.367-1.665-2.371.958-3.816 2.146-5.35 1.296-1.674 3.888-1.577 4.818-.402 1.464 1.852-.869 3.446-1.987 5.386z"/><path fill="#1C5B55" d="M203.287 83.603c-3.052-1.702-1.371-3.972-1.21-5.934.074-.893.939-1.625 1.777-1.207 1.9.947 3.896 1.917 5.414 3.344 1.05.988-.547 1.998-1.148 2.886-1.151 1.7-2.572 2.62-4.833.912z"/><path fill="#5A0C0A" d="M96.976 131.217c-6.18 2.931-13.345 4.248-15.807 12.268-1.516-3.978-1.118-5.766 2.169-8.082 3.103-2.188 6.458-4.005 10.446-5.258 1.177.688 2.366.02 3.192 1.072z"/><path fill="#9F6864" d="M232.054 187.947c-2.915-.804-4.643-2.256-3.466-5.091.94-2.262 3.016-2.273 5.087-1.622 1.574.495 2.55 1.556 2.604 3.24.083 2.617-1.644 3.347-4.225 3.473z"/><path fill="#4C3B60" d="M47.678 204.683c7.444 2.038 14.499 4.113 21.902 6.306.731.402.869.777.473 1.4-7.748-1.85-15.205-3.862-22.961-6.092-.43-.78-.264-1.233.586-1.614z"/><path fill="#4383BD" d="M150.766 19.935c2.182-.793 3.293-7.204 6.33-1.292 1.382 2.69.95 4.357-2.522 4.588-1.958.13-3.88.81-6.207 1.255-.718-2.158 1.413-2.807 2.399-4.55z"/><path fill="#C3AFC0" d="M266.797 46.214c2.337 2.77 1.72 4.735-1.16 6.048-2.234 1.018-4.3.17-4.679-2.014-.767-4.427 2.325-4.637 5.84-4.034z"/><path fill="#205496" d="M156.92 94.215c-1.096-.552-2.672-1.293-2.084-1.973 1.415-1.637 3.73-1.947 5.796-2.421 1.106-.254 1.951.317 1.854 1.65-.157 2.144-.191 4.312-.566 6.42-.241 1.354-.32 3.337-2.394 3.209-2.037-.126-1.859-1.978-1.952-3.76.64-1.357 1.644-2.453-.655-3.125z"/><path fill="#134264" d="M205.39 175.815c-.867-1.553-2.892-2.93-.042-4.027 2.443-.94 4.657-.333 6.03 1.805 1.257 1.957.274 3.827-1.36 5.167-1.892 1.551-2.911.259-3.712-1.395-.213-.44-.476-.856-.916-1.55z"/><path fill="#86531E" d="M244.522 27.084c-2.48-1.298-2.885-2.978-1.6-5.027 1.082-1.726 2.636-2.426 4.637-1.76 1.607.537 2.421 1.746 2.255 3.394-.3 2.99-2.414 3.586-5.292 3.393z"/><path fill="#9F0D40" d="M105.215 86.958c-2.309-.278-3.75-1.18-4.703-3.484 4.317-.64 8.054 1.057 11.887 1.984.659.16 1.166.661 1.02 1.42-.146.768-.838 1.062-1.49.991-2.118-.23-4.225-.57-6.714-.911z"/><path fill="#C3AFC0" d="M265.484 162.592c-2.66 1.438-5.206 2.425-6.483-.938-.797-2.101 1.016-3.316 2.721-4.148 1.3-.634 2.667-.458 3.755.47 1.53 1.304 1.547 2.833.007 4.616z"/><path fill="#911413" d="M165.512 79.572c-.265.632-.363 1.026-.61 1.177-2.73 1.676-5.038 1.429-6.459-1.698-.576-1.27-1.613-3.32.725-3.489 2.628-.188 6.425-1.234 6.344 4.01z"/><path fill="#5DB5E8" d="M219.18 24.694c-.006 2.3.965 4.65-.83 5.952-1.289.934-2.681-.725-3.91-1.43-1.54-.885-1.691-2.387-1.1-3.906 1.346-3.45 3.497-2.645 5.84-.616z"/><path fill="#205496" d="M82.12 85.46c-6.61 2.541-12.974 4.865-19.337 7.188 5.427-4.532 11.983-6.445 18.835-8.576.67.321.801.718.502 1.388zM182.598 194.557c1.936-.51 3.545-.884 3.31 1.615-.206 2.205.55 4.798-2.297 6.045-.955.418-2.157.986-2.494-.283-.593-2.232-2.255-4.65.199-6.83.236-.21.596-.28 1.282-.547z"/><path fill="#49428E" d="M208.593 153.457c-1.74 2.194-3.449 2.467-5.187.61-1.246-1.332-.673-2.821.111-4.107 1.014-1.664 2.513-1.91 4.285-1.137 2.362 1.03 2.147 2.57.791 4.634z"/><path fill="#0B2DBB" d="M241.16 77.055c-3-1.356-3.523-3.347-1.646-5.604 1.217-1.464 3.166-1.68 4.24.034 1.637 2.61.887 4.711-2.593 5.57z"/><path fill="#205496" d="M166.397 219.274c-3.249 2.33-6.735 3.267-10.828 2.522 5.12-6.583 7.11-7.06 10.828-2.522z"/><path fill="#134264" d="M118.233 21.745c-3.08-.29-5.84-.703-8.923-1.288-1.221-1.482-2.547-.805-3.966-.732-2.68-1.18-2.456-2.433.183-2.629 3.643-.27 7.319.024 11.04 1.92 1.192.764 3.763.251 1.666 2.729z"/><path fill="#9A7E15" d="M202.799 56.99c.2-.982.13-1.758.467-2.26.95-1.416 1.646-4.533 3.155-3.693 2.24 1.247 3.377 4.881 2.188 6.987-1.315 2.331-4.148 1.742-5.81-1.035z"/><path fill="#D6737B" d="M216.13 83.15c1.51-.57 2.698-1.12 4.102-.79 1.074.25 2.52-.183 2.924 1.283.335 1.214-.358 2.443-1.197 3.11-3.164 2.518-5.029-1.056-7.28-2.058-1.388-.617.218-1.33 1.451-1.545z"/><path fill="#9F6864" d="M256.525 106.082c-.61 1.857-1.623 2.872-3.273 2.999-1.54.118-3.033-.19-3.845-1.655-.787-1.42-.661-2.852.631-4.009 1.227-1.098 2.603-1.291 4.108-.617 1.291.579 2.055 1.585 2.379 3.282z"/><path fill="#072C64" d="M175.953 206.173c-.874 3.325-3.312 4.717-5.74 6.05-.6.33-1.512-.234-1.487-.873.113-2.865 2.342-4.508 4.08-6.363.886-.945 1.58-2.95 3.388-1.869.913.546.08 1.802-.24 3.055z"/><path fill="#911413" d="M169.558 50.842c-1.696-2.158-1.438-4.05.735-5.02 2.053-.918 4.864-1.724 5.954 1.05 1 2.544-1.76 3.013-3.486 3.692-.874.344-1.901.298-3.203.278zM196.313 147.553c4.325-2.6 3.21 1.227 3.69 2.91.628 2.213.455 4.43-2.355 5.01-1.438.298-2.034-.934-1.985-2.194.07-1.797.34-3.585.65-5.726z"/><path fill="#5A0C0A" d="M73.787 45.303c5.622-3.202 10.992-3.452 16.092.317 1.71 1.263 3.7 1.386 5.903 2.152-.216 1.139-1.118 1.11-2.376 1.094-1.577-.257-3.13-.257-4.025-1.025-4.452-3.822-9.313-3.082-14.709-1.64-.624-.139-.845-.323-.885-.898z"/><path fill="#D6737B" d="M122.281 55.085c-3.105-.515-5.836.24-8.577.919-1.624.402-3.416 1.104-3.589-2.048 4.307-1.785 8.698-4.38 12.727.249.089.101.093.344.038.481-.056.136-.237.22-.599.399z"/><path fill="#C98D6F" d="M256.33 176.715c1.074 2.368.386 3.85-1.669 4.54-1.694.57-3.285.03-4.442-1.305-1.027-1.186-.67-2.49.292-3.538 1.827-1.992 3.73-1.592 5.819.303zM129.518 118.317c.625-1.352 1.55-2.71 2.654-3.899 1.386-1.492 2.807-.723 3.882.413 1.32 1.395 1.787 3.546 1.312 5.064-.631 2.017-2.14.087-3.242-.192-1.428-.362-2.82-.87-4.606-1.386z"/><path fill="#C6A337" d="M213.515 72.463c-2.146-1.73-3.187-3.156-.655-5.272 2.24-1.872 3.634-1.128 5.148.7 1.835 2.217 1.504 2.594-4.493 4.572z"/><path fill="#911413" d="M195.343 46.216c.32-4.089 3.777-3.712 6.305-4.349 1.074-.27 1.187 1.48.824 2.359-.634 1.536-.517 4.008-3.19 3.617-1.27-.185-2.46-.924-3.939-1.627z"/><path fill="#0B2DBB" d="M175.921 87.112c.695-2.236 1.638-3.84 3.959-3.196 2.197.609 1.342 2.745 1.732 4.224.35 1.324-.397 2.583-1.603 2.596-2.044.021-3.946-.699-4.088-3.624z"/><path fill="#9F6864" d="M86.39 103.951c-.317-2.502-.987-5.713 2.189-6.691 3.375-1.04 7.137-2.983 10.342.872.781.94 2.201 1.349 3.683 2.078-1.191 1.315-2.633 1.012-4.182-.042-5.72-3.893-8.275-3.103-10.854 3.225-.094.231-.544.317-1.179.558zM262.306 196.17c2.179 1.34 2.778 2.933 1.337 4.722-1.144 1.42-2.801 1.74-4.509.98-1.494-.667-2.558-1.847-2.016-3.52.745-2.295 2.641-2.749 5.188-2.182z"/><path fill="#4383BD" d="M209.723 135.893c1.827.54 2.706 1.2 1.45 2.855-1.432 1.888-3.414 1.74-5.37 1.546-1.18-.117-1.606-.993-1.396-2.147.273-1.502.57-3.037 2.608-2.887.804.059 1.59.369 2.708.633z"/><path fill="#205496" d="M261.05 69.219c-1.49 2.271-3.27 2.61-5.246 1.407-1.448-.883-1.795-2.352-1.174-3.877.56-1.377 1.831-1.91 3.235-1.7 2.145.319 3.774 1.233 3.184 4.17z"/><path fill="#86531E" d="M157.968 128.968c1.112-.026 2.254-.01 3.395-.032 1.441-.028 3.314-.49 3.669 1.414.33 1.77-.585 3.565-1.828 4.868-1.007 1.055-2.122.576-2.73-.702-.771-1.622-1.466-3.28-2.368-5.248-.174-.325-.107-.275-.138-.3z"/><path fill="#205496" d="M213.772 93.653c1.565-1.271 2.643-3.375 4.753-1.583.955.81 2.378 1.596 1.503 3.21-.728 1.344-1.916 2.606-3.496 2.294-1.742-.345-3.555-1.165-2.76-3.921z"/><path fill="#911413" d="M169.953 101.875c.847-1.874.496-4.578 2.93-4.356 2.018.184 2.06 2.28 1.698 4.004-.516 2.452-1.987 4.957-4.346 4.707-2.584-.273-.325-2.587-.282-4.355zM212.723 46.145c-3.28-.522-2.737-2.723-2.334-4.63.332-1.568 1.9-1.81 3.21-1.86 1.92-.076 2.473 1.45 2.766 2.971.507 2.634-1.59 2.896-3.642 3.52z"/><path fill="#694653" d="M90.776 183.702c-4.418 4.99-10.637 6.758-16.686 8.906 4.93-2.806 9.012-7.088 15.121-8.466.574-.425.88-.636 1.565-.44z"/><path fill="#1C5B55" d="M184.776 172.64c-1.706 1.241-3.086 3.219-4.962 1.853-1.359-.988-1.273-3.226-.875-4.63.494-1.74 2.667-1.828 4.254-1.792 3.425.08 3.257 1.98 1.583 4.57z"/><path fill="#86531E" d="M230.985 167.627c.601-.605.954-.994 1.394-1.187 2.619-1.145 5.066-.98 6.071 2.011.626 1.861-.94 3.156-2.71 3.407-2.868.407-5.414.035-4.755-4.231z"/><path fill="#072C64" d="M202.38 210.246c.592-2.055-2.684-6.506 2.8-4.893 1.668.491 4.494 1.461 3.335 3.87-1.007 2.094-3.353 3.724-6.136 1.023z"/><path fill="#C3AFC0" d="M260.938 23.355c1.338-2.19 2.937-2.989 5.057-1.83 1.262.69 1.892 1.775 1.433 3.247-.503 1.611-1.708 2.358-3.33 2.33-2.177-.035-3.248-1.232-3.16-3.747z"/><path fill="#4C3B60" d="M104.529 167.13c.063 2.373-.23 4.697-.528 7.417-5.656 1.656-4.636-2.545-4.954-6.076.57-1.22 1.411-1.44 2.647-1.562 1.045.028 1.762.1 2.835.22z"/><path fill="#755C83" d="M147.113 134.671c-2.528 1.652-5.977-3.022-8.14 1.569-1.4-.322-1.8-1.616-2.317-3.195-1.343-.448-1.165-1.295-.785-2.4 4.31-1.013 7.545.691 10.895 3.462.336.392.348.529.347.564z"/><path fill="#D6737B" d="M105.853 136.8c4.368 2.644 8.508 5.719 12.894 9.018.372.8.192 1.253-.685 1.503-4.182-2.927-7.974-5.773-11.95-8.894-.285-.582-.386-.89-.26-1.628z"/><path fill="#5A0C0A" d="M190.343 218.229c1.703-.16 3.377-.307 3.192 1.619-.208 2.185-1.93 3.424-3.953 3.931-1.483.372-3.212.248-3.816-1.42-.54-1.494.772-2.385 1.955-3.048.717-.401 1.509-.668 2.622-1.082zM198.229 198.32c.02 1.088.066 2.013-.346 2.634-1.14 1.718-2.27 4.466-4.643 3.513-2.51-1.007-.603-3.531-.176-5.22.781-3.091 2.905-2.452 5.165-.926z"/><path fill="#C6A337" d="M200.788 132.414c-1.202-1.78-.52-3.456-.718-5.048-.148-1.191-.03-2.55 1.62-2.295 1.649.255 3.852-.4 4.7 1.733 1.055 2.652-2.127 6.06-5.602 5.61z"/><path fill="#9185B2" d="M240.861 35.61c1.488-1.627 3.043-2.223 4.615-1.013 1.255.967.983 2.443.162 3.595-.77 1.082-1.853 2.161-3.326 1.716-2.01-.606-2.208-2.2-1.45-4.299z"/><path fill="#4383BD" d="M188.615 29.97c1.793-.186 3.27-.304 4.747-.355.473-.016.951.143 1.756.277-.438 2.332-1.935 4.425-3.738 4.511-1.88.09-2.764-2.335-2.765-4.434z"/><path fill="#C3AFC0" d="M268.699 106.45c.007 4.082-2.546 4.097-5.14 3.51-1.553-.351-2.058-1.868-1.18-3.17 1.702-2.518 3.855-2.97 6.32-.34z"/><path fill="#663E26" d="M249.316 158.765c-1.36.406-2.503.398-3.59.641-1.641.367-3.248.83-4.325-.992-.645-1.09-.554-2.24.278-3.176 1.401-1.577 3.088-1.644 4.844-.61.699.41 1.337.925 2.372 1.52.86.803.923 1.537.42 2.617z"/><path fill="#86531E" d="M268.604 206.198c2.158 1.188 3.684 2.559 2.83 4.84-.482 1.288-1.889 1.858-3.311 1.527-1.697-.394-3.099-1.334-3.221-3.243-.146-2.257 1.121-3.287 3.702-3.124z"/><path fill="#9A7E15" d="M252.134 55.05c-2.016-1.89-1.481-3.624.225-5.03 1.574-1.297 3.38-1.19 4.904.136 1.884 1.638 2.192 3.526.05 5.57-1.882.08-3.328-.523-5.179-.676z"/><path fill="#072C64" d="M188.347 138.997c-.281-.612-.263-1.27-.121-1.9.362-1.606-1.321-4.605 1.922-4.29 1.94.188 3.927 2.313 3.56 4.667-.518 3.33-3 2.057-5.361 1.523z"/><path fill="#6AAFA7" d="M224.839 101.478c2.403-.235 4.56-.236 5.05 2.325.298 1.551-1.186 2.252-2.418 2.774-1.486.63-2.948.672-3.976-.868-1.143-1.713-.843-3.12 1.344-4.23z"/><path fill="#9185B2" d="M251.816 64.899c-2.068 1.967-3.59 1.198-4.702-.51-.753-1.159-.628-2.611.384-3.638 1.055-1.068 2.397-1.927 3.918-.87 1.858 1.29 1.653 2.991.4 5.018z"/><path fill="#C6A337" d="M184.54 104.707c1.415 3.23-1.497 4.617-2.397 6.79-.309.745-1.672.993-1.922-.06-.496-2.084-.893-4.39.075-6.357.79-1.605 2.518-1.211 4.244-.373z"/><path fill="#4383BD" d="M166.271 147.306c-.823 2.985-2.248 5.3-4.87 6.77-1.765-6.63-.927-7.85 4.87-6.77z"/><path fill="#2593A0" d="M190.24 98.093c-1.613-.167-3.298 1.932-4.078-.463-.768-2.356.534-4.007 2.208-5.533.972-.887 1.78-.941 2.316.16.911 1.872 3.231 3.878-.447 5.836z"/><path fill="#C6A337" d="M228.464 140.402c-2.594-.476-2.612-1.919-2.127-3.76.436-1.658 1.504-1.995 2.968-1.833 1.187.13 2.444.3 2.342 1.889-.117 1.824-.252 3.769-3.183 3.704z"/><path fill="#9A7E15" d="M247.18 195c1.547-3.315 3.684-3.648 5.992-1.422 1.23 1.185 1.136 2.979-.309 3.945-2.706 1.81-4.691.913-5.683-2.523z"/><path fill="#C6A337" d="M207.34 95.656c.015 2.618-1.444 3.873-3.345 3.492-1.49-.298-2.718-1.96-2.884-3.654-.155-1.592 1.223-2.2 2.592-2.424 1.795-.294 3.82-.817 3.636 2.586z"/><path fill="#9185B2" d="M256.835 90.764c2.284-.707 3.954-.326 4.878 1.618.502 1.057-.166 2.014-1.077 2.444-1.51.712-3.274 1.113-4.63-.112-1.425-1.288-.68-2.66.83-3.95z"/><path fill="#D6737B" d="M177.226 154.937c-2.076.715-3.228-.058-3.143-1.882.092-1.977.674-4.122 2.51-5.069 1.674-.862 2.174 1.01 2.383 2.13.315 1.683-.788 3.104-1.75 4.821z"/><path fill="#663E26" d="M238.789 177.295c.472-.671.747-1.133 1.154-1.366 2.026-1.166 4.185-1.651 5.54.743.925 1.636-.396 2.805-1.878 3.37-2.436.926-4.593 1.002-4.816-2.747z"/><path fill="#9F0D40" d="M166.871 31.251c-2.559.35-4.136-.192-4.605-1.313-.475-1.135-.009-1.917 1.04-2.326 1.487-.578 3.173-1.792 4.576-.461 1.49 1.413-.469 2.573-1.01 4.1z"/><path fill="#694653" d="M263.699 132.367c2.232-.832 4.017-.786 4.764 1.436.467 1.389-.396 2.553-1.444 3.44-1.132.957-2.489 1.161-3.6.157-1.657-1.496-1.34-3.197.28-5.033z"/><path fill="#205496" d="M156.138 54.202c-1.557 1.278-2.947 2.342-4.628 1.302-.865-.536-.966-1.684-.54-2.65.702-1.598 1.907-2.694 3.711-2.74 3.508-.087 3.547 1.482 1.457 4.088z"/><path fill="#C3AFC0" d="M241.575 108.856c2.419 1.705 1.445 3.3.136 4.631-1.127 1.147-2.45.285-3.634-.223-1.173-.504-1.877-1.305-1.392-2.678.817-2.318 2.786-1.815 4.89-1.73z"/><path fill="#9F6864" d="M223.36 175.568c3.105.163 4.086 1.586 3.06 4.21-.645 1.652-2.078 2.47-3.444 1.355-1.968-1.607-2.76-3.68.385-5.565z"/><path fill="#755C83" d="M117.129 116.593c-3.504 2.299-2.516 6.533-4.842 9.472-2.028-1.807-.461-3.769.155-5.709 1.047-3.296 2.28-6.534 3.497-10.182 3.45 1.207.388 3.978 1.19 6.419z"/><path fill="#86531E" d="M255.685 210.296c2.326 2.356 1.823 4.167-.738 5.151-1.837.706-4.134.157-4.305-1.95-.24-2.968 2.073-3.706 5.043-3.2z"/><path fill="#5A0C0A" d="M226.56 26.128c1.949-1.164 3.686-1.815 5.05.133.712 1.018.517 2.28-.338 3.2-1.079 1.162-2.5 1.802-3.994.968-1.644-.92-2.349-2.3-.718-4.301z"/><path fill="#0B2DBB" d="M231.814 44.03c-1.685 1.205-3.109 1.866-4.32-.144-.58-.96-.627-1.878.363-2.544 1.154-.776 2.25-2.132 3.862-1.07 1.505.991 1.783 2.23.095 3.759z"/><path fill="#9F6864" d="M236.15 127.298c-.522-4.285 2.275-3.612 4.461-3.167 1.52.309 2.847 1.735 1.725 3.36-1.756 2.543-3.963 1.722-6.186-.193z"/><path fill="#C6A337" d="M196.965 167.535c-2.982-.313-2.505-1.887-1.5-3.426.639-.976.565-2.947 2.35-2.573 1.291.27 2.095 1.516 2.408 2.872.578 2.5-1.632 2.346-3.258 3.127z"/><path fill="#663E26" d="M260.43 218.667c-.433-1.38-.206-2.32.554-3.07 1.272-1.258 2.724-1.939 4.45-.93.89.521 1.583 1.326 1.34 2.436-.402 1.837-1.722 2.77-3.513 2.986-1.03.125-1.945-.284-2.83-1.422z"/><path fill="#1C5B55" d="M165.542 58.666c2.55.732 3.946 2.135 3.165 4.423-.488 1.426-1.925.742-2.957.17-2.038-1.131-4.655-2.39-3.913-5.014.762-2.696 2.168.397 3.705.421z"/><path fill="#C98D6F" d="M247.572 219.94c-2.05 1.53-3.574 1.27-4.843-.527-.71-1.005-.251-1.852.436-2.608.95-1.046 2.105-1.522 3.495-.951 1.95.801 2.272 2.133.912 4.086z"/><path fill="#12171B" d="M160.608 178.254c2.167-1.765 3.863-1.266 5.354.434.735.838.85 1.813-.053 2.586-1.266 1.083-2.707 2.01-4.437 1.211-1.819-.84-2.28-2.222-.864-4.231z"/><path fill="#9F6864" d="M128.76 118.123c.379.124.468.287.41.357-1.61 2.009-.562 4.967-2.81 6.716-1.458 1.134-3.058.765-2.732-.62.62-2.638-.095-6.813 5.132-6.453z"/><path fill="#D2C33C" d="M181.614 60.665c3.032-.179 3.978 1.484 3.032 3.624-.925 2.089-4.145 2.346-5.088 1.49-2.293-2.084.521-3.473 2.056-5.114z"/><path fill="#276C8A" d="M221.468 174.108c-2.52-.91-2.503-2.493-1.388-3.979 1.131-1.506 2.886-1.328 4.497-.735 1.238.455 1.718 1.518 1.54 2.761-.396 2.744-2.61 1.795-4.649 1.953z"/><path fill="#134264" d="M171.103 227.73c-.764-.333-1.25-.535-1.576-.885-1.53-1.645-2.18-3.515-.212-5.15 1.32-1.094 2.58-.065 3.263 1.125 1.087 1.899 2.32 4.016-1.475 4.91z"/><path fill="#1C5B55" d="M231.7 88.655c2.832-1.36 4.652-.49 5.118 2.129.36 2.029-1.323 3.22-3.09 3.024-2.972-.33-3.034-2.521-2.028-5.153z"/><path fill="#49428E" d="M228.414 75.524c1.545 1.023 2.931 1.938 1.601 3.637-.796 1.017-1.918 1.923-3.37 1.066-.974-.576-2.252-1.292-2.061-2.507.283-1.795 1.535-2.784 3.83-2.196z"/><path fill="#12171B" d="M72.72 128.476c.336 5.39 4.324 9.3 4.607 14.412-2.57-4.56-6.94-8.512-4.606-14.412z"/><path fill="#911413" d="M191.71 19.45c-.74 1.307-1.308 2.307-2.083 3.108-1.986 2.053-3.27.088-4.4-1.074-1.565-1.61.274-2.139 1.249-2.803.938-.64 1.953-1.166 3.243-1.916 1.444.253 2.021 1.08 1.991 2.685z"/><path fill="#C6A337" d="M229.325 52.811c-1.683 1.622-3.032 1.833-4.348.027-.597-.819-1.369-1.573-.351-2.531.921-.868 1.814-2.382 3.254-1.615 1.362.726 2.997 1.802 1.445 4.12z"/><path fill="#5A0C0A" d="M206.926 198.19c-2.751-2.668-1.295-4.56.96-5.681 1.706-.849 2.825.677 3.011 2.308.297 2.608-.583 4.3-3.971 3.373z"/><path fill="#663E26" d="M219.11 138.183c1.911.44 3.304 1.198 2.531 3.095-.586 1.437-1.893 2.375-3.548 2.281-1.242-.07-2.389-.835-2.487-2.073-.163-2.067 1.597-2.655 3.504-3.303z"/><path fill="#9F6864" d="M249.276 159.324c-.153-.955-.105-1.653-.035-2.7 1.907-1.538 3.678-1.744 5.107.33.606.88.729 1.93-.045 2.7-1.57 1.563-3.233 1.112-5.027-.33z"/><path fill="#9A7E15" d="M219.268 153.14c.934-.83 1.743-.84 2.513-.44 1.293.668 3.71.361 2.933 2.96-.433 1.447-1.564 2.054-3.108 1.598-1.926-.569-4.192-.915-2.338-4.118z"/><path fill="#5A0C0A" d="M242.481 91.77c.354-2.094 1.23-3.445 3.22-3.341 1.367.07 1.896 1.156 1.944 2.425.055 1.442-.564 2.656-1.85 3.215-1.84.798-2.67-.495-3.314-2.299z"/><path fill="#911413" d="M220.255 116.234c-2.341.318-5.028.624-4.81-2.088.21-2.601 3.27-2.982 5.505-3.364 2.428-.416 2.395 1.026 1.388 3.009-.642 1.033-.801 2.007-2.083 2.443z"/><path fill="#0E65AB" d="M233.865 114.253c.1 2.184-.858 3.1-2.68 2.736-1.648-.33-1.41-2.01-1.81-3.172-.394-1.147.253-1.955 1.32-2.202 1.873-.433 2.616.838 3.17 2.638z"/><path fill="#5A0C0A" d="M166.14 196.57c2.24.736 4.468 1.524 3.055 4.13-.987 1.818-2.953 1.443-4.326.294-2.245-1.878-1.419-3.378 1.27-4.424z"/><path fill="#911413" d="M239.83 99.292c2.79-.661 4.118.375 3.484 2.924-.366 1.473-1.678 2.592-3.371 1.842-2.72-1.204-1.874-2.913-.114-4.766z"/><path fill="#C6A337" d="M224.095 35.464c-.583.577-.972.898-1.418 1.083-1.896.782-3.626.899-4.34-1.547-.55-1.886.925-2.29 2.211-2.566 2.158-.464 4.11-.423 3.547 3.03z"/><path fill="#2C2B2C" d="M82.456 172.226c-4.354 1.565-8.448 2.94-12.542 4.315 3.063-3.802 7.869-3.737 11.508-6.167.556-.371 2.084.123 1.034 1.852z"/><path fill="#5A0C0A" d="M256.52 126.524c-1.77-1.601-1.476-2.79.203-3.736 1.51-.85 2.888-.537 4.052.675.854.888 1.464 1.993.585 3.105-1.38 1.744-3.01.534-4.84-.044z"/><path fill="#86531E" d="M242.984 80.866c2.01.414 3.212 1.206 2.548 3.107-.569 1.629-2.038 2.05-3.594 2.065-1.315.014-2.31-.686-2.37-2.005-.09-1.983 1.168-2.93 3.416-3.167z"/><path fill="#911413" d="M211.992 203.608c.106-.742.163-1.362.49-1.583 1.617-1.093 3.373-1.402 4.887.078.778.761.646 1.937-.263 2.585-1.857 1.322-3.64 1.303-5.114-1.08z"/><path fill="#86531E" d="M262.949 143.948c-1.284 3.228-3.355 3.258-5.452 1.521-1.168-.966-.795-2.518.4-3.377 2.202-1.583 3.943-.971 5.052 1.856z"/><path fill="#9F6864" d="M224.656 204.661c2.32-.233 4.501-.029 4.161 2.63-.21 1.644-1.59 2.704-3.69 1.932-2.931-1.077-2.32-2.588-.471-4.562z"/><path fill="#5A0C0A" d="M241.48 143.555c.577 2.711-.08 4.408-2.85 3.83-1.526-.32-2.72-1.73-2.038-3.356 1.01-2.405 2.822-2.409 4.888-.474z"/><path fill="#663E26" d="M93.454 49.114c.415-.467 1.204-.783 2.325-1.142 4.293.261 8.546-.906 11.923 2.643-4.559-1.52-9.327.144-14.248-1.5z"/><path fill="#9F6864" d="M225.887 218.527c-1.123-2.035-1.266-3.94 1.198-4.238 1.468-.178 3.648.37 3.304 2.684-.376 2.533-2.243 2.487-4.502 1.554z"/><path fill="#072C64" d="M247.427 118.568c1.435-1.136 2.68-1.438 3.66-.023.785 1.133.326 2.241-.615 3.092-.918.832-2.124 1.277-3.19.59-1.502-.966-.874-2.256.145-3.659z"/><path fill="#9A7E15" d="M199.469 212.821c.26 2.183.577 4.464-2.412 4.26-1.68-.114-2.674-1.184-2.138-3.081.736-2.606 2.196-2.996 4.55-1.179z"/><path fill="#9F6864" d="M263.374 189.215c-1.78-.81-3.513-1.462-2.782-3.602.329-.964 1.335-1.502 2.387-1.383 1.332.15 2.624.634 2.975 2.118.423 1.788-.34 2.836-2.58 2.867z"/><path fill="#2C2B2C" d="M160.56 162.11c1.906-1.166 3.628-1.853 4.99.057.685.96-.124 1.883-.892 2.49-1.109.878-2.206 2.211-3.846 1.31-1.643-.905-1.72-2.221-.251-3.857z"/><path fill="#1C5B55" d="M187.988 139.004c-.294 2.24 2.343 3.064 2.528 5.465-2.7.284-5.55-.087-6.612-2.414-.843-1.85 1.245-3.03 3.733-2.96.354-.065.367-.097.35-.09z"/><path fill="#134264" d="M67.163 170.782c-5.115.651-8.451 5.602-14.68 5.049 4.704-3.034 8.835-5.06 14.022-5.483.538.048.707.144.658.434z"/><path fill="#9F0D40" d="M183.465 214.754c.496-.013.449.026.444 0-1.578.848-3.096 1.846-4.74 2.552-1.107.476-2.715 1.42-3.336-.52-.566-1.77 1.054-2.184 2.311-2.577 1.67-.52 3.286-.234 5.32.545z"/><path fill="#205496" d="M89.622 82.11c3.437-2.308 7.682-2.969 12.244-3.495.85-.225 1.325-.1 1.651.554-3.281 1.125-6.432 2.006-9.97 2.943-1.397.453-2.443.393-3.925-.002z"/><path fill="#663E26" d="M142.334 222.784c.337-.634.85-1.021 1.522-1.595 3.86 3.26 3.803 5.192-.426 8.834-2.675-1.674-.931-3.425-.298-5.561-.227-.726-.425-1.078-.798-1.678z"/><path fill="#1C5B55" d="M226.443 129.788c-.534.763-.993 1.233-1.502 1.641-1.4 1.122-2.695 1.193-3.734-.484-.515-.83-1.281-1.764-.216-2.606 1.14-.903 2.427-1.986 3.973-.78.626.489 1.028 1.263 1.48 2.229z"/><path fill="#49428E" d="M238.537 212.755c.518 2.334.279 4.25-2.326 3.865-1.814-.267-2.007-2.245-1.594-3.636.72-2.424 2.255-1.883 3.92-.23z"/><path fill="#755C83" d="M263.947 82.356c.442 2.606-.026 4.553-2.73 4.392-2.03-.12-2.844-1.77-2.13-3.603.916-2.35 2.626-2.764 4.86-.789z"/><path fill="#ABA7DE" d="M150.593 83.93c-2.921-.588-1.819-2.001-.892-3.109.87-1.04 2.032-1.773 3.313-.404.744.795 2.606 1.018 2.198 2.3-.684 2.15-2.83.746-4.619 1.213z"/><path fill="#9F0D40" d="M188.442 72.264c-.24-1.015-.51-1.812-.816-3.029.266-.579.566-.738 1.346-.723 1.58 1.734 2.817 3.217 3.749 4.872 1.213 2.153.12 2.918-2.366 2.724a36.847 36.847 0 0 1-1.614-.968c-.208-.71-.238-1.15-.223-1.918.044-.329-.105-.741-.076-.958z"/><path fill="#D6737B" d="M242.84 208.45c.553-3.067 2.54-3.009 4.46-2.25 1.243.49 1.343 1.98.394 2.843-1.558 1.416-3.345 2.082-4.855-.592z"/><path fill="#1C5B55" d="M215.736 190.38c-2.953-.482-2.83-2.239-1.86-4.02.606-1.115 1.925-1.589 2.938-.495 1.534 1.657 1.475 3.278-1.078 4.515z"/><path fill="#86531E" d="M142.923 224.38c1.497 1.483-.193 3.252.177 5.394-1.173 1.919-2.454 3.336-4.985 4.193 1.122-3.717 2.664-6.603 4.808-9.587z"/><path fill="#2C2B2C" d="M93.843 152.7c.205.725.257 1.18.224 1.966-4.32-.714-4.866-3.86-1.497-9.435.681-.207 1.042-.015 1.378.647 0 2.396-3.25 4.316-.105 6.822zM59.056 21.974c-2.166.002-3.904.002-5.641.002 3.71-2.643 7.568-1.89 11.444-1.22-1.578 1.687-3.558 1.031-5.803 1.218z"/><path fill="#0E65AB" d="M232.587 67.19c-.92 2.268-2.301 3.144-4.157 1.453-.833-.758-1.44-1.984-.188-2.973 1.91-1.507 3.32-.846 4.345 1.52z"/><path fill="#9F0D40" d="M217.119 58.77c-.25-.848-.45-1.527-.29-2.106.296-1.064.55-2.327 1.9-2.57.858-.154 1.63.298 1.928 1.145.488 1.39-.084 2.574-1.066 3.511-.619.59-1.454.651-2.472.02z"/><path fill="#4C3B60" d="M165.928 88.185c1.119-.56 2.74-1.271 2.786-1.18.972 1.91-.333 3.636-.099 6.173-2.587-1.31-3.856-2.39-2.687-4.993z"/><path fill="#BE3A1E" d="M212.291 125.609c-2.45-.887-2.904-2.348-1.594-4.208.552-.785 1.48-.599 2.157-.074 1.938 1.504 1.579 2.944-.563 4.282z"/><path fill="#755C83" d="M152.982 162.265c.016-1.04.178-1.766.379-2.864.042-.555.046-.737-.015-1.185-.272-1.155-.789-2.155.033-2.882.702-.622 1.417-.064 2.265.732.446.273.616.31.674.582.074 1.007.26 1.778.465 2.948-.17.813-.288 1.246-.545 1.971-.199.275-.401.413-.518.45-.17.21-.224.381-.48.73-.204.178-.182.273-.21.313-.78.328-1.365.013-2.048-.795z"/><path fill="#2C2B2C" d="M47.987 33.04c-1.714-.557-3.213-.796-4.513-2.528 3.787-.405 6.477 1.728 9.504 2.327.764.151 1.827.515 1.302 1.587-.493 1.006-1.513 1.263-2.438.404-1.009-.938-2.194-1.432-3.855-1.79z"/><path fill="#4C3B60" d="M126.765 41.647c2.81.73 5.268 1.367 7.726 2.003l-.239 1.158-11.061-2.164c.79-1.929 2.05-1.373 3.574-.997z"/><path fill="#5A0C0A" d="M203.758 114.93c-1.243-1.424-3.758-2.28-1.657-4.339.927-.909 2.351-.325 2.754.883.41 1.227 2.797 3.241-1.097 3.456z"/><path fill="#134264" d="M94.194 145.83c-.471.11-.754-.142-1.211-.62.113-3.357-.57-6.72 2.867-10.64-.612 4.544-1.04 7.72-1.656 11.26z"/><path fill="#9F6864" d="M233.748 153.189c2.446-.135 3.992 1.094 3.014 3.097-1.285 2.631-3.652 1.975-5.96.316.205-1.817 1.305-2.636 2.946-3.413z"/><path fill="#134264" d="M125.546 160.202c-.69-.558-.995-1.139-1.432-2.019-.132-.299.222-.348.396-.308.35-.041.525-.123.987-.253 2.423-.82 4.566-1.716 6.865.192-1.89 2.041-4.188 2.129-6.816 2.388z"/><path fill="#4383BD" d="M137.956 166.602c-2.623.267-5.212.672-6.909-2.293 1.56-1.243 3.377-.623 5.565-.834 2.011.498 2.155 1.541 1.344 3.127z"/><path fill="#134264" d="M88.857 81.803c1.327.095 2.322.18 3.81.315-3.018 1.219-6.53 2.388-10.418 3.559-.353-.362-.33-.726-.28-1.36 1.946-1.774 4.35-1.864 6.888-2.514zM208.446 104.844c1.328-1.989 2.794-2.814 4.442-.882.706.827.518 1.945-.341 2.632-2.043 1.634-3.24.47-4.1-1.75z"/><path fill="#5A0C0A" d="M236.01 200.793c-2.265-.491-3.43-1.554-2.253-3.543.686-1.158 2.07-1.187 3.051-.312 1.533 1.368 1.773 2.795-.798 3.855z"/><path fill="#1C5B55" d="M201.696 184.432c1.953 2.765.002 4.377-1.432 5.822-.773.78-1.506-.683-2.294-1.565-.972-3.267.192-4.645 3.726-4.257z"/><path fill="#9F6864" d="M262.966 170.99c2.32-1.777 3.901-1.233 4.164 1.086.25 2.209-.356 4.351-3.756 3.428-1.26-1.435-1.254-2.734-.408-4.515z"/><path fill="#9F0D40" d="M209.128 161.865c2.085 1.062 2.18 2.598 1.21 4.158-.566.91-1.535.436-2.08-.186-1.286-1.47-1.5-2.9.87-3.972z"/><path fill="#9185B2" d="M256.97 35.375c1.414 1.373 3.006 2.842.994 4.482-1.875 1.529-3.58.937-4.854-1.43.541-1.983 1.714-2.881 3.86-3.052z"/><path fill="#2C2B2C" d="M43.604 24.99c-.433 1.63-4.265 1.34-2.564 4.58-2.683.783-3.694-1.08-5.215-3.29 2.755-.473 5.085-.874 7.78-1.29z"/><path fill="#4C3B60" d="M247.37 147.313c-.099-2.175.615-3.912 2.767-3.956 1.93-.04 3.443.93 3.097 3.577-1.9 1.025-3.657 2.22-5.864.379z"/><path fill="#D6737B" d="M181.318 40.295c1.486-.798 3.032-1.162 3.688.52.32.825-.638 1.884-1.602 2.145-2.064.559-1.718-1.331-2.086-2.665z"/><path fill="#9F6864" d="M87.779 199.213c1.36 1.264 2.715 1.884 4.736 1.763-1.043 1.3-2.331 3.38-4.462 2.201-1.115-.616-2.889-2.254-.274-3.964z"/><path fill="#911413" d="M224.557 117.07c.433.018.893.03 1.12.063.749.314 1.095.736 1.274 1.59.137 4.005-2.215 3.349-4.8 2.624-1.547-2.68-.845-4.076 2.406-4.276z"/><path fill="#5A0C0A" d="M224.77 116.879c-1.016 1.122-2.818 1.527-2.863 3.917-1.89-.51-1.496-2.328-1.923-4.162.49-.992 1.04-1.638 1.885-2.419.537 1.237 1.663 1.796 2.9 2.664z"/><path fill="#0E65AB" d="M156.599 94.251c1.038-1.086 2.246-2.576 3.701-1.533 1.476 1.058 1.032 3.034.439 4.547-.689 1.76-1.734.804-2.864-.105-.407-.59-.58-1.036-.827-1.834-.074-.352.303-.638.303-.638s-.205-.426-.44-.397c-.234.03-.314.002-.312-.04z"/><path fill="#2C2B2C" d="M51.977 79.66c-1.53 1.35-.922 3.893-3.344 4.679-.287-2.5-.208-4.864 1.409-6.63.601-.658 1.635.567 1.935 1.95z"/><path fill="#1C5B55" d="M136.139 62.609c-.015-2.28 1.063-3.815 3.522-4.589.325-.1.42.343.422.569.002.226.138.598.543.981.502 3.933-2.258 2.84-4.487 3.039z"/><path fill="#2C2B2C" d="M34.207 67.076c1.102.297 1.977.34 2.496 1.74l-9.198.457c2.203-2.943 4.417-2.105 6.702-2.197z"/><path fill="#1C5B55" d="M64.5 73.626c-2.074-2.234-3.808-4.841-5.568-7.773-.121-.63-.216-.934.145-1.094 3.667 2.01 5.137 4.983 5.423 8.867z"/><path fill="#276C8A" d="M103.307 100.403c-.347-.117-.3-.083-.322-.08 2.107.665 2.577-1.693 4.365-2.352.662.72 1.006 1.556 1.498 2.7-1.896 3.243-3.565 1.784-5.541-.268z"/><path fill="#911413" d="M172.158 171.594c-.949.188-1.623.19-2.63.122-2.165-1.494-1.137-2.853-.019-4.55.22-.333.261-.43.31-.446 1.1-.272 2.14-.798 3.477.181.295.978.34 1.629.344 2.604-.317.935-.7 1.466-1.482 2.09z"/><path fill="#9A7E15" d="M202.036 184.37c-1.519.927-3.381 1.28-4.096 3.687-1.343-1.26-1.826-3.099-.125-4.505 1.25-1.034 3.027-1.692 4.221.818z"/><path fill="#1C5B55" d="M87.116 30.656c.932.274 1.7.286 2.137.673.575.51-.181.77-.53.899-2.024.744-4.035.876-6.403-.232 1.45-1.589 2.782-2.076 4.796-1.34z"/><path fill="#12171B" d="M118.119 22.045c.434-1.21.074-1.958-1.037-2.717.385-.408.929-.636 1.688-1.068.372-.348.528-.493.974-.504.98 1.833 3.055.714 4.003 1.914-.317 2.457-3.089 1.584-4.396 3.223-.557-.128-.792-.4-1.232-.848z"/><path fill="#1C5B55" d="M216.618 224.75c-1.514 1.125-2.883 1.663-3.963-.046-.388-.613-.207-1.391.512-1.63 1.515-.504 3.29-1.387 3.45 1.676z"/><path fill="#9F6864" d="M117.865 147.516c.125-.517.442-.76.943-1.237 1.929.532 3.837 1.114 4.639 3.085.103.253-.375 1.033-.706 1.125-2.425.673-3.04-1.921-4.876-2.973z"/><path fill="#12171B" d="M82.959 115.634c-2.613-1.868-5.977-2.09-9.027-3.263 3.233.132 7.046-1.885 9.027 3.263zM89.751 168.37c2.313-1.836 4.97-1.521 7.649-2.43.672.127.967.285.887.776-2.75 1.36-4.897 2.944-7.93 3.26-.703-.363-.86-.799-.606-1.605z"/><path fill="#694653" d="M46.7 161.735c.063 1.451.613 3.061-.6 3.433-1.083.332-2.552-.093-3.679-.581-.768-.333-.66-1.51-.176-2.166 1.16-1.571 2.312.547 3.712-.072.31-.463.42-.72.742-.614z"/><path fill="#1C5B55" d="M128.857 56.62c-1.109 2.355-1.15 4.764-.681 7.629-1.98-2.416-3.833-5.212.681-7.629z"/><path fill="#2C2B2C" d="M70.213 212.704c-.387-.47-.335-.79-.29-1.354 1.802-.263 3.61-.417 5.39-.258 1.41.125 2.787.633 4.155 1.336-2.915.992-5.868.554-9.255.276z"/><path fill="#12171B" d="M163.09 121.677c.776-2.458-1.536-3.602-2.801-5.577.654-.528 1.466-.748 2.604-.953.93.357 1.588.606 2.293 1.379.202.527.22.759.019 1.26-.453 1.568-.804 2.812-2.116 3.891z"/><path fill="#9185B2" d="M131.326 19.739c-1.356-1.241-3.766-1.67-4.3-4.307 3.127-.62 4.677.753 4.3 4.307z"/><path fill="#12171B" d="M60.037 218.96c-1.278-.134-2.37.31-3.22-1.193 2.37-1.137 4.579-.895 7.164.011-1.031 1.645-2.437 1.019-3.944 1.181z"/><path fill="#755C83" d="M34.864 80.185c3.026-.355 5.007 1.92 7.585 2.689-2.753 2.132-4.57-1.054-7.149-1.73-.412-.365-.53-.542-.436-.959z"/><path fill="#663E26" d="M73.688 45.09c.33.044.38.266.506.822-1.225 2.148-2.526 3.961-4.554 6.788.181-4.075 1.933-5.775 4.048-7.61z"/><path fill="#694653" d="M247.088 147.41c1.83-.401 3.656-.464 5.757-.36-1.537 2.627-3.414 4.334-5.757.36z"/><path fill="#134264" d="M103.778 79.473c-.722-.192-1.053-.324-1.477-.545 1.51-2.25 3.586-2.105 6.156-1.535-1.049 2.146-2.802 1.87-4.68 2.08z"/><path fill="#4C3B60" d="M79.638 95.508c1.965-1.538 4.035-2.097 6.493-2.58.59-.069.822-.151 1.42-.225.515.203.663.4.586.887-.223.292-.243.318-.258.321-.32.534-.763.85-1.668.827-2.365.648-4.45 1.356-6.899 2.073-.576-.144-.788-.295-.69-.684.308-.239.362-.196.34-.17.122-.096.267-.218.676-.449z"/><path fill="#694653" d="M191.857 19.681c-.655-.695-1.086-1.557-1.673-2.755.612-1.608 1.985-2.575 3.06-1.541 1.694 1.628-.29 2.86-1.387 4.296z"/><path fill="#12171B" d="M70.96 124.952c-1.522-1.852-.722-3.753-.355-5.677 1.624 1.71 1.845 3.602.354 5.677z"/><path fill="#663E26" d="M86.722 213.792c-.448 2.152-.836 4.303-3.01 5.774-1.568-2.757.763-3.732 2.023-5.384.431-.325.59-.45.987-.39zM217.698 211.233c1.805 1.64.844 2.33-.674 2.62-.924.176-2.266.248-2.4-.943-.226-2.004 1.534-1.572 3.074-1.677z"/><path fill="#2C2B2C" d="M114.101 40.784c1.168-.484 2.588-.683 4.373-.929.632.777 2.728 1.403.713 2.472-1.94 1.03-3.696.98-5.086-1.543z"/><path fill="#C6A337" d="M172.821 35.445c3.308.996 6.582 2.325.549 4.698-1.275-1.426-.751-2.911-.549-4.698z"/><path fill="#9F6864" d="M257.168 35.121c-.741 1.441-2.023 2.161-3.764 2.848-.774-3.058.63-4.003 3.764-2.848z"/><path fill="#C6A337" d="M251.984 55.322c1.521-1.941 3.203-3.233 4.833.214-1.502 1.585-3.093 1.173-4.833-.214z"/><path fill="#694653" d="M99.493 213.43c-.247-2.02-1.916-2.788-3.133-4.538 4.246.328 4.79 2.528 4.308 5.444-.006.038-.3.1-.382.042-.25-.18-.463-.412-.793-.947z"/><path fill="#49428E" d="M78.485 95.855c.445.033.443.499.453.731.01.233-.455.4-.699.436-.384.172-.525.307-.946.357-2.883.746-5.377-.275-7.98-1.089 2.91-.156 5.819-.312 9.172-.435z"/><path fill="#694653" d="M176.854 118.258c1.808-1.03 3.658-1.078 4.415.538.57 1.217-1.385 1.483-2.468 2.27-1.668-.216-2.041-1.208-1.947-2.808z"/><path fill="#12171B" d="M50.648 105.022c-1.404 2.308-3.77 3.4-7.82 3.956 2.79-2.57 4.945-3.562 7.82-3.956z"/><path fill="#755C83" d="M177.078 121.735c-.888 1.945-2.405 3.276-4.19 2.235-1.762-1.028-.197-2.468.729-3.816 1.46-.039 2.622.115 3.461 1.581z"/><path fill="#2C2B2C" d="M74.314 30.568c-3.233-1.038-2.247-3.29-1.335-6.362 1.61 2.302.744 4.339 1.335 6.362z"/><path fill="#D6737B" d="M177.463 121.954c-1.356-.173-2.697.053-3.433-1.635.422-1.33.963-2.35 2.647-2.454.765.86 1.186 1.715 1.714 2.91-.155.585-.417.83-.928 1.18z"/><path fill="#DC611B" d="M194.287 170.716c-.25 1.709-.826 3.08-2.988 3.315-.543-.305-.761-.54-1.268-.757-.24-.029-.217-.08-.245-.082-.01-.36-.143-.648-.6-1.044-.242-.348-.312-.518-.375-.966.208-.389.408-.501.913-.774.768-.13 1.232-.1 2.044-.07 1.013-.201 1.665-.221 2.52.378z"/><path fill="#276C8A" d="M142.42 67.97c2.918 2.112 5.918.331 9.123.877-2.515.431-5.464.84-8.427 1.089-1.407.118-2.54-.237-.697-1.966z"/><path fill="#12171B" d="M108.587 157.482c-1.39.654-3.049 1.154-5.08 1.703-.193-.732-.013-1.511.209-2.687.571-.818 1.1-1.239 1.88-1.725.477 1.37 1.438 2.116 2.99 2.71zM29.669 208.231c-1.354.28-2.633.207-1.372-1.112 1.26-1.318 3.202-1.297 5.88-.69-1.842.747-3.027 1.227-4.508 1.802z"/><path fill="#5DB5E8" d="M150.588 19.752c.482 1.935-.81 3.118-2.432 4.48-.338.355-.497.442-.927.546-1.03-.154-1.478-.639-1.557-1.715 1.606-1.288 3.101-2.243 4.916-3.31z"/><path fill="#12171B" d="M77.762 149.85c.173-1.297.276-2.249.38-3.2 1.07 2.69 1.037 5.281-.59 8.333-.907-1.96-.26-3.375.21-5.133z"/><path fill="#0E65AB" d="M118.668 135.167c-.057 1.844 1.458 2.864 2.412 4.526-.06.471-.257.625-.752.553-.492-1.955-7.278-1.389-1.66-5.08z"/><path fill="#4383BD" d="M145.492 22.84c.59.403.889.917 1.327 1.694-1.163.805-2.858 1.999-3.738.47-.819-1.42 1.557-1.149 2.41-2.164z"/><path fill="#2C2B2C" d="M48.722 142.759c-2.995.33-5.841-1.318-9.025-1.17 3.065-.687 6.087-1.118 9.025 1.17zM45.081 122.346c2.114.282 3.753 1.512 4.685 4.274-2.724-.265-3.559-2.25-4.685-4.274z"/><path fill="#205496" d="M165.339 118.079c-.355-.024-.442-.439-.511-.639-.763-1.309-.458-2.473-.012-3.998.246-.367.19-.44.224-.409 2.004-1.33 2.77-.05 3.407 1.94-.068 1.162-.42 1.829-1.107 2.75-.708.323-1.177.352-2.001.356z"/><path fill="#1C5B55" d="M129.003 191.557c.472-2.39.283-4.714 2.275-6.558.46 2.196-.837 4.21-1.591 6.671-.193.259-.565.23-.684-.113z"/><path fill="#12171B" d="M69.098 195.205c2.756.345 1.59 2.157 1.484 4.111-2.11-.993-1.299-2.607-1.484-4.111z"/><path fill="#694653" d="M30.233 80.635c-1.964.041-3.795.819-5.588-.192 1.175-2.101 3.078-1.457 5.151-1.24.605.48.702.833.437 1.432z"/><path fill="#2C2B2C" d="M37.078 149.078c1.01.266 2.886.041 1.52 1.392-.775.766-2.598 1.034-4.029.332.228-1.333 1.28-1.428 2.51-1.724z"/><path fill="#5A0C0A" d="M169.423 166.948c.11 1.262-.087 2.638-.255 4.356-3.702-1.12-1.676-2.684.255-4.356z"/><path fill="#134264" d="M94.39 119.909c.792.224 1.282.533 2.08.843-.517 1.657-2.02 2.818-3.546 1.723-1.264-.906.36-1.801 1.467-2.566z"/><path fill="#12171B" d="M72.063 167.522c.73-2.542 2.31-1.459 3.925-1.106-.802 2.145-2.312 1.568-3.925 1.106z"/><path fill="#2C2B2C" d="M67.271 143.395c-.24-1.378-1.167-2.39-.3-3.876 1.417 1.433 2.305 3.253 1.78 4.803-.498 1.468-.911-.298-1.48-.927z"/><path fill="#9F6864" d="M91.265 183.767c-.39.335-.672.328-1.37.241.177-1.937.769-3.795 1.605-5.916.53-.347.818-.429 1.498-.293-.28 2.02-.952 3.823-1.733 5.968z"/><path fill="#5DB5E8" d="M115.893 103.647c-1.23.074-1.393-.52-1.003-1.624.797-.82 1.593-1.405 2.647-2.152.82-.314 1.241-.137 1.453.743-1.014 1.181-1.956 1.987-3.097 3.033z"/><path fill="#12171B" d="M56.584 164.03c-1.26 1.697-3.329 2.243-6.561 2.6 2.186-2.314 4.155-2.504 6.56-2.6zM136.098 130.036c.121.924.187 1.538.317 2.457-1.266.314-2.597.322-4.255.315.43-1.623 2.64-2.083 2.975-4.415.358.228.633.78.963 1.643z"/><path fill="#2C2B2C" d="M53.717 109.294c2.277-1.753 3.982-.424 6.044.127-1.738 1.131-3.319.43-5.222.408-.644-.123-.906-.214-.822-.535zM89.618 168.093c.348.403.357.828.37 1.574-1.342.474-2.576 1.587-4.336.786.635-1.876 2.283-1.891 3.966-2.36z"/><path fill="#4C3B60" d="M64.113 74.416c.048-.416.382-.425.55-.43 1.023 2.264 1.502 4.527-.187 7.007-.463.248-.676.25-.908-.066.153-2.244.325-4.17.545-6.511z"/><path fill="#694653" d="M85.98 103.985c-.674 2.452-2.584 2.39-4.818 2.582.856-2.365 2.58-2.379 4.516-2.59.36.06.297.041.302.008z"/><path fill="#12171B" d="M57.429 191.095c.95.404 2.108.958.884 1.554-1.325.645-2.76-.148-4.346-1.436 1.356-.071 2.26-.119 3.462-.118z"/><path fill="#5A0C0A" d="M99.702 130.457c1.73-.045 4.128-.053 3.629 1.958-.532 2.14-1.942-.067-3.227-.52-.522-.478-.63-.821-.402-1.438z"/><path fill="#134264" d="M168.102 116.028c-.446-1.556-1.06-2.52-2.731-2.896.167-1.162.836-2.312 2.154-1.687 1.464.695 1.713 2.207 1.412 4.118-.239.487-.43.606-.835.465z"/><path fill="#49428E" d="M88.203 93.268c-.484-.226-.728-.257-1.342-.308 1.17-1.742 3.226-2.456 5.75-2.956.494.167.626.329.559.732-.43.458-.662.676-1.046 1.075-.56.63-1.136.677-1.87 1.016-.373.23-.548.26-.983.344-.45.131-.639.21-1.068.097z"/><path fill="#12171B" d="M36.76 50.741c-2.045.25-4.223-.121-6.475-1.326 2.488-.877 4.419-.187 6.475 1.326z"/><path fill="#9185B2" d="M30.444 80.898c-.373-.385-.317-.709-.271-1.276 1.414-.184 2.855-.12 4.599.133.3.36.295.529.262.95-1.411.251-2.794.251-4.59.193zM119.98 17.543c-.125.346-.304.345-.739.428-1.261-1.489-1.848-3.109-.507-4.891.594 1.383.894 2.75 1.246 4.463z"/><path fill="#911413" d="M99.473 130.166c.395.396.386.725.378 1.299-.712.229-1.424.212-2.488.122a24.057 24.057 0 0 1-3.008-1.274c1.435-.186 3.074-.2 5.118-.147z"/><path fill="#5A0C0A" d="M173.602 166.923c-1.033.173-2.01.04-3.36-.155.848-1.94 2.066-3.907 3.36.155z"/><path fill="#2C2B2C" d="M51.066 180.365c1.432.162 3.183.149 4.493 1.966-2.001.227-3.356-.28-4.493-1.966z"/><path fill="#12171B" d="M40.011 88.991c1.067.072 1.814.145 3.414.303-2.545 1.012-4.212.899-6.927.067 1.735-.2 2.464-.284 3.513-.37zM67.44 219.565c1.103-.752 2.16-.695 2.996.316.146.177.134.777.019.835-1.259.64-1.984-.588-3.015-1.15z"/><path fill="#C98D6F" d="M233.658 152.848c-.145 1.509-1.082 2.509-2.738 3.296-1.934-2.939.474-2.984 2.738-3.296z"/><path fill="#12171B" d="M39.895 205.52c-.968.144-1.737.117-2.506.09.216-.344.37-.906.661-.99.784-.223 1.944-1.087 1.845.9z"/><path fill="#7F6F98" d="M114.27 28.928c-.29-.529-.233-.925-.22-1.62 1.27-.488 3.032-.598 3.137.908.122 1.756-1.63.686-2.917.712z"/><path fill="#12171B" d="M35.528 114.331c0-1.111.402-1.745 1.334-1.686.218.013.637.73.549.974-.283.782-.476 2.058-1.883.712z"/><path fill="#2C2B2C" d="M25.475 105.864c.122-1.354.443-2.518 1.024-4.623.536 2.516.885 3.929-1.024 4.623zM67.146 183.659c-2.324.237-4.44.237-6.556.237l-.101-.793c1.904-.083 3.808-.167 6.135-.241.525.192.628.376.522.797zM84.347 57.369c-.079-1.45-.95-3.4.645-3.498 1.482-.09.841 1.594.512 2.893-.382.497-.604.712-1.157.605z"/><path fill="#694653" d="M93.614 177.838c-.5.16-.775.143-1.46.057.037-1.36.335-3.38 1.908-3.016 1.314.303-.003 1.813-.448 2.96z"/><path fill="#276C8A" d="M59.064 65.374c-1.544-.375-2.395-1.48-3.347-2.961.084-.496.333-.685 1.029-.731 1.166.956 1.886 1.768 2.696 2.902.091.32-.22.635-.378.79z"/><path fill="#12171B" d="M75.607 35.11c2.041.255.992 1.184.516 1.85-.187.26-1.033.427-1.194.262-.777-.799-.06-1.392.678-2.112z"/><path fill="#276C8A" d="M119.225 101.053c-.54-.36-.771-.656-1.216-1.148.54-1.279 1.562-2.579 2.77-1.336.958.984-.162 1.996-1.554 2.484z"/><path fill="#12171B" d="M67.266 183.865c-.31-.14-.294-.31-.248-.737 1.146-1.255 2.48-1.526 4.133-1.79-.689 2.08-2.284 2.035-3.885 2.527z"/><path fill="#2C2B2C" d="M59.052 149.494c-1.426-.64-2.46-1.092-2.596-2.384-.02-.181.335-.577.511-.574 1.109.018 1.576.88 2.154 1.991.18.579.26.87-.069.967zM51.725 128.846c1.73.416 1.206 1.566 1.003 2.901-1.018-.8-1.36-1.657-1.003-2.901z"/><path fill="#134264" d="M93.297 90.951c-.326.026-.324-.458-.323-.7.88-1.016 2.432-1.846 2.845-.805.636 1.601-1.322 1.11-2.522 1.505zM136.724 163.294c-1.412.352-3.157.547-5.348.71-.654-.07-.86-.109-1.378-.211 1.826-1.375 4.14-.672 6.726-.499z"/><path fill="#C98D6F" d="M262.916 170.678c.326 1.143.301 2.391.243 4.104-2.812-.699-1.83-2.333-.243-4.104z"/><path fill="#0E65AB" d="M124.03 138.947c.54-.838-1.024-3.647 2.19-2.504.166.605.113.96-.094 1.548-.332.336-.511.44-.964.69-.465.176-.655.206-1.132.266z"/><path fill="#9F6864" d="M105.891 136.184c.163.483.138.78.075 1.523-1.207-.094-2.574-.49-2.03-2.28.588.19 1.177.381 1.955.757z"/><path fill="#2C2B2C" d="M47.992 38.27c.068-1.222.417-2.126 1.673-2.08.192.008.566.462.521.604-.31.984-.873 1.735-2.194 1.477zM83.227 66.761c-.208-1.096.075-2.19.582-3.541.341-.469.458-.681.817-.623.342 1.712-.249 2.949-1.4 4.164z"/><path fill="#86531E" d="M196.44 67.276c1.943.075 1.482-1.736 2.108-3.09.471 3.733.471 3.733-2.107 3.09z"/><path fill="#12171B" d="M70.239 67.069c.392-.515.894-1.102 1.053-1.02.756.389.533 1.095.13 1.595-.546.678-1.06.646-1.183-.575z"/><path fill="#134264" d="M164.811 113.207c.195.98.14 2.09.016 3.617-.845.188-1.414-.244-1.579-1.38.418-.889.865-1.497 1.563-2.237z"/><path fill="#2C2B2C" d="M101.79 166.66c-.537.582-1.307.958-2.41 1.359-.332.025-.426-.315-.418-.491-.148-.447-.304-.718-.133-1.324 1.128-.141 1.929.053 2.962.455z"/><path fill="#86531E" d="M194.736 170.744c-.85.136-1.48.054-2.364-.217.766-1.256 1.802-2.556 2.364.217z"/><path fill="#694653" d="M84.902 62.453c-.033.415-.45.473-.66.492-.245-1.673-.28-3.365-.272-5.477.266-.433.487-.445 1.04-.439.197 1.682.062 3.346-.108 5.424z"/><path fill="#1C5B55" d="M139.965 56.77c-1.12.16-2.27.007-3.722-.321 1.048-.502 2.44-1.759 3.722.32z"/><path fill="#12171B" d="M27.017 195.09c1.016-.01 1.789.035 2.913.1-1.209 1.143-2.194.782-3.141.643-.126-.018-.303-.216-.312-.342-.008-.108.19-.23.54-.401z"/><path fill="#2C2B2C" d="M91.25 209.5c.487-1.2 1.943-2.132 2.405-1.131.582 1.26-1.23 1.151-2.404 1.132z"/><path fill="#9185B2" d="M123.248 13.473c-1.03.108-2.222-.038-3.76-.294 1.004-.94 2.305-.563 3.76.294z"/><path fill="#12171B" d="M84.613 121.064c-.296-.793-.636-1.867-.016-1.792.982.119 1.2 1.28 1.118 2.276-.01.119-.28.33-.297.318-.244-.177-.464-.385-.805-.802z"/><path fill="#2C2B2C" d="M53.908 144.7c.293 1.718-.699 1.068-1.29.836-.29-.115-.656-.874-.556-1.001.477-.606 1.096-.33 1.846.165z"/><path fill="#12171B" d="M22.698 149.01c-.286 1.002-.964 1.938-2.338 1.613-.12-.028-.235-.735-.18-.761.704-.333 1.439-.599 2.518-.853z"/><path fill="#2C2B2C" d="M75.437 77.592c.648-.802 1.259-1.099 1.401-.054.108.792-.249 1.6-1.285 1.55-.1-.005-.162-.82-.116-1.496z"/><path fill="#205496" d="M138.815 142.69c-1.47.284-2.61-.246-2.815-2.336.895.45 1.813 1.247 2.815 2.336zM131.732 138.246c.004 1.053-.286 2.223-.747 3.721-1.212-1.18-.846-2.466.747-3.72z"/><path fill="#12171B" d="M28.006 118.29c.726.107 1.412.576 1.413 1.51 0 .153-.397.307-.61.46-.273-.55-.545-1.1-.803-1.97z"/><path fill="#694653" d="M87.186 213.771c-.225.206-.702.209-.94.21-.269-1.153.336-2.006 1.36-2.95.505-.202.734-.242.966.067-.385 1.055-.773 1.76-1.386 2.673z"/><path fill="#2C2B2C" d="M35.485 170.475c-.557-.44-.923-.893-.27-1.16.3-.121.999.127 1.163.411.303.528-.101.833-.893.749z"/><path fill="#4C3B60" d="M152.57 162.134c.792.134 1.319.452 2.139.868-1.135 1.663-2.12 1.7-2.14-.868z"/><path fill="#C98D6F" d="M172.716 35.21c.33 1.253.307 2.632.293 4.426-1.784-.938-.893-2.665-.293-4.426z"/><path fill="#663E26" d="M132.597 220.983c-.913 1.178-2.413 1.113-4.262.488 1.087-.273 2.465-.394 4.262-.488z"/><path fill="#2C2B2C" d="M50.865 180.157c-.922-.166-2.522-.318-2.184-1.16.534-1.334 1.385.019 2.226.669.168.236.028.406-.042.49zM46.971 161.767c-.06.331-.439.35-.627.363-.33-1.053-.473-2.12-.666-3.564 1.663.77 1.304 1.904 1.293 3.201z"/><path fill="#12171B" d="M76.595 178.93c.457-.314.88-.408 1.305-.502-.03.277.044.663-.11.81-.384.364-.856.443-1.195-.309z"/><path fill="#2C2B2C" d="M47.838 204.475c-.068.477-.366.782-.855 1.345-.839.1-1.642-.12-1.401-.93.301-1.015 1.202-.88 2.256-.415z"/><path fill="#12171B" d="M54.928 135.488c-.172.444-.489.728-.805 1.012l-.5-.646c.388-.175.774-.351 1.305-.366zM46.999 71.663c-.697-.707-1.316-1.846-1.936-3.353 1.279.355 1.895 1.485 1.936 3.353zM19.1 189.143c.037-.755-.383-1.497.536-1.706.07.613.157 1.224.193 1.84.007.105-.187.29-.313.315-.102.02-.24-.147-.417-.449z"/><path fill="#5A0C0A" d="M172.197 171.77c.1-.561.512-1.132 1.163-1.821.409.824.082 1.488-1.163 1.82z"/><path fill="#12171B" d="M51.574 44.961c.262-.181.528-.186.793-.191l.005.45c-.265-.028-.53-.055-.798-.259z"/><path fill="#5A0C0A" d="M227.114 118.808c-.454-.242-.764-.68-1.141-1.38.927-.29 1.554.028 1.14 1.38z"/><path fill="#2C2B2C" d="M113.186 43.98c-.189.39-.364.61-.539.828-.115-.2-.362-.436-.32-.595.11-.41.337-.804.86-.233z"/><path fill="#12171B" d="M18.428 109.055c-.253.176-.505.184-.757.193l.005-.426c.25.022.502.044.752.233z"/><path fill="#2C2B2C" d="M42.963 120.747c-.62.196-1.525-.03-1.236-.664.42-.921.915-.145 1.236.664z"/><path fill="#12171B" d="M55.957 48.742c-.629.178-1.552-.117-1.251-.727.473-.959.929-.091 1.251.727zM58.35 133.724c.08.636-.262.953-.615.576-.35-.375-.016-.7.614-.576zM67.255 170.924c-.31.051-.377-.285-.378-.454.46-.595.92-1.02 1.845-1.382.218.914-.272 1.536-1.467 1.836z"/><path fill="#663E26" d="M137.758 221.158c-.362.305-.846.4-1.478.365.188-.84.654-1.106 1.478-.365z"/><path fill="#12171B" d="M39.944 111.412c-.17-.244-.176-.49-.182-.737l.419-.002c-.025.246-.049.491-.237.74z"/><path fill="#205496" d="M105.47 19.97c.752-1.108 1.93-1.353 3.348.024-.874.211-1.918.132-3.347-.025z"/><path fill="#12171B" d="M81.7 176.237c.058-.289.222-.462.387-.636l.273.296c-.185.151-.37.303-.66.34zM32.6 125.952c.42.23.685.573.95.917l-.366.27c-.246-.358-.492-.715-.584-1.187zM86.1 94.879c.299-.437.768-.674 1.5-.938.096.858-.043 1.783-1.5.938zM167.676 115.996c.378-.194.544-.159.961-.094.2.89-.16 1.552-1.25 2.024-.165-.506-.045-1.103.289-1.93zM44.985 68.006a23.165 23.165 0 0 1-.815-2.138c-.017-.055.359-.234.552-.356.108.618.216 1.236.332 2.142.008.288-.043.332-.07.352z"/><path fill="#2C2B2C" d="M75.693 58.78c-.42.656-.868.43-.856-.02.015-.59.474-.516.856.02z"/><path fill="#12171B" d="M65.002 120.24c.544.225 1.25.78.435 1.59-.18-.405-.36-.811-.435-1.59zM38.235 37.221c.621-.054 1.48.108 2.52.572-.641.083-1.461-.136-2.52-.572zM34.59 137.853c-.191-.162-.269-.39-.305-.624-.005-.032.194-.096.299-.145.044.234.088.469.006.77z"/><path fill="#4C3B60" d="M55.278 61.31c-1.044-.588-2.053-1.065-1.517-1.874.416-.627 1.107.014 1.628.794.204.561.283.875-.111 1.08z"/><path fill="#12171B" d="M53.803 109.05c.26.013.3.382.327.564-.589.103-1.205.024-1.82-.056.41-.174.822-.348 1.493-.509z"/><path fill="#2C2B2C" d="M81.826 68.164c.193.736.025 1.79-.896 1.303-.644-.34.087-.971.896-1.303z"/><path fill="#12171B" d="M40.008 53.184c.165.093.302.418.44.742a1.734 1.734 0 0 1-.44-.742zM65.572 125.167c-.297-.483-.196-.441 0 0zM23.133 89.88c-.019-.224.177-.504.372-.785-.053.243-.105.486-.372.786z"/><path fill="#694653" d="M156.306 161.73c-.122-.372.022-.856.33-1.538.088.343.012.885-.33 1.538z"/><path fill="#2C2B2C" d="M64.294 159.981c.158-.319.619-.65 1.41-.968-.148.328-.628.642-1.41.968z"/><path fill="#4C3B60" d="M57.022 61.608c-.103.265-.376.313-1.06.43-.679-.03-.88-.204-1.085-.646.04-.314.154-.438.452-.738.63.128 1.076.433 1.693.954z"/><path fill="#663E26" d="M188.63 75.118c.33.01.727.27 1.255.736-.31-.024-.748-.255-1.255-.736z"/><path fill="#12171B" d="M38.003 36.997c-.305-.092-.612-.182-.92-.273.232.002.463.005.804.144.11.137.113.132.116.13zM21.01 110.643c-.086 0 .004-.276.004-.276s.082.277-.004.276zM41.048 37.956c.305.153.57.35.836.548a2.994 2.994 0 0 1-.822-.279c-.128-.13-.054-.224-.014-.269z"/><path fill="#663E26" d="M189.35 68.462c-.208.251-.517.279-1.292.33-.206-1.008.252-1.47 1.292-.33z"/><path fill="#12171B" d="M90.334 92.982c.171-.281.622-.606 1.355-.96-.17.286-.624.6-1.355.96zM63.14 52.577c-.065.072-.291-.183-.291-.183s.354.11.29.183zM19.823 77.017c-.086.163-.34.349-.594.535.142-.171.284-.342.594-.535zM48.174 110.981c.084-.16.335-.344.585-.528-.14.168-.279.336-.585.528z"/><path fill="#2C2B2C" d="M68.7 154.025c-.11.144-.218.162-.327.18.11-.103.22-.204.328-.18z"/><path fill="#12171B" d="M37.024 50.978c.555.175 1.093.368 1.775.828-.382.062-.908-.143-1.628-.56-.193-.212-.164-.25-.147-.268zM63.807 128.2c.065.391-.141.924-.614 1.6-.064-.39.14-.925.614-1.6zM56.095 48.902a3.823 3.823 0 0 1 1.711.912c-.434.111-.956-.099-1.683-.505-.205-.196-.088-.338-.028-.407zM35.342 132.008c0-.097.31.004.31.004s-.311.093-.31-.004z"/><path fill="#2C2B2C" d="M59.078 148.937c.496.317 1.117.72.374 1.305-.038.03-.4-.353-.71-.742-.098-.2.192-.441.336-.563z"/><path fill="#12171B" d="M50.987 104.976c.289-.16.603-.288.918-.416-.163.147-.327.295-.663.476-.173.034-.229-.028-.255-.06z"/><path fill="#2C2B2C" d="M41.432 151.865c.082-.042.11.317.11.317s-.193-.274-.11-.317zM63.084 110.587c-.058.056-.249-.152-.249-.152s.306.095.249.152zM59.194 162.991c.03-.151.213-.352.426-.513.047-.036.2.067.304.106a4.605 4.605 0 0 1-.73.407zM45.707 24.026c-.193.267-.677.562-1.449.903-.288.045-.265.066-.256.08.477-.31.947-.632 1.705-.983zM46.001 24.002c.21-.196.406-.41.635-.578.055-.04.222.074.337.116-.195.142-.39.283-.78.44-.196.017-.193.02-.192.022zM79.157 72.844c-.166-.385.06-.737.287-1.089.035.375.07.749-.287 1.09z"/><path fill="#12171B" d="M62.546 118.119c-.068.033-.086-.26-.086-.26s.155.226.086.26z"/><path fill="#2C2B2C" d="M43.09 120.903c.59.123 1.122.314 1.85.715.195.211.02.42-.07.528-.587-.135-1.084-.377-1.766-.829-.184-.21-.072-.346-.014-.414zM58.998 162.991c-.48.31-.953.632-1.71 1.022-.285.066-.304.002-.337-.007.471-.309.975-.608 1.779-.943.3-.037.276-.059.268-.072z"/><path fill="#12171B" d="M120.16 140.198c.066-.18.263-.182.758-.185.298-.002.617.229.766.355-.404.576-.91.442-1.524-.17z"/><path fill="#2C2B2C" d="M39.877 171.843c-.24.018-.555-.183-.87-.383.266.055.531.11.87.383z"/><path fill="#12171B" d="M24.822 210.014c-.012.164-.197.354-.411.503-.052.036-.198-.063-.301-.1.176-.13.352-.262.712-.403z"/><path fill="#694653" d="M90.698 209.186c.286.01.209.315.195.472-.417.273-.82.39-1.563.42.134-.358.609-.63 1.368-.892z"/><path fill="#2C2B2C" d="M42.825 173.762c-.363.049-.916-.12-1.64-.535.37-.059.91.129 1.64.535zM79.107 73.102c-.167.358-.448.619-.73.879.034-.286.067-.573.244-1.015.144-.156.372.038.486.136zM81.924 67.907c.054-.377.249-.616.64-.99.172-.156.417.082.54.204-.063.371-.263.606-.655.98-.175.152-.409-.078-.525-.194z"/><path fill="#663E26" d="M143.123 220.674c-.128.186-.423.141-.898-.1.122-.235.424-.213.898.1z"/><path fill="#2C2B2C" d="M11.495 99.507c-.012-.023.011.024 0 0z"/><path fill="#12171B" d="M23.027 90.041c.034.037-.242.311-.242.311s-.028-.291.053-.353c.08-.062.155.005.19.042zM24.998 209.997a11.07 11.07 0 0 1 .167-.277s-.007.205-.083.244c-.077.04-.082.036-.084.033zM46.916 112.036c.097-.027-.106.263-.106.263s.008-.236.106-.263zM17.918 96.036c.09-.03-.102.252-.102.252s.012-.22.102-.252z"/><path fill="#2C2B2C" d="M53.043 81.097c-.038-.103.314.093.314.093s-.275.01-.314-.093z"/><path fill="#12171B" d="M64.917 120.058c-.065.062-.325-.298-.325-.298s.354-.059.435.023c.08.082-.044.213-.11.275zM21.078 92.96c-.085.035.09-.25.09-.25s-.004.216-.09.25z"/><path fill="#276C8A" d="M108.542 96.836c.175.26.006.522-.501.794-.19-.263-.025-.53.5-.794z"/><path fill="#12171B" d="M27.983 118.011c-.014.012-.275-.188-.275-.188s.224-.002.268.073c.045.075.022.104.007.115z"/><path fill="#2C2B2C" d="M15.433 97.533c-.043-.063.042.064 0 0z"/><path fill="#12171B" d="M21.002 93.003c-.151.288-.35.534-.807.865-.058-.164.145-.409.597-.742.2-.131.208-.126.21-.123zM45.474 39.515c-.014-.03.014.029 0 0zM70.965 202.921c.038.075-.234-.093-.234-.093s.196.018.234.093zM30.937 122.927c-.028.19-.311-.135-.311-.135s.34-.055.311.135zM31.052 122.967c.05-.048.295.255.295.255s-.3.044-.37-.03c-.068-.075.025-.178.075-.225z"/><path fill="#694653" d="M88.046 211.024c-.049-.484.16-.736.703-.971.241-.061.27-.037.286-.023a3.384 3.384 0 0 1-.279 1.226c-.181.19-.545-.077-.71-.232z"/><path fill="#12171B" d="M70.998 203.001c-.002.002.257.15.257.15s-.18-.012-.216-.083c-.036-.072-.039-.068-.041-.067z"/><path fill="#4C3B60" d="M64.06 81.077c-.35.704-.845 1.172-.672-.297.16-.172.507.135.672.297z"/><path fill="#2C2B2C" d="M13.46 98.44c.072-.043.096.138.096.138s-.169-.094-.097-.138z"/><path fill="#12171B" d="M83.036 115.977c.032-.03.304.237.304.237s-.28.02-.338-.06c-.058-.081.001-.147.034-.177z"/><path fill="#134264" d="M77.189 97.33c.016-.172.229-.254.634-.276.002.19-.209.292-.634.276z"/><path fill="#663E26" d="M140.286 223.334c.004-.166.174-.246.497-.321.06.21-.1.345-.497.321z"/><path fill="#12171B" d="M63.98 127.966c-.031-.033.233-.307.233-.307s.025.28-.055.34-.148 0-.179-.033z"/><path fill="#205496" d="M156.703 94.505c.314-.2.471-.05.359.368-.088.101-.332-.182-.359-.368z"/><path fill="#12171B" d="M43.479 59.484c.03-.014-.03.013 0 0zM32.925 141.039c.091-.027-.095.243-.095.243s.003-.216.095-.243z"/><path fill="#276C8A" d="M140.964 59.704c-.1.266-.269.283-.739.275-.28-.214-.257-.404-.187-.88.317-.07.588.142.926.605z"/><path fill="#12171B" d="M48.067 73.087c.025-.199.347.138.347.138s-.373.061-.347-.138zM68.938 168.91c-.08-.084.316-.32.316-.32s.087.378.01.47c-.077.091-.246-.068-.326-.15z"/><path fill="#663E26" d="M188.45 72.263c.204-.038.27.176.166.528-.054.102-.189-.312-.166-.528z"/><path fill="#2C2B2C" d="M49.054 142.963c.143.109.22.284.296.46-.102-.018-.204-.035-.4-.154-.092-.101.036-.24.104-.306z"/><path fill="#12171B" d="M73.484 61.514c-.008-.023.01.023 0 0zM19.196 94.868c-.051-.157.149-.402.593-.743.196-.135.21-.125.216-.118-.153.288-.356.53-.809.861z"/><path fill="#4C3B60" d="M98.81 165.856c.312.258.278.505.202 1.123-.214.31-.387.246-.83.126-.299-.245-.327-.434-.38-.91.204-.308.434-.33 1.009-.34z"/><path fill="#12171B" d="M47.062 71.952c.346.082.592.275.909.735.121.201.03.302-.021.35-.344-.088-.588-.283-.907-.74-.121-.202-.03-.3.019-.345zM27.505 146.512c-.023.008.023-.009 0 0z"/><path fill="#86531E" d="M189.754 170.146c.086.369-.161.56-.7.717-.015-.244.206-.531.7-.717z"/><path fill="#205496" d="M131.155 146.3c.2.037.38.385.597 1.03-.182-.042-.4-.382-.597-1.03z"/><path fill="#12171B" d="M25.492 147.513c-.01-.023.009.022 0 0z"/><path fill="#694653" d="M155.154 162.795c-.118-.132-.03-.36.296-.647.059.119-.051.322-.296.647z"/><path fill="#12171B" d="M24.503 109.507c-.023.01.024-.01 0 0zM72.52 63.485c.013.029-.012-.029 0 0zM22.987 148.978c-.02-.022.201-.27.201-.27s.01.234-.064.282c-.073.048-.117.01-.137-.012z"/><path fill="#2C2B2C" d="M64.006 160.008c.005.006-.187.346-.187.346s-.015-.271.078-.316c.093-.045.104-.037.109-.03z"/><path fill="#4C3B60" d="M153.255 158.225c.302-.064.402.211.236.677-.149-.05-.206-.225-.236-.677z"/><path fill="#2C2B2C" d="M65.973 158.965c-.02-.022.216-.36.216-.36s.033.308-.06.365c-.094.057-.137.017-.156-.005z"/><path fill="#072C64" d="M125.592 157.587c-.025.127-.259.224-.71.303.016-.136.255-.24.71-.303z"/><path fill="#694653" d="M156.247 156.757c-.042.126-.303-.228-.315-.341.2-.102.322.008.315.341z"/><path fill="#2C2B2C" d="M67.54 156.553c-.066.045.067-.045 0 0z"/><path fill="#12171B" d="M43.514 154.531c-.035.018.035-.017 0 0zM74.467 180.527c-.024-.044.025.045 0 0zM62.18 130.864c-.1-.203.104-.446.55-.784.195-.136.258-.081.287-.05-.139.303-.343.543-.838.834z"/><path fill="#2C2B2C" d="M52.997 81.002c-.305-.123-.56-.314-.888-.776-.124-.206-.104-.23-.09-.24.335.093.59.286.88.788.106.22.101.226.098.228z"/><path fill="#12171B" d="M62.017 131.03c.028.03-.228.29-.228.29s-.019-.265.06-.32c.077-.056.14-.001.168.03zM46.995 111.992c.155-.286.362-.525.814-.856.199-.13.191-.136.188-.14-.153.28-.351.527-.79.874-.194.14-.207.13-.212.122zM58.065 49.956c.06-.057.313.275.313.275s-.33.056-.407-.02c-.078-.076.034-.198.094-.255zM60.48 51.473c.037-.018-.036.017 0 0zM39.967 53.023c-.31-.12-.556-.314-.891-.755-.132-.195-.078-.257-.046-.286.307.129.545.332.875.775.13.196.087.244.062.266zM20.489 184.488c.025-.012-.026.011 0 0z"/><path fill="#49428E" d="M79.676 95.34c.022.206-.19.338-.575.548-.174-.273-.003-.507.575-.549z"/><path fill="#12171B" d="M22.925 182.037c.075-.037-.086.23-.086.23s.011-.193.086-.23zM87.94 93.276c.2-.198.378-.194.814-.122.063.289-.165.465-.633.663-.207.065-.203-.34-.18-.541zM20.003 77.004c.003.005.148-.26.148-.26s-.014.18-.087.215c-.072.035-.064.041-.06.045zM23 182l.166-.265s-.014.194-.09.23L23 182zM34.51 129.514c-.023.01.023-.01 0 0zM26.487 180.489c.022-.009-.022.008 0 0zM17.997 95.996c.152-.286.353-.53.798-.868.197-.134.205-.128.208-.124-.154.284-.357.526-.8.866-.196.135-.203.13-.206.126zM125.096 138.782c-.102-.267.111-.46.654-.547.045.218-.178.39-.654.547zM41.965 56.924c.038.071-.225-.092-.225-.092s.187.02.225.092zM23.512 75.516c-.033.015.032-.015 0 0zM41.998 57.002c-.003.001.266.157.266.157s-.188-.014-.225-.089c-.036-.075-.039-.07-.041-.068z"/><path fill="#0E65AB" d="M122.361 140.109c-.024-.257.299-.529.915-.927.006.22-.28.566-.915.927z"/><path fill="#2C2B2C" d="M42.992 174.005a3.66 3.66 0 0 0 .286.182s-.208-.03-.236-.118c-.028-.089-.042-.07-.05-.064z"/><path fill="#86531E" d="M189.886 173.488c.23-.207.51-.076.892.334-.168.092-.483 0-.892-.334zM189.033 172.227c.21-.017.436.223.694.713-.205.015-.44-.22-.694-.713z"/><path fill="#2C2B2C" d="M40.023 171.985c.34.091.595.283.893.774.098.222.085.24.076.247-.328-.09-.597-.264-.928-.73-.113-.215-.067-.267-.041-.29z"/><path fill="#12171B" d="M32.994 140.992a4.262 4.262 0 0 1 .187-.292s-.003.228-.084.27c-.08.042-.097.03-.103.022z"/><path fill="#D2C33C" d="M146.363 187.73c-.428.805-.615 1.894-1.85 1.845-.223-.009-.63-.362-.616-.527.095-1.069 1.065-.97 2.1-1.295.328-.077.343-.031.366-.023z"/><path fill="#5DB5E8" d="M128.514 191.137c.37.077.316.39.279.542-.175.243-.314.333-.452.425-1.087.729-2.13 1.717-3.572 1.071-.233-.104-.399-.992-.218-1.28.885-1.41 2.317-.862 3.963-.758z"/><path fill="#D2C33C" d="M201.56 127.103c1.99.083 1.48 1.347 1.218 2.394-.064.258-.925.62-1.046.513-.846-.753-.621-1.74-.173-2.907z"/><path fill="#276C8A" d="M140 60.028c.023.027-.21.28-.21.28s-.02-.255.056-.304c.077-.049.132-.004.155.024z"/></svg>