<svg xmlns="http://www.w3.org/2000/svg" viewBox="0 0 470 362" xml:space="preserve"><path fill="#EFFFFB" d="M1.387 259.3C1 174.37 1.02 89.742.922 5.113.918 1.936 1.228.889 4.884.893c154.098.125 308.196.126 462.294-.007 3.784-.003 3.893 1.24 3.89 4.289-.085 84.296-.068 168.592-.068 253.356-2.338 2.52-5.213 2.086-7.953 2.114-4.736.049-9.474.128-14.699-.149-13.628.463-26.77.207-39.908.183-24.452-.045-48.906.307-73.85-.186-21.836.333-43.18.331-65.015.007-17.824.32-35.157.313-52.979 0-12.523.3-24.557.301-37.079-.002-14.502.305-28.515.307-43.019.004-19.479.344-38.47.251-57.95.034-20.109.266-39.728.285-59.836-.037-5.985-.063-11.545 1.055-17.325-1.2z"/><path fill="#393A3A" d="M77.752 259.488c19.27-.369 38.294-.417 57.78-.393 3.326 2.393 4.81 5.745 6.813 8.693 1.844 2.714 3.768 5.308 6.553 7.707 7.758 8.988 3.973 19.204 4.113 28.88.007.474-.341.928-.585 1.363-3.506 6.243-3.243 6.63 4.172 6.728 5.48.072 10.966-.302 16.817.366 1.98.57 2.6 1.995 3.447 3.219 5.797 8.378 12.801 15.712 20.15 23.212 1.83 2.096 2.158 4.923 5.04 6.18 4.596 4.09 8.14 8.713 12.332 12.717 1.175 1.122 2.422 2.34 1.836 4.553-22.24.287-44.262.287-66.751.287-4.345-2.96-7.203-6.927-10.128-10.68-9.071-11.644-18.897-22.725-26.832-35.229-1.043-1.643-3.389-3.222-.596-5.63 1.896-.186 3.392.198 4.71.854 6.652 3.305 16.751-1.461 20.432-6.585 4.469-6.221 5.078-16.37.98-23.159-4.264-7.063-11.041-10.274-19.02-9.012-8.4 1.329-15.408 10.06-15.258 19.042.028 1.648.583 3.301-.315 5.26-2.68 1.775-4.244.312-5.689-1.41-1.374-1.637-2.364-3.584-4.234-5.33-1.172-4.546-1.889-8.656 1.33-12.414 2.36-2.756.343-3.747-2.123-4.112-2.91-.43-5.913.212-9.158-.834-2.715-4.575-6.285-8.479-5.816-14.273z"/><path fill="#343434" d="M1 259.469c5.357-.462 10.715-.455 16.534-.375 3.828 3.118 6.052 6.634 4.945 11.775-2.17 1.845-4.657 1.55-6.86 2.251-5.917 1.885-8.949 5.283-9.148 10.476-.192 5.004 2.365 8.507 7.978 10.852 2.306.963 4.76 1.535 7.054 2.526 4 1.728 5.368 4.39 3.834 7.284-1.499 2.828-5.614 3.786-8.792 2.047-1.673-.916-2.65-2.474-3.737-3.953-1.662-2.264-4.163-2.692-6.15-1.191-2.343 1.768-.671 3.82.753 5.536 5.603 6.744 12.786 8.513 19.996 4.965 4.368-2.149 6.393-5.613 6.163-10.47-.24-5.072-2.3-8.015-7.082-9.772-2.655-.976-5.448-1.582-7.998-2.838-2.322-1.143-4.336-2.63-4.335-5.566.002-2.174 1.44-3.31 3.327-3.846 2.938-.835 5.967-.667 7.55 2.172 1.639 2.938 3.728 4.537 7.36 4.842 3.47 2.716 5.718 5.948 7.412 9.586 1.066 2.29 2.636 4.185 4.664 6.19.715 1.837.568 3.267-.611 4.42-1.31 1.283-2.88 2.514-2.066 4.598.87 2.224 3.058 1.41 4.747 1.667.812.123 1.636.16 2.768.518 4.585 4.815 7.25 10.573 10.9 15.667 6.738 9.403 13.267 18.955 20.182 28.232 1.171 1.572 2.552 3.115 1.835 5.644-25.995.294-51.768.22-77.539.387-3.262.021-3.764-.914-3.754-3.892.111-33.087.07-66.176.07-99.732z"/><path fill="#3D3D3D" d="M147.993 274.968c-2.775.384-3.511-1.628-4.374-3.048-2.464-4.052-5.728-7.607-7.577-12.41 13.98-.392 28.005-.44 42.494-.416 4.694 3.747 8.35 7.741 8.056 14.257-.939 2.431-.833 4.24 1.095 5.706 1.213.923 2.253 2.101 2.407 3.666.688 6.964.56 13.942.083 20.912-.14 2.05-1.918 2.931-3.203 4.218-2.029 2.03-1.323 4.085 1.516 4.495 2.797.404 5.658.314 8.468.08 3.288-.276 3.932-1.774 2.134-4.635-.612-.975-1.52-1.754-1.93-2.882-1.38-3.787.158-6.64 4.14-7.263 2.287-.358 4.587-.837 7.307-.633 4.312 3.19 6.54 7.738 9.808 11.447 6.486 7.36 13.517 14.133 20.77 21.208.788 4.93-2.741 8.246-3.626 12.707 5.203-3.52 9.683-1.21 14.433 1.683 2.856-.187 4.735 1.172 6.608 2.533 4.676 3.397 8.543 7.695 12.796 11.561 1.199 1.09 2.386 2.339 1.823 4.544-18.242.302-36.263.302-54.752.302-3.263-5.865-8.895-9.263-12.824-14.147-.606-.753-1.448-1.293-1.671-2.693-1.561-4.888.738-8.76 2.488-12.52.99-2.129 2.63-1.107 3.568.816 1.3 2.662 1.179 5.865 3.41 8.619 2.955-2.939 2.754-6.987 4.176-10.187.07-.51.095-.393-.146.117-1.279 2.704-.494 7.538-4.05 7.661-2.812.098-2.222-4.607-3.45-7.038-.52-1.032-.884-2.127-2.15-3.073-2.254 1.958-2.29 4.918-3.264 7.41-.47 1.199-.498 2.943-2.13 2.99-1.856.054-2.132-1.687-2.624-3.119-.757-2.205-1.269-4.462-1.79-6.657-.03 2.805 2.086 5.332 1.148 8.568-6.085-3.515-10.215-9.085-14.625-14.217-2.79-3.247-6.27-6.298-7.53-11.099 4.583-2.261 4.86-6.084 4.39-10.234-.171-1.527-.392-3.042-2.345-3.301-1.693-.225-2.918.39-3.53 2.041-.792 2.138-2.053 3.691-4.437 4.27-6.457 1.57-9.465-.652-9.58-7.31-.081-4.65-.038-9.3-.007-13.95.019-2.882.19-5.69 3.022-7.45.882-.547 1.572-1.353 1.21-2.477-.45-1.395-1.78-1.356-2.901-1.416-4.151-.22-8.3-.092-12.834.364z"/><path fill="#373737" d="M82.469 363c-.614-1.731-1.45-3.151-2.484-4.483-10.467-13.492-19.842-27.755-29.5-41.816-.348-.505-.325-1.264-.48-2.268 3.651-2.425 3.53-4.69 1.844-8.538-2.647-6.04-1.425-12.759-.716-19.184.228-2.065 1.706-2.258 3.104-.612 1.205 1.417 1.955 3.1 2.615 4.808 1.92 4.974 3.969 9.9 6.204 14.734 1.243 2.688 1.514 6.758 5.75 6.58 3.785-.16 4.146-3.843 5.366-6.465 1.123-2.416 1.967-4.954 2.995-7.412.704-1.683 1.26-3.468 3.288-4.688 1.797-.25 3.117.06 4.65 1.04 1.944 4.319 1.781 8.237-.21 12.178-2.155 4.26-1.319 5.473 3.606 5.626 1.485.046 2.98.097 4.454-.108 2.804-.39 4.07-1.935 2.226-4.377-3.954-5.234-3.007-10.81-1.407-16.756 2.807-.277 3.187 2.074 4.387 3.483 1.115 1.31 1.567 3.35 4.212 3.254 3.758 4.242 5.847 9.416 9.769 13.612-.893.898-1.07 1.597-.486 2.432 9.683 13.836 20.153 27.065 30.923 40.064 2.204 2.66 4.236 5.464 6.384 8.55-21.984.346-44.005.346-66.494.346z"/><path fill="#464747" d="M333.778 259.468c37.91-.348 75.6-.395 113.754-.372 7.777 4.516 15.662 7.92 23.21 12.656.258 18.269.258 36.29.258 54.78-1.992 2.172-4.03 1.302-6.022.52-5.813-2.281-11.423-5.038-17.232-7.335-2.376-.94-4.2-2.57-4.963-5.584-.215-3.243-.686-5.761-2.834-8.11-2.44-2.666-1.57-7.462.967-8.8 3.165-1.67 7.879-.207 9.482 3.03 1.278 2.58 1.215 5.505 1.933 8.233.928 3.53 5.728 5.457 8.687 3.458 1.855-1.254 1.33-2.919.324-4.341-1.255-1.774-2.196-3.682-3.22-5.58-2.572-4.77-3.132-8.668.822-13.491 3.98-4.855-.406-12.745-7.295-13.688-6.921-.947-13.952-.366-20.935-.245-.978.017-2.052.216-2.456 1.345-.509 1.425.472 2.197 1.482 2.798 2.353 1.402 2.658 3.674 2.695 6.06.083 5.325-.064 10.652.054 15.973.094 4.194-1.61 6.645-6.272 7.221-1.556.228-2.674.142-4.1-.536-.603-.846-.267-.125-.666-.614-1.482-1.82.023-5.535-3.48-5.945-3.755-.44-2.888 3.323-4.271 5.071-2.748 3.47-6.467 1.42-9.715 1.087-3.242-.334-3.366-3.195-3.384-5.765-.02-2.982 1.008-5.128 4.33-5.67 1.681-.275 4.074-.07 4.02-2.713-.055-2.658-2.492-2.262-4.141-2.542-3.359-.57-4.258-2.728-4.176-5.73.088-3.24 1.783-4.873 4.955-5.017 3.684-.168 7.465-.574 9.19 3.942.568 1.485 1.93 1.701 3.338 1.528 1.662-.205 1.988-1.474 2.253-2.85 1.126-5.852-.269-7.68-6.085-7.713-6.312-.036-12.625-.067-18.937.03-1.462.023-3.19-.16-4.052 1.333-1.03 1.785.169 3.128 1.358 4.363 1.247 1.296 1.664 2.833 1.14 4.973-1.91 2.484-3.761 1.489-5.458.389-2.085-1.352-4.27-2.62-5.991-5.026-.34-4.885-2.636-5.873-7.117-6.435-7.525-.943-10.388 3.16-13.1 8.977-4.466.492-6.888-2.8-9.606-4.882-6.308-4.828-12.15-10.277-17.855-15.834-.728-.71-1.262-1.547-.889-2.95z"/><path fill="#434343" d="M466.22 362.694c-23.24.306-46.262.306-69.751.306-18.27-8.1-33.614-20.178-49.886-30.733-5.836-3.786-11.543-7.891-16.907-12.4-1.947-1.637-3.4-3.255-1.728-6.193 2.62-1.459 5.163-.928 7.62-1.134 3.647-.307 4.746-1.73 3.04-4.765-3.453-6.14-1.679-12.632-1.777-18.997-.017-1.079.273-2.554 1.68-2.681 1.32-.12 1.958 1.156 2.416 2.203 2.662 6.08 5.116 12.252 7.848 18.302 1.065 2.358 1.545 5.342 4.863 5.693 3.514.372 4.182-2.65 5.464-4.889.333-.58.75-1.092 1.561-1.797 2.35-1.082 4.203-.66 6.272.738 1.03 6.165 5.355 6.603 10.31 6.752 12.918 10.406 27.106 18.065 41.417 25.501 14.028 7.29 28.741 13.056 43.287 19.19 2.087.88 4.585 1.517 4.27 4.904z"/><path fill="#444" d="M466.5 363c-1.52-4.674-6.076-4.345-9.142-5.606-18.325-7.537-36.454-15.486-53.738-25.188-8.046-4.517-15.678-9.774-23.474-14.733-.98-.623-1.805-1.481-2.104-3.056 3.18-2.76 3.968-5.355.695-8.409-.717-.668-.96-1.746-1.027-2.735-.458-6.746-.453-13.501-.02-20.242.168-2.59 1.392-4.454 4.883-3.436 3.266 2.564 5.91 5.288 9.993 6.4 2.787 7.215 3.537 14.405-.4 21.341-1.926 3.394-1.396 4.883 2.567 5.014 7.125.234 14.262-.011 21.39.099 3.58.055 4.23-2.523 5.63-5.169 1.459-.278 2.602-.277 4.174-.274 1.517 4.612 4.47 6.05 9.027 5.557 2.701-.293 5.544-.459 8.548.85.482 2.021 1.34 3.59 2.929 4.186 7.981 2.994 15.31 7.641 24.172 9.4.397 10.7.205 21.406.506 32.097.1 3.501-.835 4.593-4.609 3.904z"/><path fill="#414141" d="M327.76 313.748c-.79 5.133 3.931 6.269 6.21 7.808 9.508 6.42 18.422 13.667 28.389 19.524 6.216 3.653 12.527 7.591 18.239 12.227 3.96 3.215 8.779 4.894 13.42 6.85.984.416 1.661 1.053 1.936 2.48-15.975.363-31.996.363-48.485.363-12.964-8.236-25.02-17.08-36.727-26.395-2.036-1.619-4.534-2.896-5.35-6.04.235-1.519-.183-2.117-1.45-2.208-1.594-.115-3.23-.046-5.053-.926a163.915 163.915 0 0 0-7.053-6.805c-2.015-1.837-3.645-3.995-1.575-7.193.796-.424 1.257-.612 1.75-.693 6.314-1.031 7.165-2.132 6.37-8.28-.192-1.473-.229-3.072-2.131-3.494-1.946-.432-3.187.406-3.851 2.22-.951 2.596-2.78 3.924-5.559 4.236-6.157.691-8.204-.966-8.342-7.22-.114-5.132-.087-10.269.007-15.403.05-2.78.505-5.346 4.078-6.417 2.253-.555 4.225-.557 5.45.98 2.611 3.28 6.429 5.216 9.133 8.182 3.146 3.451 6.655 6.334 10.426 9.558 1.193 3.998 1.182 7.293-1.646 10.456-2.465 2.757-1.356 4.744 2.55 4.901 3.783.153 7.59.323 11.748-.38 1.444-.251 2.507-.273 3.973-.099 1.46.328 2.442.758 3.543 1.768z"/><path fill="#3F4040" d="M289.726 313.77c.28 3.13 1.532 5.06 3.912 6.717 2.194 1.529 4.514 3.238 5.342 6.475-1.911 2.091-2.282 4.323-1.88 6.714.362 2.154.432 4.276.03 6.427-.665 3.55.38 5.599 4.04 4.895-1.883.067-4.004-.222-4.038-3.156-.039-3.216 1.817-4.81 4.907-5.16-.717-.755-1.808-.539-2.648-1.011-1.611-.905-2.493-2.193-2.22-4.067.298-2.035 1.857-2.604 3.595-2.816 1.664-.203 3.321-.19 5.023 1.052 3.022 4.711 7.583 7.197 11.562 10.282 9.14 7.088 18.337 14.11 28.173 20.238.626.39.939 1.284 1.436 2.292-15.98.348-32.002.348-48.491.348-6.569-6.173-14.07-10.637-20.742-16.661-1.203-1.791-1.804-3.51-2.704-5.08-1.095-1.913-1.078-3.774.571-5.407 1.341-1.329 2.645-2.685 1.222-4.67-1.63-2.273-4.298-2.188-6.664-2.63-2.219-.415-2.726 1.284-3.097 2.977-.07.32-.209.622-.545 1.226-1.32 1.13-2.425.883-3.357.072-5.58-4.856-10.792-10.098-15.846-15.494-.68-.725-1.004-1.691-.838-3.1.569-1.275 1.317-1.927 2.176-2.424 6.966-4.037 10.665-10.063 11.109-18.1.045-.826.267-1.622.89-2.67 4.84-.914 6.99 3.49 10.892 5.1 1.261 4.453 1.938 8.49-2.146 11.518-1.002.743-1.59 1.702-1.232 2.973.456 1.625 1.919 1.66 3.198 1.74 3.778.234 7.566.038 11.348.117 2.285.047 4.63-.248 7.022 1.283z"/><path fill="#3D3E3E" d="M246.718 313.739c1.47 4.604 5.737 6.273 8.269 9.44 3.005 3.758 6.855 6.56 10.716 9.784 2.548 2.59 1.197 5.708 1.827 8.474.569-1.44.35-3.647 2.581-3.988 2.188-.333 3.028 1.443 4.096 2.919 1.247 1.724 2.102 3.701 3.812 5.497 3.308.285 4.925 2.67 6.562 4.552 3.958 4.55 10.95 5.642 13.38 12.232-8.649.351-17.336.351-26.492.351-5.697-7.648-12.245-13.82-20.943-17.993-4.256-2.443-4.232-7.085-6.309-10.542-1.077-1.793-1.003-4.934-4.81-4.34-.963-.282-1.775-.262-2.195-.658-9.596-9.06-18.981-18.322-26.827-28.999-.35-.477-.279-1.264-.423-2.286-.006-2.18 1.564-2.783 2.614-3.78 3.624-3.438 4.754-7.667 3.219-12.303-1.573-4.748-5.346-7.12-10.216-7.538-4.313-.371-8.654-.06-12.98-.15-2.14-.044-4.36.272-6.441-1.447-.624-5.611-4.685-8.912-7.113-13.46 11.978-.385 24.001-.433 36.488-.41 5.488 4.993 10.239 10.128 13.315 16.928-.322 2.063-1.298 3.407-2.251 4.77-4.895 7.002-5.814 14.538-1.856 22.087 4.084 7.79 10.742 11.516 19.753 10.293.671-.091 1.319.07 2.224.567z"/><path fill="#4A4B4B" d="M471 271.537c-8.373-2.196-15.96-6.338-22.954-12.03 7.305-.398 14.661-.454 22.485-.51.469 4.028.469 8.052.469 12.54z"/><path fill="#434343" d="M325.279 312.725c-1.346.275-2.4.275-3.85.276-7.68-8.544-6.028-18.768-5.775-28.72.053-2.105 1.364-3.623 2.513-5.278 1.67-2.407.968-4.134-2.084-4.377-2.806-.224-5.638-.26-8.442.043-2.834.307-3.436 2.144-1.901 4.164 4.208 5.539 2.973 11.528 1.646 17.863-4.503-.794-7.138-3.895-10.048-6.895-3.772-3.89-8.132-7.21-12.583-10.785-2.562-1.128-2.005-4.832-5.428-5.292-3.232-3.537-6.005-7.031-9.259-10.097-1.096-1.034-2.141-2.143-1.303-4.168 21.59-.34 42.947-.387 64.768-.363.489 2.14 2.428 2.51 3.545 3.644 7.316 7.416 15.326 14.001 24.059 20.273 1.013 6.784-2.743 12.115-5.212 17.756-1.143 2.612-2.704.606-3.508-.827-2.684-4.785-4.613-9.92-6.746-14.96-.258-.611-.45-1.249-.681-1.87-3.196-8.625-6.561-10.472-15.448-8.523-2.683.589-3.612 2.022-1.502 4.07 2.17 2.105 2.397 4.602 2.412 7.29.004.666.003-.17 0 .497-.046 8.965 1.374 18.205-5.173 26.279z"/><path fill="#373737" d="M22.184 271.67c.4-4.77-2.476-8.07-4.139-12.152 19.643-.4 39.335-.448 59.49-.424.414 4.984 5.088 8.038 5.46 13.148-4.813 6.925-6.307 14.95-9.608 22.178-.484 1.06-.813 2.189-1.297 3.247-.672 1.473-.997 3.523-3.004 3.585-2.245.07-2.832-2.055-3.542-3.691-2.522-5.805-4.618-11.786-7.188-17.57-2.197-4.945-10.44-7.68-15.142-5.097-1.882 1.034-1.385 2.356-.5 3.75 4.689 7.39 2.924 15.234 1.246 23.203-2.186-.127-3.297-1.366-3.946-2.903-1.733-4.1-4.296-7.66-6.974-11.531 2.518-3.97 1.775-6.692-1.611-9.64-2.8-2.436-6.194-3.656-9.245-6.103z"/><path fill="#414141" d="M268.535 259.095c.261 3.48 3.553 4.493 5.257 6.402 1.845 2.066 3.613 4.117 5.142 6.776-2.107 3.306-5.389 1.826-8.166 2.342-2.74.51-3.611 1.718-1.516 3.924 4.952 5.214 3.68 11.127 1.71 17.284-4.36.455-6.06-3.345-9.45-4.776-1.783-.9-1.896-2.484-2.392-3.847-4.507-12.361-15.435-16.925-27.363-11.408-.897.415-1.765.896-3.155.861-2.641-5.38-6.945-9.186-10.472-13.558-.833-1.032-1.628-1.99-2.087-3.586 17.312-.39 34.67-.439 52.492-.414z"/><path fill="#3AB48A" d="M212.643 5.045c.861-.165 1.296-.116 2.056-.024.639.3.99.484 1.65.723 1.22.47 2.175.774 3.442 1.038.262.151.24.209.257.179 2.705 2.241 5.883 3.737 8.859 5.552 3.89 2.375 5.933 5.412 5.036 10.35-1.285 7.07.092 14.31-.925 21.812-.604 1.476-1.581 2.008-2.493 1.315-3.553-2.701-5.279-.194-7.128 2.268-2.185 2.91-4.256 5.914-6.616 8.68-1.199 1.406-2.466 3.528-5.048 1.048-1.397-2.648-1.356-5.145-1.363-7.618-.035-12.549-.05-25.098.012-37.647.013-2.604-.292-5.35 2.261-7.676z"/><path fill="#22A99A" d="M184.554 8.892c1.552-2.2 3.669-2.79 5.834-3.894.541-.21.76-.297 1.328-.315 2.438 4.594 1.81 9.476 1.875 14.174.223 16.231.099 32.469.048 48.703-.02 6.461 1.05 12.887.464 19.733-1.197 4.037-3.641 6.932-5.833 9.952-.896 1.235-2.02 2.795-4.282 1.081-1.643-2.585-1.617-5.103-1.618-7.587-.012-25.562-.084-51.123.024-77.15-.258-2.173.43-3.464 2.16-4.697z"/><path fill="#2FAF91" d="M192.363 5.29c-.582-.286-.797-.304-1.333-.367 6.896-3.835 14.245-3.506 21.856-.422-.748 1.977-.907 3.757-.902 5.62a7880.37 7880.37 0 0 1-.007 42.862c-.006 1.87.335 3.618 1.023 5.77-.825 6.885-5.578 10.818-9.665 15.158-.586.622-1.534.297-2.236-.925-1.093-3.999-.693-7.681-.704-11.332-.046-15.326-.019-30.652-.02-45.978 0-8.418-.002-8.418-8.012-10.387z"/><path fill="#54C375" d="M248.79 29.196c10.472 8.849 19.228 19.31 27.617 30.496-.277.679-.76.904-1.725.91-2.602-.782-3.653-2.787-5.151-4.312-.995-1.013-1.853-2.784-3.571-2.071-1.592.66-1.415 2.515-1.45 3.974-.17 7.144-.028 14.291-.086 21.436-.02 2.484.231 4.993-.665 7.794-1.963 2.193-3.285.746-4.276-.478-3.225-3.982-6.492-7.967-8.27-13.324.792-11.822-.353-23.265.698-34.664.166-1.798-.994-3.094-1.96-4.436-1.075-1.493-2.167-2.981-1.162-5.325z"/><path fill="#46BB81" d="M231.555 47.118c.204-7.166-.845-14.228.719-20.655 2.298-9.448-2.707-13.253-9.628-16.65-1.003-.493-2.21-.849-2.547-2.535 10.243 3.893 18.372 11.013 25.966 19.299-2.001 5.017-1.366 9.994-1.55 14.899-.204 5.392.866 10.869-1.19 16.52-1.614 2.07-3.23 1.813-4.39.337-2.706-3.448-6.352-6.277-7.38-11.215z"/><path fill="#6DB559" d="M274.739 60.303c.573-.304.923-.307 1.534-.318 19.103 25.347 34.248 52.572 38.187 84.398 2.436 19.69 1.764 39.524-7.454 58.35-.386.588-.582.864-.867 1.376-.087.238-.052.603-.166.746-.97.687-1.69 1.538-3.15 1.087-1.071-1.902-.439-3.427.18-5.348 12.852-28.979 10.152-57.544-.25-86.42-1.77-5.423-4.435-10.03-6.703-15.211-2.041-6.022-5.696-10.786-8.546-16.372-3.552-6.483-7.185-12.489-12.024-18.132-.814-1.41-1.302-2.544-.741-4.156z"/><path fill="#4DBF7B" d="M241.58 60.009c2.769-9.267.877-18.408 1.385-27.432.123-2.187-.147-4.376 2.827-5.5 1.504-.202 2.267.48 3.133 1.513.283 1.242.071 2.717.62 3.098 4.78 3.33 3.936 7.881 3.563 12.746-.733 9.543.655 19.166-.91 29.088-5.59-2.658-8.32-7.783-10.619-13.513z"/><path fill="#138993" d="M184.64 8.724c-.264.88-.84 1.817-1.536 3.012-2.192 4.463-5.832 7.733-7.457 12.631-3.965 7.844-5.947 15.923-7.65 24.497-3.09 11.72-5.629 23.174-8.591 34.935-2.34 10.333-4.3 20.343-7.133 30.559-1.7 3.68-1.23 7.749-4.297 10.816-.614.212-.88.231-1.484.043 2.192-14.744 6.038-28.985 9.554-43.291 4.252-17.305 7.105-34.969 13.017-51.85 2.042-5.83 4.742-11.357 8.857-16.046 1.831-2.086 3.392-4.58 6.72-5.306z"/><path fill="#2B775F" d="M243.014 251.426c-34.174 5.824-61.518-5.988-83.28-32.615-.105-.554-.074-.805.303-1.204 3.282-.145 4.342 2.409 6.318 4.31 3.688 4.353 7.618 7.837 12.826 10.285 4.613 3.076 8.694 6.37 14.092 8.124 5.685 3.284 11.572 4.772 17.975 5.975 7.498 3.204 14.948 3.68 22.524 2.764 2.296-.278 4.551-.552 7.252-.07 1.237.503 1.784 1.126 1.99 2.431z"/><path fill="#428654" d="M302.657 206.065c1.09-.383 1.841-.692 2.897-1.033-11.126 23.593-30.174 37.89-54.997 45.11-.934.272-1.867.55-3.191.802-.74-.42-1.007-.865-1.25-1.748-.038-.912.077-1.414.514-2.201 3.359-2.284 7.374-1.88 10.722-4.29 4.38-1.983 9.006-2.606 12.654-6.11 4.437-2.634 8.83-4.72 12.313-8.703 5.241-3.574 9.127-8.014 12.935-13.016 3.422-2.344 4.07-6.492 7.403-8.811z"/><path fill="#04798C" d="M161.374 217.646c-.49.38-.752.462-1.394.703-.381.158-.367.112-.37.089.187-.485.056-.844-.675-1.196-.634-.152-.84-.338-.98-.852-.373-.765-.415-1.43-1.028-2.06-.313-.063-.194-.126-.208-.06.08-.338-.05-.657-.623-1.048-8.625-12.32-13.43-25.746-14.094-40.535-.595-13.261.069-26.48 2.046-39.616.118-.784.592-1.513 1.009-2.663.395-.448.683-.5 1.272-.234 2.398 5.768.393 11.149-.15 16.505-1.777 17.552-.796 34.728 6.11 51.633 1.486 3.385 2.857 6.372 5.216 9.235 1.161 3.618 4.64 5.884 3.87 10.099z"/><path fill="#2B775F" d="M246.58 248.636c.355.671.38 1.133.4 1.94-.41.395-.814.444-1.528.493-1.323.502-1.67-.165-1.918-1.327.18-.61.323-.829.817-1.223.875-.285 1.39-.258 2.229.117z"/><path fill="#46BB81" d="M219.85 6.676c-.989.124-2.181-.01-3.62-.406-.37-.415-.492-.566-.432-.945 1.405.213 2.627.654 4.052 1.351z"/><path fill="#04798C" d="M146.05 125.338c.102-.33.565-.339.797-.342 1.36 1.16 1.215 2.42.22 3.992-.568.318-.832.37-1.438.205-.121-1.318.099-2.422.42-3.855z"/><path fill="#428654" d="M243.734 248.795c.468.785.673 1.361 1.143 2.106-.023.854-.575 1.086-1.594 1.01-.595-.552-.871-1.048-1.255-1.807-.17-.478-.232-.693-.081-1.168.64-.43 1.077-.453 1.787-.141z"/><path fill="#2B775F" d="M156.698 214.557c.658-.197 1.071.233 1.21 1.288-.367-.112-.747-.555-1.21-1.288z"/><path fill="#428654" d="M306.246 204.17c-.066-.14.061-.458.378-.95.065.14-.059.458-.378.95z"/><path fill="#2FAF91" d="M215.745 5.012c.236.086.246.54.242.767-.307.126-.555-.05-.856-.508.055-.252.216-.298.614-.259z"/><path fill="#2B775F" d="M155.906 213.34c.217-.031.49.202.781.716-.229.036-.477-.208-.78-.716zM158.71 217.418c.228-.046.554.166.887.688-.257.063-.522-.183-.887-.688z"/><path fill="#138993" d="M145.18 129.227c.108-.25.48-.253.667-.246.289.17.391.334.339.74-.156.244-.588.27-.805.28-.246-.167-.277-.346-.2-.774z"/><path fill="#E5FAF7" d="M43.687 302.412c-.018-6.71.074-13.011.113-19.313.006-1.092.332-2.632-1.314-2.774-4.777-.41-2.564-4.043-2.438-6.043.165-2.625 2.89-1.376 4.44-1.4 12.33-.186 12.328-.137 17.049 11.32 2.308 5.602 4.628 11.199 7.429 17.973 3.604-9.357 6.78-17.606 9.96-25.852.625-1.618.692-3.771 3.688-3.626 4.033-.02 7.685.011 11.332.149 1.223.046 3.038-.626 3.375 1.16.328 1.737.478 4.977-.134 5.195-5.925 2.11-2.397 6.933-3.313 10.4-.041.154.004.33.102.948.023 4.587-.076 8.721-.1 12.856-.006 1.241-.371 2.632 1.607 3.053 3.564.757 1.966 3.702 1.921 5.67-.059 2.555-2.401 1.616-3.873 1.695-2.312.124-4.646.163-6.951-.014-1.5-.115-3.959 1.047-4.285-1.027-.322-2.05-1.397-4.366 1.266-6.614 3.038-2.566.637-6.81 1.13-10.709-1.259-2.338-1.255-4.362-.718-6.79.17-.77.358-1.171.425-1.587.064-.399-.031-.424-.138.21-.68 2.34-1.454 4.347-3.166 6.191-2.303 4.871-4.199 9.649-6.34 14.312-1.2 2.613-1.205 5.979-5.951 5.967-4.525-.012-5.007-2.837-6.204-5.674-3.14-7.442-6.315-14.87-10.415-22.128 0 5.874-.01 11.747.007 17.62.004 1.126-.167 2.241 1.326 2.848 3.11 1.265 1.649 4.057 1.45 6.055-.247 2.479-2.708.915-4.541 1.493-2.386.024-4.362.09-6.297-.158-1.533-.197-4.187 1.167-4.164-1.749.015-1.956-1.986-5.187 2.306-5.707 2.207-.268 1.363-2.199 1.416-3.95z"/><path fill="#E4F9F6" d="M112.464 312.023c-4.742-3.553-8.145-7.722-9.608-13.667-.79-7.206-.664-14.03 4.43-19.329 8.115-8.438 18.348-9.42 26.829-3.008 8.242 6.232 10.64 19.03 5.307 28.325-5.543 9.661-15.923 12.68-26.958 7.679z"/><path fill="#E5FAF7" d="M147.686 275.44c.099-2.87 1.87-2.631 3.545-2.621 3.497.02 6.995-.035 10.491.023 1.696.029 4.079-.65 3.778 2.38-.194 1.951 1.476 5.06-2.705 4.997-2.493-.038-1.738 1.996-1.752 3.302-.07 6.327.1 12.66-.095 18.982-.089 2.894.501 4.531 3.757 3.954 2.877-.51 7.406 1.751 7.226-3.992-.085-2.714.607-3.584 3.509-3.768 4.328-.276 6.222.911 5.456 5.444a15.467 15.467 0 0 0-.001 4.982c.689 4.225-1.413 5.25-5.474 4.853-8.213.023-16.005-.01-23.795-.151-1.447-.026-3.822.848-3.694-1.843.092-1.932-1.734-5.04 2.068-5.483 2.327-.272 1.972-1.752 1.976-3.184.015-6.636-.003-13.271.011-19.907.004-1.704.177-3.22-2.406-3.3-3.11-.095-1.233-2.786-1.895-4.668z"/><path fill="#0AC288" d="M197.046 340.351c-.93-3.392-1.763-6.427-2.517-9.482-.284-1.153-1.444-2.757.692-3.2 1.742-.362 1.488 1.33 1.757 2.377.89 3.471 1.784 6.941 3.026 11.771 1.585-4.73 2.756-8.126 3.851-11.546.368-1.147.637-2.324 2.13-2.327 1.504-.004 1.752 1.141 2.093 2.323 1.002 3.467 2.117 6.901 3.326 10.79 3.012-4.217 2.023-9.684 5.29-13.18l1.506.525c-1.758 5.551-3.261 11.204-5.403 16.603-.815 2.054-2.344.967-2.9-.848-1.107-3.617-2.21-7.235-3.56-11.653-2.647 4.342-3.094 8.591-4.377 12.922-4.641 1.487-3.466-2.78-4.914-5.075zM176.502 345.472c-1.236-4.42-4.613-3.2-7.403-3.776-3.736-.77-3.622 3.911-7.385 4.263 2.636-6.078 4.966-11.637 7.476-17.114.664-1.448 2.124-1.96 2.959-.127 2.332 5.124 4.57 10.297 6.633 15.535.69 1.755-.693 1.836-2.28 1.219z"/><path fill="#E5FAF7" d="M21.59 271.408c5.795.54 9.14 4.715 13.336 7.359 1.976 1.245 1.116 6.385-1.536 8.205-3.973-.117-7.894.783-8.815-4.751-.334-2.01-3.27-2.53-5.58-2.326-1.945.171-3.67.712-4.03 2.952-.35 2.166.807 3.473 2.76 4.137 3.146 1.071 6.314 2.077 9.462 3.142 4.264 1.443 7.194 4.18 7.855 8.776.707 4.911-.432 9.273-4.5 12.508-6.615 5.262-17.313 4.433-22.351-2.32-1.275-1.709-4.58-1.139-4.134-3.965.322-2.042-1.523-5.684 1.37-5.802 2.844-.116 7.786-3.464 8.92 3.224.564 3.32 5.787 4.732 8.762 2.976 2.718-1.606 2.658-5.249-.323-6.733-2.358-1.175-4.963-1.865-7.475-2.723-7.346-2.508-10.824-7.015-10.268-13.356.55-6.273 4.954-10.145 12.649-11.076 1.152-.14 2.322-.134 3.898-.227z"/><path fill="#E4F9F6" d="M185.603 272.743c6.55-.062 12.71-.087 18.86.126 6.502.224 11.801 4.165 13.218 9.548 1.467 5.573-1.379 11.371-7.521 15.135-2.69.505-5.178.663-7.63 1.048-1.586.25-4.296-1.13-4.438 1.483-.115 2.117-2.13 5.234 2.032 6.564 2.774.888 1.296 3.73 1.286 5.68-.01 1.94-1.823 1.505-3.074 1.517-3.656.036-7.312-.017-10.968.02-1.792.02-3.548-.048-3.18-2.515.271-1.81-1.436-4.762 2.297-4.872 2.555-.076 2.336-1.757 2.333-3.445-.01-6.48.02-12.962-.03-19.442-.01-1.214.561-2.96-1.33-3.27-5.94-.973-3.028-4.502-1.855-7.577z"/><path fill="#0AC288" d="M239.023 330.38c1.783-2.927 3.29-3.473 4.701-.043 1.94 4.715 4.023 9.37 6.245 14.358-.637 1.66-1.612 1.547-2.628.54-5.04-5.005-7.914-4.896-12.817.461-.159.174-.618.071-1.536.147 1.166-5.51 4.236-10.069 6.035-15.463z"/><path fill="#383838" d="M84.332 286.754c.328 2.624.39 5.002.36 7.818-1.275.36-2.542.653-3.71-.643.552-2.398 1.296-4.492 2.236-6.852.413-.368.632-.469 1.114-.323z"/><path fill="#E4F9F6" d="M325.208 313.247c.684-2.62-1.993-6.567 3.044-7.2 1.329-.167.688-2.024.701-3.093.068-5.328.244-10.67-.062-15.98-.15-2.6 2.156-6.455-3.176-7.346-1.259-.21-.542-3.354-.505-5.142.041-2.02 1.73-1.554 2.975-1.665.33-.03.666 0 1-.008 13.028-.288 13.007-.28 17.883 11.779 2.296 5.678 4.69 11.317 7.32 17.648a4055.22 4055.22 0 0 0 6.989-18.73c1.736-8.954 6.57-11.96 15.439-10.969 4.932.552 6.974 1.446 6.084 6.852-3.07.35-4.129 1.743-3.956 4.903.278 5.122-.07 10.275.131 15.404.106 2.71-1.709 6.247 3.157 7.413 1.43.342.686 3.34.527 5.073-.239 2.608-2.521 1.332-4.348 1.796-2.033.02-3.7-.324-5.268-.069-4.95.805-6.948-1.093-6.046-6.472 2.452-6.375.96-12.73 1.727-17.699-2.097 4.593-3.121 10.853-7.425 16.04-.93 1.555-1.805 2.83-2.17 4.237-.69 2.661-2.081 3.69-4.933 3.652-2.815-.037-4.44-.687-5.56-3.542-3.114-7.94-6.603-15.732-10.863-23.441 0 5.843.063 11.687-.029 17.529-.04 2.582 4.079 2.482 3.204 5.953-.611 2.423-.673 3.978-3.68 3.739-2.801-.223-5.636-.028-8.912.074-1.313-.103-2.17-.296-3.248-.736z"/><path fill="#E5FAF7" d="M443.827 313.228c-3.758.486-7.564.255-11.286.708-4.919.598-7.1-.995-6.154-6.498 3.844-.485 4.73-2.608 4.506-6.172-.302-4.807.098-9.655-.145-14.469-.134-2.656 1.869-6.371-3.46-7.108-1.725-.238-.859-3.55-.707-5.431.157-1.944 1.95-1.407 3.166-1.417 5.99-.05 11.981.02 17.971-.037 5.952-.057 10.863 1.718 13.319 7.61 2.178 5.227.707 9.093-5.246 14.313 2.28 2.119 3.231 4.935 4.009 7.844.323 1.212.073 2.851 1.87 3.139 4.575.73 2.03 4.229 2.168 6.322.197 2.995-2.642 1.725-4.162 1.768-7.575.213-7.538.137-8.938-7.63-.704-3.904-.932-8.341-6.47-8.507-1.461-.044-3.82-1.071-4.196 1.222-.381 2.324-1.345 6.378.563 6.915 4.628 1.301 2.877 4.394 3.192 7.428zM421.979 306.565c-.364 7.295-.364 7.296-7.493 7.295-7.332-.001-14.664.019-21.995-.022-1.534-.009-3.793.597-3.426-2.144.242-1.813-1.648-4.759 1.88-5.182 2.615-.314 2.178-2.006 2.183-3.593a792.893 792.893 0 0 0-.11-16.457c-.05-2.704 1.379-5.11-2.894-5.783-2.53-.399-.803-4.003-1.055-6.135-.246-2.081 1.578-1.702 2.817-1.706 8.982-.028 17.964.048 26.944-.059 2.461-.03 3.226.945 3.056 3.243-.135 1.82-.023 3.657-.027 5.487-.01 5.062-2.556 6.853-7.4 5.33-.957-.3-1.251-.778-1.48-1.66-.363-1.4 1.166-3.76-1.413-4.044-2.785-.308-5.894-.686-8.382.246-2.177.816-.879 3.853-.92 5.884-.047 2.407 2.052 1.743 3.352 1.673 3.134-.167 5.388-.083 5.09 4.288-.208 3.075-1.017 4.354-4.025 3.77-4.56-.886-4.469 1.84-4.608 5.165-.155 3.686 1.306 4.392 4.62 4.382 3.898-.012 7.232.365 6.413-5.373-.44-3.083 2.505-1.99 3.998-1.928 1.668.07 4.331-1.405 4.7 1.901.183 1.645.066 3.323.175 5.422z"/><path fill="#444" d="M361.498 306.002c2.262-6.841 4.906-13.682 7.55-20.523l1.084.197c0 6.163-.054 12.327.034 18.49.025 1.79-.952 2.263-2.734 2.667-2.093-.164-3.822-.497-5.934-.83z"/><path fill="#E3F7F4" d="M270.68 296.448c-.02-4.72.073-8.994.109-13.268.01-1.27.27-2.85-1.705-2.931-4.413-.183-2.5-3.534-2.534-5.517-.05-2.952 2.572-1.762 4.13-1.878 2.457-.181 4.936-.07 7.861-.17 4.653-.563 6.532 1.153 5.779 5.883-4.877 1.288-4.672 4.854-4.507 8.693.22 5.125.081 10.266.041 15.4-.016 2.077-.15 4.31 2.912 3.72 2.831-.545 7.855 2.17 7.807-3.138-.058-6.28 4.46-5.256 6.762-4.172 4.959 2.336 1.215 7.492 2.178 11.303.462 1.829.14 3.708-2.665 3.518-1.977-.133-3.973-.004-6.404.096-7.044.02-13.644-.02-20.243-.143-1.493-.028-3.78.715-3.666-1.92.085-1.953-1.659-5.038 2.156-5.457 2.613-.287 2.066-2.074 2.1-3.628.042-1.98-.01-3.963-.111-6.39z"/><path fill="#DDF1EE" d="M307.221 297.449c-.022-5.086.082-9.721.142-14.357.015-1.15.056-2.613-1.465-2.72-4.73-.333-2.71-3.903-2.593-5.975.157-2.75 2.84-1.45 4.412-1.55 3.14-.2 6.303-.132 9.451-.027 1.467.049 3.84-.762 3.615 1.943-.158 1.907 1.812 4.987-2.077 5.46-2.189.267-2.073 1.762-2.077 3.254-.018 6.636-.02 13.271-.002 19.907.002.955-.212 2.514.831 2.591 4.48.33 3.309 3.567 3.514 6.597-5.2 2.329-10.643.87-15.986 1.274-1.168.088-1.901-.642-1.82-1.813.122-1.743-.92-4.658.664-5.026 6.132-1.422 2.637-6.008 3.391-9.558z"/><path fill="#0AC288" d="M306.33 330.01a67.469 67.469 0 0 1-5.314-.05c-1.76-.081-2.893.412-2.794 2.486.088 1.851.984 2.532 2.783 2.773 1.968.264 5.528-1.177 5.528 1.287 0 2.439-3.57 1.057-5.54 1.28-2.618.296-2.643 2.068-2.758 3.931-.14 2.279 1.462 2.128 3.002 2.236 2.167.15 4.484-.546 7.771 1.265-4.488 1.347-7.88.691-11.187.766-.9.02-1.644-.525-1.648-1.504-.026-5.32-.05-10.64.066-15.958.02-.92 1.142-1.043 2.374-1.16 2.627-.01 4.868-.068 7.097.063 1.902.112 3.147.687.62 2.585z"/><path fill="#E4F9F6" d="M228.075 276.862c13.869-10.693 30.765-2.189 33.008 13.757-.076 10.552-3.396 18.806-13.836 23.125-11.968 1.593-19.024-1.507-23.478-9.964-4.679-8.885-3.23-18.196 4.306-26.918z"/><path fill="#0AC288" d="M278.307 345.678c-3.778.018-3.896-3.71-5.72-5.866-.741-.875-1.21-2.136-2.692-1.59-1.24.459-.833 1.647-.918 2.571-.075.825.036 1.667-.04 2.492-.097 1.07.277 2.647-1.519 2.494-1.273-.109-1.19-1.404-1.202-2.38-.041-3.158-.042-6.318-.111-9.938.74-2.245-1.388-5.436 1.747-5.872 3.365-.467 7.079-.376 9.752 2.364 1.15 1.18 1.99 3.662.634 4.518-6.095 3.85-.722 7.254.069 11.207z"/><path fill="#EEFFFA" d="M241.408 59.438c3.535 4.848 6.8 9.474 10.34 14.279 3.61 5.067 6.942 9.955 10.551 15.076 3.959 1.866 4.788 5.748 6.858 8.643 1.257 1.758 2.374 3.621 3.8 5.699 4.03 6.88 8.056 13.353 11.789 20.416 3.022 6.358 6.143 12.26 9.247 18.608 2.848 8.557 6.148 16.553 6.441 25.413.43 12.99-2.759 25.032-8.766 36.843-3.614 5.666-7.239 10.846-11.646 15.895-3.868 4.045-8.07 7.117-12.631 10.32-4.56 2.658-8.807 5.138-13.625 7.381-6.82 2.601-13.512 3.964-20.824 4.421-7.444.362-14.433.163-21.794-1.181-2.622-.717-4.84-1.3-7.043-2.923.634-3.51 3.41-2.748 5.487-2.69 5.1.141 9.874-.885 14.83-3.1 3.237-1.31 5.752-3.105 8.556-5.088 3.382-2.606 5.805-5.61 8.164-9.134 2.396-3.552 3.028-7.34 3.88-11.444 1.081-4.554.188-8.579-1.058-12.977-.666-3.72-.44-7.07-.412-10.823.18-3.38.966-6.207 2.12-9.337 1.286-2.526 2.705-4.516 4.301-6.814 2.135-2.256 3.73-4.474 5.277-7.153 1.866-2.552 2.839-5.126 3.608-8.173.71-2.453.838-4.61.727-7.163-.337-3.922-1.487-7.262-2.772-10.967-1.862-6.717-6.043-9.522-12.548-10.802-17.65-3.474-35.22-7.39-52.779-11.33-3.424-.769-6.852-1.403-10.738-1.706-2.797-4.948 1.52-7.074 3.988-10.234 2.98-3.94 5.59-7.736 8.27-11.866 1.946-5.172 4.63-9.482 8.756-13.18 3.923-4.923 7.515-9.725 11.206-14.848 3.5-4.598 6.944-8.845 10.295-13.163 3.82-4.923 3.785-4.95 8.129.143 3.413 4.413 6.579 8.575 10.016 12.96z"/><path fill="#1CA59E" d="M185.031 98.818c-1.668 3.45-3.412 6.47-5.238 9.843.35 2.882-.8 3.732-3.524 2.952-1.71-2.173-1.87-4.343-1.88-6.505-.104-25.407-.063-50.814-.012-76.221.003-1.315.092-2.658.53-4.425 1.123-5.27 3.704-9.097 7.777-12.318 2.026 1.494 1.278 3.62 1.282 5.526.051 24.623.043 49.247.02 73.87-.003 2.343.018 4.653 1.045 7.278z"/><path fill="#28AC96" d="M202.065 73.743c-2.787 4.68-5.602 8.878-8.703 13.263-.646-26.908-1.004-54.003-1.365-81.541.665-.453 1.334-.424 1.996-.48 8.007-.682 8.004-.685 8.008 7.325.01 20.316.023 40.632.064 61.433z"/><path fill="#5CC770" d="M272.62 104.183c-3.582-4.997-6.734-9.798-9.965-14.878.841-10.247.122-20.238.337-30.216.06-2.799-.52-6.616 2.225-7.563 2.888-.997 4.343 2.89 6.321 4.747 1.07 1.005 1.897 2.27 3.129 3.572.625 1.252.955 2.349 1.322 3.789-.646 12.34-.149 24.355-.515 36.355-.053 1.758-.175 3.728-2.854 4.194z"/><path fill="#72D261" d="M290.028 205.377c10.627-20.625 12.186-41.26 2.6-62.768-.348-12.095-.426-23.827-.173-35.551.074-3.431-.56-7.481 4.106-9.255 2.132 5.061 5.83 9.078 6.45 14.784 1.3 14.653.908 28.968.336 43.224-.393 9.816-.993 19.553.127 29.351.565 4.945-.004 9.958.397 15.388-.209 1.87-.543 3.287-.876 5.072-2.154 3.246-2.69 7.277-6.558 9.297-3.518 1.775-4.82-.117-5.588-2.8-.59-2.06-.282-4.24-.821-6.742z"/><path fill="#76D45C" d="M304.265 200.777c-2.367-.056-2.224-1.636-2.27-3.155-.32-10.594-1.46-21.236-.81-31.768 1.004-16.257.57-32.494.843-48.738.02-1.128.424-2.25.82-3.76 3.703 2.869 4.061 7.565 5.196 11.726 5.964 21.87 7.396 43.868.43 65.844-1.045 3.294-2.614 6.42-4.21 9.85z"/><path fill="#65CB6A" d="M272.271 104.314c2.574-.998 1.68-3.184 1.693-4.82.074-9.245.087-18.492.003-27.738-.023-2.553.31-4.921 1.894-7.427 5.719 4.326 8.762 10.744 12.148 17.298-.786 11.399-.165 22.447-.428 33.483-.077 3.242.267 6.702-3.294 9.013-4.29-6.511-8.113-12.997-12.016-19.81z"/><path fill="#6CD065" d="M283.917 124.442c2.01-2.562 2.091-5.338 2.088-8.154-.013-9.721-.048-19.442.036-29.163.014-1.675-.847-3.695 1.58-5.035 4.192 4.519 6.698 9.884 9.339 15.551-3.38 2.184-2.842 5.595-2.892 8.506-.175 10.086-.043 20.177-.091 30.265-.008 1.774.49 3.658-1.08 5.559-3.207-5.548-6.043-11.366-8.98-17.53z"/><path fill="#0B9CAB" d="M157.302 208.235c-3.222-1.825-4.098-4.763-5.263-7.885-1.325-4.685-1.742-9.105-1.726-13.627.07-19.45.07-38.901 0-58.352-.016-4.166.477-8.284.679-12.905 2.302-10.547 4.607-20.616 6.968-31.077 4.077-1.15 3.223 2.107 3.378 4.015.714 8.796.349 17.623.437 26.439.07 6.98-.45 13.983.929 21.302.31 1.17.343 1.968.221 3.157-1.034 2.966-1.808 5.613-2.782 8.587-.624 1.764-.872 3.233-1.18 5.08-.911 3.376-1.574 6.407-1.763 9.926-.77 3.536-.816 6.723-.693 10.32.529 3.005.953 5.625 1.033 8.684.57 3.174 1.383 5.9 1.926 9.081.829 3.14 2.361 5.67 2.502 9.018-.984 3.33.095 7.355-4.666 8.237z"/><path fill="#16A2A2" d="M174.664 24.157c2.045 1.463 1.298 3.588 1.302 5.49.051 24.922.04 49.844.024 74.765-.002 2.332-.053 4.652.986 7.263.408.79.59 1.232.58 2.102-1.45 3.028-3.134 5.49-5.429 7.998-1.107.663-1.918.815-3.141.24-1.956-2.658-1.609-5.375-1.616-7.997-.04-15.91-.091-31.823.02-47.733.04-5.459-1.2-10.877-.4-16.82.868-9.168 3.201-17.426 7.674-25.308z"/><path fill="#119FA6" d="M166.714 49.246c1.804 4.119 2.24 8.679 2.258 13.25.069 17.935.013 35.87.05 53.804.004 1.782-.485 3.669 1.03 5.578 1.2 3.803-1.97 5.804-3.038 8.998-1.455 2.291-1.95 4.805-4.484 6.174-3.401-3.485-2.208-7.873-2.349-11.733-.337-9.239.736-18.54.199-27.755-.257-4.4 1.015-9.19-1.975-13.47 2.42-11.594 5.228-23.092 8.31-34.846z"/><path fill="#0597AB" d="M150.72 115.238c1.984 1.4 1.242 3.525 1.246 5.435.052 22.985.013 45.97.057 68.955.006 3.287.323 6.574.238 10.116-4.325-6.725-5.957-14.436-7.306-22.289-2.683-15.613.263-31.057 1.077-47.028-.002-.462-.003-.95 0-1.194 1.208-1.062.946-2.337 1.033-3.874 2.6-3.015 2.016-6.79 3.654-10.121z"/><path fill="#3AB48A" d="M209.786 239.924c7.59 1.031 14.916 1.354 22.741 1.193.882 5.692 5.96 5.337 9.413 7.39-.026.35-.023.844-.022 1.09-8.06.693-16.086 2.197-24.21.453-2.289-.491-4.586-.556-6.576-2.587-1.931-2.34-2.867-4.547-1.346-7.539z"/><path fill="#28AC96" d="M209.836 239.408c-.296 2.532.94 4.649 1.112 7.324-6.389.247-12.229-1.672-17.821-5.287-1.59-2.088-1.72-4.088-.98-6.603 4.815-2.991 8.044.276 11.797 2.695 2.026.796 3.817 1.24 5.892 1.871z"/><path fill="#119FA6" d="M156.962 208.393c4.219-1.317 2.2-5.466 3.924-8.13 2.322-.519 2.486 1.494 3.598 2.955.278.493.384.691.642 1.191 1.266 2.961 2.438 5.59 4.48 8.134.611 1.14.922 2.025 1.114 3.322-.32 3.148-1.577 5.415-4.19 7.085-2.424-1-3.37-3.086-5.15-4.788-.14-3.951-4.125-5.835-4.418-9.769z"/><path fill="#16A2A2" d="M166.263 223.237c1.104-2.444 2.304-4.57 3.644-7.026 3.706-.453 4.452 2.938 6.72 5.003 1.622 1.923 3.896 2.914 4.12 5.813-.275 2.133-.304 3.943-1.477 5.816-5.633-1.411-9.434-5.135-13.007-9.606z"/><path fill="#22A99A" d="M179.145 233.398c.057-2.193-.63-4.19.783-6.24 5.618-.307 8.992 3.396 12.958 6.51.106 2.425.102 4.499.078 7.026-5.508-.311-9.385-4.023-13.82-7.296z"/><path fill="#6CD065" d="M289.605 205.132c3.553.528 2.218 3.153 2.343 5.023.16 2.393.044 4.736 3.77 4.88-2.509 5.454-6.626 9.752-12.193 13.06-5.073-.518-3.636-4.663-4.686-7.795 3.664-5.125 7.838-9.51 10.766-15.168z"/><path fill="#4DBF7B" d="M242.26 248.896c-1.21-1.043-2.486-1.166-3.503-.844-6.156 1.953-6.216-1.758-5.763-6.454 6.89-1.118 13.642-2.438 20.514-5.03 2.232 1.526 2.27 4.349 4.47 6.184-2.374 3.968-6.551 3.353-10.54 4.282-.894.438-1.377.884-2.146 1.501-.43.25-.602.295-1.035.405-.723.041-1.187.018-1.996-.044z"/><path fill="#5CC770" d="M278.51 220.05c3.498 1.54 1.304 5.777 4.336 7.909-2.035 5-6.843 6.558-11.453 8.95-5.412.504-3.389-4.01-4.687-6.66 3.841-3.628 7.676-6.839 11.804-10.2z"/><path fill="#54C375" d="M266.37 229.885c3.416 1.338 1.435 5.328 4.335 7.081-2.757 3.975-7.221 5.153-12.182 6.102-4.391.016-4.415-2.904-4.608-6.162 4.02-2.617 8.067-4.792 12.455-7.021z"/><path fill="#3AB48A" d="M245.344 248.806c-.22-.93.164-1.55 1.384-1.748.279.377.255.782.206 1.487-.443.31-.862.317-1.59.26z"/><path fill="#373737" d="M84.686 286.71c-.287.261-.485.232-.978.151.054-.735.403-1.42.752-2.104.105.554.21 1.108.226 1.953z"/><path fill="#3D3D3D" d="M111.845 294.726c-.285-6.18 1.39-11.055 6.991-13.465 3.815-1.641 7.66-.77 10.464 2.345 4.013 4.458 4.66 9.73 2.592 15.298-1.736 4.675-5.745 7.372-10.265 7.083-4.977-.318-8.392-4.105-9.782-11.261z"/><path fill="#3D3E3E" d="M172.55 338.775c-1.76.321-3.31.98-4.412-.425-.6-.765.237-2.536 2.625-6.05 1.475 1.867 2.533 3.796 1.788 6.475z"/><path fill="#444" d="M206.193 281.687c2.3 2.603 2.547 5.154.59 7.503-1.913 2.298-4.796 2.182-7.424 1.873-2.611-.308-1.425-2.617-1.466-4.016-.236-8.004.368-8.387 8.3-5.36z"/><path fill="#464747" d="M242.336 333.04c.84 2.134 1.528 3.958 2.387 6.237-2.409.23-5.457 1.592-6.192-.67-.674-2.076 1.128-4.899 2.857-6.937.265.353.53.707.948 1.37z"/><path fill="#4A4B4B" d="M440.292 289.645c-.357-1.34-.556-2.355-.414-3.319.296-2.015-1.257-5.01 1.073-5.85 2.691-.97 5.932-.726 8.685.791 1.749.964 2.524 2.599 2.297 4.598-.261 2.308-1.857 3.617-3.911 3.913-2.432.35-4.941.168-7.73-.133z"/><path fill="#434343" d="M243.375 305.792c-6.51.145-10.128-2.134-11.982-7.203-2.047-5.596-.372-12.79 3.72-15.973 4.685-3.646 11.443-2.262 14.61 2.992 4.43 7.346 1.811 16.157-6.348 20.184zM269.09 331.242c.653-.69 1.21-1.185 1.783-1.205 2.145-.072 4.732-.344 4.92 2.688.137 2.224-1.748 2.881-3.744 3.088-3.465.359-3.179-1.934-2.958-4.57z"/><path fill="#91E8BC" d="M244.542 181.781c.404 3.913.534 7.559.697 11.657-1.922 2.55-4.283 1.624-6.528 1.278-5.748-.886-11.268-3.054-17.559-3.053-3.106.021-4.832-2.072-7.035-3.153-2.24-1.1-4.4-2.537-7.354-.852-5.342.18-10.117-1.055-15.241-2.436-3.428-2.092-6.356-4.49-10.792-3.412-6.012-1.213-12.12-.848-17.056-5.241 2.282-4.681 6.886-5.019 11.262-6.547 13.067 1.724 25.365 5.226 37.865 7.757 4.87.986 9.696 2.2 14.987 3.066 4.022 2.505 7.294.05 11.067-.747 2.179.003 3.904.337 5.687 1.683z"/><path fill="#E3FCF3" d="M176.81 114.21c.105-.785.139-1.165.2-1.83.762-1.19 1.497-2.095 2.466-3.183 7.032-2.097 13.198 1.163 19.542 2.422 15.86 3.149 31.529 7.32 47.45 10.059 6.887 1.185 9.462 5.11 11.492 10.965-2.642 2.493-5.436.986-8.096.456-10.272-2.047-20.377-4.93-31.222-6.08-4.011-.056-6.817-2.277-9.963-3.592-2.003-.837-4.12-1.017-6.617-1.424-6.73-2.023-13.28-3.046-19.68-4.699-2.027-.524-4.325-.616-5.571-3.094z"/><path fill="#ACEECE" d="M158.021 153.264c-.124-1.817.033-3.321.463-5.086 2.218-1.75 4.342-1.166 6.446-.784 4.21.764 8.32 2.079 13.01 2.388 3.64 3.982 7.414.254 11.265.91 9.413 3.7 19.082 4.772 28.459 7.012 9.073 2.167 18.255 3.878 27.36 5.924 2.107.473 4.286.826 5.933 3.033-1.012 2.266-2.178 4.152-3.595 6.254-8.208-.209-15.716-2.97-23.509-4.263-2.272-.376-4.496-1.047-7.189-1.4-3.465-.807-6.13-2.85-9.832-2.889-16.442-3.636-32.715-6.182-48.81-11.099z"/><path fill="#5BDA97" d="M176.43 222.1c-2.187-2.05-3.995-3.966-6.093-6.05-.642-.905-.994-1.642-1.4-2.682 1.448-3.205 3.941-1.968 6.095-1.656 4.731.686 9.252 2.71 14.568 2.158 1.467-.154 2.526-.083 3.938.317 4.534 3.384 9.964 2.724 14.847 4.886 1.63 1.407 2.5 3.766 5.362 1.943 6.37-.477 12.033 1.301 17.732 2.77 1.615.417 3.014 1.387 2.715 3.793-2.303 2.495-4.889 3.905-7.784 5.409-16.709-3.789-33.15-7.297-49.98-10.888z"/><path fill="#B4F0D4" d="M251.398 166.878c-11.56-3.64-23.35-5.227-34.896-7.853-8.185-1.861-16.427-3.471-24.63-5.256-1.107-.24-2.228-.716-2.79-2.3.509-2.521 2.229-3.739 4.198-5.217 8.046-.925 15.08 2.16 22.74 3.701 2.29 1.662 2.584 6.54 7.194 3.26 3.902-.274 7.247.823 10.994 1.711 3.836 2.729 7.038-.575 10.759-.283 3.415 2.641 8.04 1.628 11.004 5.047-.664 3.02-2.33 5.12-4.573 7.19z"/><path fill="#CAF6E2" d="M260.666 143.728c.148 2.725.83 5.231-.555 7.926-3.179 2.046-5.906-.083-8.774-.307-1.8-.14-3.545-.788-5.753-.61-3.842.082-6.716-2.703-10.704-2.091-5.976-1.467-11.703-2.3-17.282-3.797-2.055-.551-4.238-.864-5.862-3.054.04-3.537 2.822-3.894 4.919-4.867 1.904-.884 3.74-1.967 6.212-2.521 11.402 1.836 22.168 4.797 33.12 6.882 1.624.309 3.264.746 4.68 2.439z"/><path fill="#53D892" d="M176.185 222.27c4.44-2.726 8.57.35 12.775 1.065 10.688 1.814 21.241 4.43 31.826 6.823 1.713.388 3.62.705 4.986 2.67-6.211 4.67-13.681 4.313-21.321 4.766-3.753-.972-7.234-2.237-11.084-3.54-4.403-2.365-8.435-4.695-12.794-7.083-.907-2.164-3.305-2.625-4.388-4.701z"/><path fill="#D6F9EA" d="M260.96 143.626c-12.543-2.487-25.078-5.37-37.854-8.562-1.603-3.19-3.547-5.695-5.336-8.623 6.386-1.689 12.193 1.175 18.229 2.147 7.108 1.146 14.115 2.913 21.582 4.413 1.956 3.251 2.653 6.745 3.379 10.625z"/><path fill="#66DD9E" d="M208.994 220.02c-5.113-1.692-10.775-.354-14.932-4.697 1.198-2.98 4.111-3.785 6.258-5.983 6.583-.545 12.38 1.69 18.36 2.811 2.438.457 4.865.976 7.696 1.51 2.189.486 3.985.894 6.212 1.156 3.303 1.222 6.518 1.621 9.34 3.877-1.987 3.502-4.098 6.749-7.634 9.142-.404-1.379-1.07-2.452-2.588-2.724-5.8-1.04-11.452-2.913-17.803-3.117-2.16.148-3.147-1.372-4.91-1.975z"/><path fill="#85E5B4" d="M219.704 191.28c3.997-2.872 7.567-.214 11.128.266 4.53.61 8.879 2.387 13.989 2.379 2.174 3.981 2.511 8.165 1.77 12.81-1.143.876-2.07 1.47-3.62 1.409-5.261-1.6-9.296-5.043-14.687-6.36-3.436-2.75-7.892-2.238-11.207-5.112-.622-2.584 1.36-3.61 2.627-5.391z"/><path fill="#A4ECC9" d="M215.79 166.318c10.574.998 20.754 3.342 31.07 6.516-.459 3.01-1.169 5.724-1.962 8.826-1.847.048-3.612-.292-5.766-.686-2.906-2.997-5.106-6.623-10.323-4.419-4.91-.037-9.356-.632-13.522-3.516-1.292-2.438.374-4.346.504-6.721z"/><path fill="#BDF1DA" d="M244.806 150.584c3.03-3.172 5.87-.045 8.764-.13 1.854-.055 3.74.932 5.992 1.508-.26 2.8-.815 5.581-3.172 7.895-3.533-2.357-8.559-.427-11.36-4.594-.726-1.66-.432-3.02-.224-4.679z"/><path fill="#71E0A7" d="M241.627 207.285c1.46-.246 2.66-.247 4.316-.222-.25 4.031-1.04 8.01-3.528 11.747-3.166-.59-6.229-.867-9.173-2.703-.334-2.562 1.738-2.903 3.3-3.466 2.55-.92 4.003-2.665 5.085-5.356z"/><path fill="#BDF1DA" d="M211.55 140.475c5.397 4.34 11.922 3.804 17.774 5.449 1.88.528 3.817.774 5.697 2.232 1.778 2.518 1.588 4.816.395 7.506-4.057-.319-7.827-.98-12.001-1.652-2.498-.39-4.345-1.31-6.297-2.803-6.317-.55-11.997-2.806-17.95-3.635-1.766-.246-3.547-.384-5.755-.572-1.867-.12-2.752-1.2-3.838-1.933-5.28-3.563-6.426-3.48-11.013.839-4.54.088-8.502-1.147-12.518-2.019-1.957-.425-3.804-1.227-4.347-3.865.197-1.049.3-1.69.438-2.655a74.412 74.412 0 0 1 3.307-6.242c2.148-1.454 4.084-.662 6.006-.278 9.413 1.876 18.664 4.53 28.57 5.946.91.487.486-.268.812.272 2.526 4.194 6.338 4.102 10.72 3.41z"/><path fill="#71E0A7" d="M227.418 214.622c-8.227-.29-15.745-2.973-23.553-4.162-1.134-.172-2.281-.258-3.865-.342-3.736-.574-6.46-3.684-10.6-2.114-6.442-.045-12.299-1.301-18.298-3.578-4.002-4.538-4.081-4.543-6.954-.467-1.057-1.086-1.833-2.363-2.86-3.843-1.115-2.62-1.98-5.035-2.892-7.79 1.449-1.892 3.317-1.582 5.086-1.208 20.437 4.314 40.85 8.742 61.224 13.348.81.184 1.557.563 2.557 1.363 1.568 3.008 1.563 5.715.155 8.793z"/><path fill="#7CE2AE" d="M227.341 205.747c-12.262-1.382-23.876-4.747-35.711-7.042-10.857-2.106-21.665-4.465-32.887-6.716-1.033-2.756-1.674-5.509-2.383-8.627 1.818-2.102 3.957-1.225 6-.881 5.81.976 11.488 2.63 17.7 3.566 2.384 2.344 4.983 2.196 7.99 1.956 6.16 2.422 12.555 2.55 18.648 5.112 2.346 5.352 6.424 1.851 9.83 2.589 3.654 2.519 8.424 1.423 11.47 5.102 1.148 1.933.42 3.312-.657 4.94z"/><path fill="#A4ECC9" d="M157.519 153.25c9.604.378 18.495 3.58 27.734 5.073 7.113 1.15 14.095 3.11 21.55 4.745 1.87 1.902 1.731 3.952.905 6.448-3.746 3.023-7.19 1.367-10.969-.045-2.253-1.34-3.298-5.346-6.88-1.945-3.857 1.187-7.03-.757-10.406-1.116-1.78-.189-3.514-.84-5.712-.46-2.777.136-4.794-1.016-6.816-2.065-2.159-1.12-4.288-1.56-6.887-.174-1.406.378-2.422.333-3.684-.453-.736-3.523.384-6.58 1.165-10.008z"/><path fill="#85E5B4" d="M181.147 186.669c-8.533.55-16.089-2.833-24.464-3.67-.73-2.744-1.067-5.486-1.337-8.622 1.028-1.53 2.308-1.488 3.981-1.275 1.754.64 3.042 1.36 4.427 2.605 4.988 3.955 11.167 2.922 16.725 5.224 2.111 1.653 1.976 3.486.668 5.738z"/><path fill="#B4F0D4" d="M161.54 139.889c1.474 2.468 4.169 2.525 6.532 3.063 3.382.771 6.803 1.37 10.62 2.058 1.879 1.615 1.76 3.399.721 5.609-7.054 1.007-13.211-2.184-20.223-2.676.41-2.61 1.253-5.195 2.35-8.054z"/><path fill="#91E8BC" d="M160.212 173.687c-1.602.325-2.836.313-4.434.299-.775-3.433-1.076-6.86.1-10.62 1.205-.365 2.23-.361 3.642-.352 2.9 3.3 2.391 6.792.692 10.673z"/><path fill="#CAF6E2" d="M201.446 137.63c-12.168-.382-23.435-4.09-35.355-6.667.339-3.167 2.674-5.402 4.176-8.5a6.845 6.845 0 0 1 1.42-1.51c9.949 2.121 19.79 3.845 29.664 7.02 1.533 3.31 1.52 6.301.095 9.657z"/><path fill="#D6F9EA" d="M201.406 127.764c-10.171-.681-19.823-2.702-29.312-6.586 1.284-2.567 2.748-4.795 4.5-7.198 6.481 2.984 13.439 3.254 20.01 4.988 1.903.502 3.847.742 5.591 2.484 1.23 2.426.492 4.258-.79 6.312z"/><path fill="#66DD9E" d="M170.532 202.658c5.994 3.108 12.309 3.253 18.814 4.327 2.674 2.194 2.418 4.668.9 7.637-3.41 2.191-6.305.185-9.269-.18-3.812-.47-7.404-2.452-11.752-1.526-2.814-1.777-3.628-4.733-5.069-7.688 1.727-1.74 3.839-2.284 6.376-2.57z"/><path fill="#E3FCF3" d="M170.807 202.415c-1.77 1.52-3.598 2.787-6.345 2.523-.37-.058-.484-.424-.54-.606.73-1.829-1.049-4.685 1.632-5.212 2.063-.405 4.106.818 5.253 3.295z"/><path fill="#99E9C2" d="M172.747 165.398c3.711-2.194 7.03-.116 10.463.487 1.923.338 3.833.749 6.146 1.136 2.183 1.233 4.151.852 6.39.825 3.458 1.43 6.697 2.33 10.56 2.14 2.486 2.562 5.34 1.188 8.142 1.679 4.38 2.825 9.27 2.82 14.125 4.28 1.985 1.657 1.889 3.466.689 5.71-9.059.289-17.173-2.915-25.583-4.58-9.394-1.86-18.73-4.014-28.499-6.105-1.663-1.56-2.07-3.401-2.433-5.572z"/><path fill="#EEFFFA" d="M172.484 164.999c1.456 1.596 2.94 2.988 2.347 5.548-3.495 1.879-6.931 3.399-10.6 5.177-1.669.287-3.136.407-4.216-1.386-.133-3.679-.096-7.042-.085-10.862 1.31-2.958 3.236-2.893 5.466-1.775a144.882 144.882 0 0 0 7.088 3.298zM217.04 195.641c-2.214.934-4.17 1.688-6.178 2.262-2.634.754-4.068-.202-3.967-3.488-1.474-2.387-1.61-4.469-.255-7.023.943-3.027 2.663-2.61 4.452-1.766 2.947 1.39 6.031 2.568 8.594 5.245.636 2.397-.435 3.735-2.645 4.77z"/><path fill="#85E5B4" d="M206.52 186.998c.414 2.057.427 4.1.382 6.577-6.098-1.477-12.701-1.237-18.774-4.526-.23-2.156 1.434-3.23 2.699-4.895 5.296.83 10.295 1.829 15.694 2.844z"/><path fill="#529ACB" d="M190.914 183.7c.47 2.535-.726 3.845-2.89 4.943-2.469-.514-5.558 3.957-7.175-1.269-.02-2.101.03-3.818.045-5.964 4.128-3.186 6.752.286 10.02 2.29z"/><path fill="#343434" d="M229.095 182.313c-.117-2.033-.064-3.75-.073-5.892.288-1.848 1.11-3.143 2.613-2.292 2.757 1.563 7.065 1.423 7.194 6.429-3.342.397-5.739 5.194-9.734 1.755z"/><path fill="#529ACB" d="M201.179 128.47c.302-2.308.653-4.165 1.113-6.335 2.713-2.34 5.007-.759 7.337.32 2.501 1.157 4.993 2.335 7.83 3.573 2.633 2.33 5.93 3.946 5.411 8.363-2.87 3.398-7.14 3.73-10.75 6.043-1.623.684-3.046 1.026-4.341 1.639-3.799 1.796-5.812.604-6.434-3.8-.175-3.312-.146-6.333-.166-9.804z"/><path fill="#343434" d="M179.283 151.266c-.101-1.999-.028-3.705-.066-5.825 1.183-6.224 1.174-6.204 6.722-3.676 2.517 1.147 5.138 2.11 6.809 4.986-.46 1.913-1.47 3.276-3.485 4.148-2.84.945-5.465 1.561-7.997 2.445-2.118.74-1.063-1.353-1.983-2.078z"/><path fill="#529ACB" d="M214.94 171.609c-1.59.687-3.026.958-4.316 1.549-2.664 1.221-3.525-.056-3.829-2.81.04-2.377.163-4.387.353-6.82 3.251-1.022 5.554 1.061 8.486 2.358 1.938 2.184 1.558 3.942-.694 5.723z"/><path fill="#343434" d="M190.343 215.104c-.443-2.473-.486-4.853-.558-7.678 4.212-3.426 6.464.454 9.545 2.5.224 3.628-3.027 3.259-5.073 4.808-1.343.302-2.428.382-3.914.37zM208.716 220.375c2.098-2.045 3.174-.138 4.636 1.301-1.844 1.518-4.39 4.854-4.636-1.301z"/><path fill="#529ACB" d="M235.301 156.295c-.137-2.529-.1-4.768-.064-7.403 3.68-3.887 6.048.4 9.356 1.251 1.03 1.43 2.001 2.712.512 4.463-3.373.47-5.806 5.132-9.804 1.689z"/><path fill="#EEFFFA" d="M216.879 151.392c2.302-.548 4.237.264 5.96 2.304-1.352 1.776-3.236 3.377-5.215 2.579-1.449-.584-.482-2.93-.745-4.883z"/><path fill="#529ACB" d="M227.063 206.45c.29-1.827.595-3.205.954-4.929 5.346-.607 9.17 2.643 13.579 5.356 1.244 3.769-.606 5.578-3.765 6.656-1.523.52-2.974 1.254-4.693 2.158-1.966.195-3.78.808-5.705-.538-.336-2.872-.345-5.563-.37-8.703z"/><path fill="#EEFFFA" d="M195.996 167.65c-2.007.256-4.253 4.946-6.175-.255.32-1.476-.138-3.389 1.726-3.234 1.91.158 3.782.902 4.449 3.49z"/></svg>