<svg version="1.1" id="Layer_1" xmlns="http://www.w3.org/2000/svg" xmlns:xlink="http://www.w3.org/1999/xlink" x="0px" y="0px"
	 width="100%" viewBox="0 0 470 362" enable-background="new 0 0 470 362" xml:space="preserve">
<path fill="#EFFFFB" opacity="1.000000" stroke="none" 
	d="
M1.386963,259.299835 
	C1.000000,174.370911 1.020105,89.741798 0.921866,5.112820 
	C0.918178,1.935750 1.227581,0.889351 4.883808,0.892327 
	C158.981949,1.017746 313.080261,1.019355 467.178375,0.886430 
	C470.962067,0.883166 471.070770,2.126411 471.067719,5.174972 
	C470.983154,89.470818 471.000000,173.766754 471.000000,258.531342 
	C468.662170,261.050537 465.786896,260.616913 463.047119,260.645111 
	C458.311493,260.693878 453.572632,260.773438 448.348297,260.496155 
	C434.719788,260.958832 421.578522,260.702911 408.440186,260.678955 
	C383.988007,260.634338 359.534454,260.985535 334.590332,260.493103 
	C312.753601,260.825531 291.410126,260.824310 269.575378,260.499573 
	C251.751175,260.820831 234.418182,260.813263 216.596466,260.500488 
	C204.073410,260.799988 192.039154,260.801453 179.517044,260.498230 
	C165.015305,260.803131 151.001541,260.805054 136.498260,260.502319 
	C117.018967,260.846069 98.028862,260.752991 78.548653,260.535522 
	C58.439140,260.801666 38.819698,260.821075 18.711651,260.498505 
	C12.726877,260.436401 7.166893,261.554413 1.386963,259.299835 
z"/>
<path fill="#393A3A" opacity="1.000000" stroke="none" 
	d="
M77.752296,259.487854 
	C97.021851,259.119202 116.045616,259.071198 135.532898,259.095123 
	C138.857635,261.488007 140.342468,264.839539 142.345459,267.787811 
	C144.189316,270.501892 146.113022,273.095764 148.898285,275.494751 
	C156.656326,284.482910 152.871048,294.699402 153.011292,304.374786 
	C153.018173,304.849426 152.669937,305.302673 152.425644,305.737671 
	C148.919540,311.980743 149.182709,312.368805 156.598373,312.465973 
	C162.077133,312.537750 167.564026,312.163574 173.415039,312.831848 
	C175.395233,313.402435 176.014862,314.826569 176.862000,316.050903 
	C182.658646,324.428589 189.663452,331.762909 197.011841,339.263031 
	C198.841553,341.358917 199.170029,344.185974 202.051971,345.443542 
	C206.648209,349.532623 210.191895,354.156067 214.384216,358.159760 
	C215.559372,359.282013 216.806442,360.500702 216.220154,362.713135 
	C193.979111,363.000000 171.958206,363.000000 149.468658,363.000000 
	C145.123550,360.039124 142.265640,356.072845 139.341095,352.319183 
	C130.270020,340.676453 120.444427,329.595062 112.509163,317.091125 
	C111.466377,315.447968 109.119980,313.868530 111.912575,311.460876 
	C113.809471,311.274506 115.304558,311.659271 116.623184,312.314545 
	C123.275093,315.620209 133.374359,310.853851 137.055206,305.729523 
	C141.523544,299.508911 142.132599,289.359894 138.034576,282.571350 
	C133.770599,275.507874 126.993599,272.296722 119.014427,273.559082 
	C110.615738,274.887817 103.606537,283.619354 103.757248,292.600830 
	C103.784904,294.248535 104.340408,295.902191 103.442352,297.861572 
	C100.761467,299.636475 99.198387,298.173401 97.753395,296.451599 
	C96.379196,294.814117 95.389137,292.866577 93.519058,291.120270 
	C92.346512,286.574921 91.630142,282.464539 94.849518,278.706696 
	C97.209946,275.951477 95.192276,274.960388 92.725525,274.595306 
	C89.815941,274.164764 86.813324,274.807465 83.567917,273.761230 
	C80.853134,269.185883 77.282639,265.281952 77.752296,259.487854 
z"/>
<path fill="#343434" opacity="1.000000" stroke="none" 
	d="
M1.000000,259.468658 
	C6.357275,259.007111 11.714551,259.014221 17.534231,259.093689 
	C21.361942,262.211517 23.585770,265.727875 22.479269,270.868835 
	C20.308918,272.713654 17.821819,272.418152 15.618407,273.120056 
	C9.701654,275.004761 6.670199,278.403015 6.471230,283.595947 
	C6.279496,288.600006 8.836190,292.102783 14.448741,294.447815 
	C16.754995,295.411407 19.209167,295.982666 21.503284,296.973877 
	C25.502375,298.701691 26.871471,301.364014 25.337494,304.257507 
	C23.837961,307.086029 19.722876,308.043671 16.544729,306.304871 
	C14.871524,305.389465 13.895070,303.831238 12.808482,302.351501 
	C11.146007,300.087555 8.645351,299.659851 6.657387,301.160553 
	C4.315074,302.928680 5.986695,304.981689 7.411255,306.696625 
	C13.013640,313.440887 20.196598,315.209869 27.406799,311.662384 
	C31.774746,309.513306 33.800179,306.048981 33.570469,301.192749 
	C33.330509,296.119751 31.269938,293.176666 26.488461,291.419708 
	C23.833252,290.444092 21.040365,289.837799 18.490034,288.582214 
	C16.168028,287.439026 14.153826,285.951141 14.155395,283.015625 
	C14.156557,280.842499 15.595762,279.705688 17.481939,279.169891 
	C20.420364,278.335236 23.448845,278.503448 25.032324,281.342255 
	C26.671045,284.280151 28.760298,285.878632 32.392792,286.184082 
	C35.862770,288.900330 38.109634,292.131989 39.804012,295.769867 
	C40.870358,298.059357 42.439716,299.955078 44.467667,301.959961 
	C45.183155,303.797119 45.036232,305.226562 43.856705,306.380890 
	C42.546448,307.663208 40.976582,308.893738 41.791183,310.977570 
	C42.660854,313.202271 44.848995,312.388550 46.538013,312.645081 
	C47.349583,312.768372 48.174179,312.805756 49.305923,313.163330 
	C53.891129,317.977600 56.556732,323.735748 60.206776,328.830261 
	C66.943810,338.233429 73.473465,347.784637 80.387779,357.062042 
	C81.559227,358.633850 82.940140,360.177124 82.223183,362.706482 
	C56.227898,363.000000 30.455307,362.925537 4.684295,363.093201 
	C1.421834,363.114380 0.920207,362.179077 0.930180,359.201233 
	C1.040996,326.113556 1.000000,293.025360 1.000000,259.468658 
z"/>
<path fill="#3D3D3D" opacity="1.000000" stroke="none" 
	d="
M147.992966,274.967865 
	C145.217789,275.351776 144.482025,273.339691 143.618790,271.919769 
	C141.155350,267.867615 137.890793,264.313232 136.042496,259.510437 
	C150.021606,259.118347 164.046814,259.069641 178.535522,259.094116 
	C183.230392,262.840942 186.886703,266.835144 186.592499,273.351257 
	C185.653091,275.781952 185.758865,277.590698 187.687241,279.057190 
	C188.900223,279.979614 189.939880,281.158264 190.094452,282.723389 
	C190.782227,289.687378 190.653091,296.664520 190.176743,303.634613 
	C190.036560,305.685699 188.259460,306.566284 186.973740,307.853271 
	C184.945419,309.883575 185.650970,311.937927 188.490463,312.348236 
	C191.287048,312.752350 194.147675,312.662445 196.958069,312.427063 
	C200.246490,312.151642 200.890045,310.653656 199.092422,307.792877 
	C198.479691,306.817749 197.571869,306.039276 197.161118,304.911407 
	C195.781921,301.124329 197.319733,298.271759 201.301193,297.648071 
	C203.589325,297.289642 205.888580,296.811279 208.609344,297.014984 
	C212.920593,300.205261 215.148849,304.753204 218.416824,308.461517 
	C224.903275,315.821960 231.933640,322.595093 239.187317,329.670227 
	C239.974503,334.600067 236.445526,337.916016 235.561066,342.376587 
	C240.763748,338.856354 245.243744,341.166626 249.993958,344.059753 
	C252.849838,343.872650 254.728531,345.232208 256.601685,346.593018 
	C261.277863,349.990051 265.144562,354.287811 269.398376,358.154175 
	C270.596588,359.243286 271.784180,360.492950 271.221313,362.698425 
	C252.979111,363.000000 234.958206,363.000000 216.468658,363.000000 
	C213.205688,357.134613 207.574173,353.736725 203.644516,348.853149 
	C203.038757,348.100342 202.197403,347.559509 201.973770,346.160156 
	C200.412903,341.272400 202.711533,337.400024 204.461594,333.639740 
	C205.452240,331.511139 207.092087,332.532867 208.030334,334.455963 
	C209.329254,337.118256 209.208908,340.321442 211.439453,343.074860 
	C214.395035,340.136230 214.193573,336.088470 215.615936,332.887970 
	C215.686005,332.378540 215.710907,332.494720 215.469818,333.004578 
	C214.191132,335.708923 214.976196,340.543304 211.420181,340.666260 
	C208.607864,340.763519 209.197906,336.058960 207.970886,333.628021 
	C207.449768,332.595642 207.085999,331.500732 205.820236,330.555267 
	C203.566116,332.512878 203.529434,335.472870 202.555679,337.964142 
	C202.086685,339.164032 202.057800,340.908325 200.425217,340.955353 
	C198.570068,341.008789 198.294128,339.268158 197.802216,337.836456 
	C197.044571,335.631439 196.533005,333.374176 196.011871,331.179077 
	C195.982010,333.983582 198.098083,336.511414 197.159637,339.747406 
	C191.075470,336.232056 186.944824,330.662384 182.535095,325.530334 
	C179.744522,322.282654 176.264969,319.231506 175.004242,314.431030 
	C179.587982,312.170013 179.864197,308.346558 179.395859,304.197052 
	C179.223541,302.670258 179.002808,301.155334 177.050247,300.895782 
	C175.357498,300.670746 174.132095,301.286224 173.520081,302.937500 
	C172.727707,305.075500 171.467468,306.628418 169.083191,307.207672 
	C162.626175,308.776459 159.617966,306.555328 159.502502,299.897095 
	C159.421890,295.247894 159.465073,290.596680 159.495636,285.946381 
	C159.514557,283.065033 159.685364,280.257568 162.518021,278.497803 
	C163.399841,277.949951 164.090027,277.144196 163.727295,276.019562 
	C163.277466,274.624847 161.947556,274.664032 160.826675,274.604340 
	C156.675552,274.383240 152.527817,274.511627 147.992966,274.967865 
z"/>
<path fill="#373737" opacity="1.000000" stroke="none" 
	d="
M82.468658,363.000000 
	C81.854858,361.268921 81.018242,359.848969 79.984848,358.516876 
	C69.518372,345.025024 60.143360,330.762054 50.484085,316.700592 
	C50.137283,316.195770 50.160042,315.437073 50.004524,314.433044 
	C53.656181,312.007721 53.535164,309.743256 51.849010,305.895294 
	C49.202229,299.855133 50.423859,293.136383 51.132950,286.710846 
	C51.360790,284.646240 52.839134,284.452759 54.237419,286.098694 
	C55.441719,287.516235 56.192444,289.198792 56.851933,290.906708 
	C58.772781,295.881042 60.820713,300.807861 63.056133,305.641052 
	C64.299347,308.328979 64.570015,312.398590 68.806679,312.220612 
	C72.591423,312.061646 72.951508,308.378113 74.171532,305.755524 
	C75.295174,303.340118 76.138985,300.802490 77.167099,298.343567 
	C77.870682,296.660767 78.427170,294.875854 80.454666,293.655945 
	C82.252090,293.405579 83.571854,293.716309 85.105377,294.696411 
	C87.049179,299.015045 86.886383,302.932892 84.894150,306.873901 
	C82.740311,311.134613 83.576279,312.347198 88.501488,312.500244 
	C89.985931,312.546387 91.480881,312.596771 92.955276,312.391602 
	C95.759346,312.001434 97.025116,310.457489 95.180641,308.015381 
	C91.227417,302.781311 92.174324,297.204529 93.773827,291.258789 
	C96.580811,290.982483 96.960884,293.332947 98.160774,294.741730 
	C99.276367,296.051575 99.727814,298.092560 102.372604,297.996094 
	C106.130920,302.238098 108.220345,307.412231 112.141953,311.608093 
	C111.249321,312.506470 111.071411,313.204590 111.656013,314.039917 
	C121.339455,327.876190 131.809067,341.104584 142.578644,354.103760 
	C144.783081,356.764587 146.814911,359.568451 148.963165,362.653198 
	C126.979103,363.000000 104.958214,363.000000 82.468658,363.000000 
z"/>
<path fill="#464747" opacity="1.000000" stroke="none" 
	d="
M333.778351,259.467834 
	C371.687286,259.119659 409.377686,259.072723 447.531799,259.095886 
	C455.308838,263.612305 463.194183,267.015930 470.742432,271.751831 
	C471.000000,290.020905 471.000000,308.041779 471.000000,326.531342 
	C469.008392,328.704407 466.970612,327.833801 464.977692,327.051666 
	C459.165222,324.770538 453.554810,322.013824 447.746094,319.716583 
	C445.370209,318.777008 443.546936,317.147003 442.782654,314.133484 
	C442.567657,310.890076 442.096527,308.371826 439.948792,306.023895 
	C437.509735,303.357483 438.378113,298.561401 440.916351,297.222717 
	C444.080902,295.553772 448.794586,297.016388 450.397888,300.253204 
	C451.675598,302.832611 451.613495,305.758392 452.330872,308.486176 
	C453.259064,312.015442 458.058929,313.943451 461.017822,311.943634 
	C462.872803,310.690002 462.347656,309.025391 461.341553,307.602844 
	C460.087128,305.829224 459.146149,303.921143 458.122314,302.022491 
	C455.550171,297.252533 454.989563,293.354523 458.943604,288.531769 
	C462.923737,283.677155 458.538177,275.786835 451.649200,274.844330 
	C444.727631,273.897339 437.697205,274.478180 430.714111,274.599030 
	C429.736115,274.615967 428.661530,274.814545 428.258240,275.944122 
	C427.749329,277.369354 428.730042,278.140656 429.739532,278.742157 
	C432.092590,280.144196 432.397766,282.416382 432.434998,284.802856 
	C432.518036,290.126923 432.370667,295.454163 432.489441,300.775238 
	C432.583008,304.968658 430.879333,307.420044 426.216980,307.995972 
	C424.660889,308.224091 423.542664,308.137665 422.116241,307.459930 
	C421.514069,306.613831 421.849518,307.335052 421.451355,306.845856 
	C419.969269,305.025146 421.474335,301.310516 417.970642,300.900848 
	C414.216156,300.461792 415.083466,304.223877 413.699524,305.971985 
	C410.951813,309.442780 407.233490,307.392578 403.985321,307.058685 
	C400.742523,306.725342 400.618988,303.864471 400.601288,301.294220 
	C400.580750,298.311859 401.609192,296.166443 404.931427,295.623871 
	C406.612183,295.349365 409.004547,295.554230 408.950623,292.910553 
	C408.896423,290.252747 406.459351,290.649200 404.809509,290.368927 
	C401.451294,289.798370 400.551849,287.641449 400.633850,284.638947 
	C400.722412,281.398407 402.417053,279.766113 405.588837,279.621765 
	C409.273254,279.454071 413.054291,279.048462 414.779236,283.564056 
	C415.346588,285.049164 416.709442,285.265106 418.116608,285.091949 
	C419.779388,284.887329 420.105255,283.618378 420.370117,282.241516 
	C421.495605,276.390381 420.101288,274.561829 414.285339,274.528809 
	C407.973114,274.492950 401.660004,274.462067 395.348206,274.559662 
	C393.886108,274.582245 392.158295,274.399200 391.296387,275.892242 
	C390.266022,277.677002 391.464630,279.019836 392.654175,280.255432 
	C393.901398,281.550903 394.317566,283.087616 393.794800,285.228180 
	C391.883392,287.712341 390.032562,286.716949 388.335846,285.616852 
	C386.251068,284.265167 384.066101,282.996887 382.344849,280.591492 
	C382.005737,275.705719 379.708954,274.717804 375.228333,274.156311 
	C367.703003,273.213318 364.840271,277.316589 362.127625,283.133484 
	C357.661804,283.624878 355.240417,280.332123 352.521698,278.251190 
	C346.214233,273.423462 340.372864,267.973694 334.666656,262.416534 
	C333.938873,261.707794 333.405182,260.869995 333.778351,259.467834 
z"/>
<path fill="#434343" opacity="1.000000" stroke="none" 
	d="
M466.219696,362.694153 
	C442.979095,363.000000 419.958221,363.000000 396.468658,363.000000 
	C378.199554,354.899475 362.855103,342.822144 346.582764,332.267059 
	C340.746552,328.481323 335.040375,324.375549 329.675537,319.866119 
	C327.728790,318.229767 326.275909,316.611816 327.947571,313.673950 
	C330.568573,312.215271 333.111145,312.746216 335.568909,312.539642 
	C339.214874,312.233154 340.314270,310.810913 338.607483,307.775269 
	C335.155243,301.635193 336.928955,295.142975 336.830566,288.777802 
	C336.813873,287.698975 337.104340,286.224396 338.510468,286.096710 
	C339.830811,285.976807 340.468811,287.252991 340.927094,288.299866 
	C343.588928,294.380707 346.042572,300.551514 348.774963,306.601959 
	C349.839661,308.959595 350.320251,311.944183 353.638306,312.295288 
	C357.151642,312.667084 357.820160,309.644196 359.102173,307.406067 
	C359.434845,306.825317 359.852936,306.314270 360.663391,305.608887 
	C363.013000,304.526642 364.866119,304.948059 366.935486,306.347198 
	C367.964783,312.512360 372.289581,312.950287 377.245056,313.099396 
	C390.162689,323.504852 404.351135,331.163818 418.661743,338.599976 
	C432.689697,345.889191 447.403046,351.655975 461.949402,357.790527 
	C464.036011,358.670532 466.534088,359.307251 466.219696,362.694153 
z"/>
<path fill="#444444" opacity="1.000000" stroke="none" 
	d="
M466.499969,363.000000 
	C464.980865,358.326416 460.424103,358.655212 457.358398,357.394226 
	C439.033356,349.856964 420.904480,341.907898 403.620392,332.205658 
	C395.573822,327.688812 387.941864,322.431610 380.145630,317.472809 
	C379.165985,316.849701 378.341064,315.991547 378.041565,314.416870 
	C381.222717,311.657898 382.009888,309.061707 378.736786,306.008362 
	C378.020203,305.339905 377.777252,304.262115 377.710052,303.272552 
	C377.252014,296.527008 377.256897,289.771851 377.690857,283.031189 
	C377.857574,280.441589 379.081573,278.576782 382.573242,279.594666 
	C385.839020,282.158661 388.483948,284.882690 392.566467,285.995270 
	C395.353210,293.210297 396.102875,300.400177 392.165894,307.336426 
	C390.239532,310.730377 390.770325,312.219269 394.732697,312.349579 
	C401.858246,312.583832 408.995026,312.338867 416.123047,312.448730 
	C419.702545,312.503876 420.353516,309.925873 421.753693,307.280457 
	C423.211945,307.001923 424.355072,307.002777 425.926941,307.005829 
	C427.444031,311.617859 430.396729,313.055908 434.954285,312.562744 
	C437.655029,312.270447 440.498291,312.104034 443.501953,313.412964 
	C443.984070,315.434143 444.842194,317.003571 446.430573,317.599304 
	C454.412048,320.592957 461.740906,325.239990 470.602783,326.999237 
	C471.000000,337.699615 470.808136,348.404602 471.109436,359.095734 
	C471.208099,362.597015 470.273621,363.689117 466.499969,363.000000 
z"/>
<path fill="#414141" opacity="1.000000" stroke="none" 
	d="
M327.759735,313.748108 
	C326.970551,318.880524 331.691223,320.016876 333.970825,321.556030 
	C343.478455,327.975342 352.391724,335.222687 362.358612,341.079559 
	C368.575256,344.732727 374.885773,348.671265 380.597870,353.307190 
	C384.558411,356.521545 389.376770,358.200806 394.017548,360.157898 
	C395.001923,360.573029 395.678955,361.210236 395.953979,362.637146 
	C379.979095,363.000000 363.958221,363.000000 347.468658,363.000000 
	C334.504639,354.764069 322.449677,345.919678 310.741608,336.605499 
	C308.706207,334.986267 306.208435,333.708649 305.392456,330.564453 
	C305.626648,329.046234 305.208740,328.448395 303.942871,328.357178 
	C302.347778,328.242218 300.711792,328.310852 298.888977,327.431458 
	C296.441162,324.923218 294.168976,322.751343 291.836365,320.625610 
	C289.821289,318.789276 288.191284,316.630737 290.260803,313.432617 
	C291.056580,313.009094 291.518066,312.820740 292.011017,312.740204 
	C298.324921,311.708588 299.176361,310.608002 298.380219,304.460632 
	C298.189331,302.986694 298.152283,301.388397 296.249786,300.966156 
	C294.303772,300.534241 293.063416,301.372284 292.398590,303.186859 
	C291.447632,305.782471 289.619812,307.110260 286.839996,307.422272 
	C280.683228,308.113312 278.635834,306.456085 278.497681,300.202271 
	C278.384277,295.069763 278.411377,289.933472 278.504944,284.799408 
	C278.555634,282.019867 279.009949,279.452759 282.583374,278.381500 
	C284.835815,277.826599 286.808380,277.825500 288.032227,279.362457 
	C290.643951,282.642242 294.461884,284.578125 297.165588,287.543823 
	C300.312134,290.995300 303.821045,293.877991 307.592041,297.102081 
	C308.785309,301.099701 308.773743,304.395264 305.945770,307.558258 
	C303.480591,310.315491 304.590240,312.302063 308.496490,312.459381 
	C312.278656,312.611694 316.086060,312.782318 320.243927,312.079224 
	C321.687988,311.828003 322.750610,311.806305 324.216705,311.980225 
	C325.677429,312.308167 326.659241,312.738251 327.759735,313.748108 
z"/>
<path fill="#3F4040" opacity="1.000000" stroke="none" 
	d="
M289.726440,313.769531 
	C290.006683,316.900757 291.257690,318.829254 293.637543,320.487091 
	C295.831940,322.015839 298.152252,323.725037 298.980469,326.962036 
	C297.068939,329.053131 296.697784,331.285431 297.099670,333.676086 
	C297.461853,335.830414 297.532227,337.952393 297.129578,340.103241 
	C296.464935,343.653870 297.510284,345.701813 301.170258,344.997681 
	C299.287476,345.064972 297.166473,344.776184 297.131531,341.841980 
	C297.093231,338.625641 298.949005,337.032196 302.038635,336.682922 
	C301.322052,335.926727 300.231476,336.143188 299.390594,335.670685 
	C297.779785,334.765533 296.898407,333.478241 297.171844,331.603943 
	C297.468719,329.569244 299.028381,329.000458 300.765533,328.788147 
	C302.429565,328.584747 304.087433,328.597565 305.788574,329.839844 
	C308.811188,334.551361 313.371796,337.036530 317.351074,340.122345 
	C326.490265,347.209564 335.687531,354.231689 345.524170,360.359650 
	C346.150421,360.749817 346.462616,361.644165 346.960449,362.651978 
	C330.979095,363.000000 314.958221,363.000000 298.468658,363.000000 
	C291.900482,356.826538 284.399902,352.363129 277.726685,346.338531 
	C276.524445,344.547791 275.923218,342.829529 275.023163,341.258545 
	C273.927551,339.346222 273.945007,337.485352 275.594177,335.851929 
	C276.935425,334.523468 278.238953,333.166626 276.815979,331.182709 
	C275.185242,328.909088 272.518036,328.994446 270.151794,328.551910 
	C267.932953,328.136932 267.425659,329.836151 267.055420,331.529266 
	C266.985474,331.849121 266.846100,332.151428 266.510071,332.754669 
	C265.190765,333.885559 264.084717,333.638000 263.153320,332.827484 
	C257.572144,327.970520 252.361206,322.729401 247.306885,317.332977 
	C246.627472,316.607605 246.303116,315.641571 246.468597,314.232666 
	C247.037613,312.957733 247.786484,312.306366 248.645218,311.808777 
	C255.610733,307.772461 259.310242,301.746155 259.753601,293.708954 
	C259.799103,292.883331 260.020813,292.086731 260.644836,291.039612 
	C265.483673,290.125122 267.634735,294.528931 271.536499,296.138519 
	C272.797241,300.591736 273.474213,304.628479 269.390076,307.656708 
	C268.388062,308.399658 267.800262,309.359344 268.157623,310.630432 
	C268.614410,312.255188 270.076630,312.289978 271.356079,312.369324 
	C275.134369,312.603760 278.921814,312.407745 282.704224,312.486511 
	C284.988770,312.534027 287.334534,312.239227 289.726440,313.769531 
z"/>
<path fill="#3D3E3E" opacity="1.000000" stroke="none" 
	d="
M246.718292,313.738800 
	C248.187225,318.342621 252.454529,320.012482 254.986526,323.178864 
	C257.992035,326.937408 261.842285,329.738129 265.702576,332.962616 
	C268.250854,335.552582 266.899536,338.670837 267.530426,341.437073 
	C268.098694,339.997620 267.880676,337.789612 270.111389,337.449310 
	C272.298553,337.115662 273.139160,338.891693 274.207336,340.367981 
	C275.454468,342.091583 276.309357,344.069183 278.019104,345.865204 
	C281.326599,346.150024 282.943939,348.534821 284.580933,350.416809 
	C288.539154,354.967407 295.530731,356.059479 297.961487,362.649078 
	C289.312439,363.000000 280.624878,363.000000 271.468658,363.000000 
	C265.772156,355.351959 259.223999,349.180634 250.526245,345.007019 
	C246.270432,342.563782 246.294144,337.921509 244.217239,334.464874 
	C243.139923,332.671906 243.214157,329.531006 239.406158,330.124878 
	C238.443710,329.843445 237.631531,329.863098 237.211929,329.466980 
	C227.615570,320.407410 218.230652,311.144928 210.385361,300.468292 
	C210.034714,299.991119 210.106293,299.203705 209.962036,298.182007 
	C209.956451,296.001495 211.526382,295.398712 212.576080,294.402679 
	C216.199860,290.964203 217.330139,286.735443 215.794724,282.099152 
	C214.222351,277.351196 210.448792,274.979858 205.578629,274.560822 
	C201.266373,274.189850 196.925323,274.501160 192.598450,274.411530 
	C190.458862,274.367279 188.238464,274.683380 186.157959,272.964172 
	C185.534378,267.352722 181.472748,264.052307 179.045135,259.504852 
	C191.022598,259.119080 203.046188,259.070831 215.533340,259.094177 
	C221.020813,264.087463 225.772049,269.222046 228.848328,276.022400 
	C228.526443,278.084656 227.550446,279.428925 226.596878,280.792877 
	C221.702286,287.794067 220.782715,295.330109 224.740768,302.878967 
	C228.824783,310.668060 235.482803,314.394562 244.494354,313.171753 
	C245.165085,313.080750 245.812500,313.242157 246.718292,313.738800 
z"/>
<path fill="#4A4B4B" opacity="1.000000" stroke="none" 
	d="
M471.000000,271.536804 
	C462.627258,269.340515 455.040802,265.199310 448.046326,259.506348 
	C455.351227,259.109283 462.707001,259.052582 470.531372,258.997925 
	C471.000000,263.024536 471.000000,267.049103 471.000000,271.536804 
z"/>
<path fill="#434343" opacity="1.000000" stroke="none" 
	d="
M325.278717,312.725006 
	C323.933197,313.000305 322.878693,313.000305 321.428802,313.000732 
	C313.749573,304.457397 315.400543,294.233215 315.653687,284.280243 
	C315.707214,282.175995 317.018280,280.657867 318.166504,279.002899 
	C319.836212,276.596375 319.135284,274.868927 316.083313,274.625854 
	C313.276917,274.402374 310.444733,274.365234 307.640839,274.668945 
	C304.807068,274.975952 304.205292,276.812836 305.739899,278.832642 
	C309.948456,284.371796 308.713440,290.360992 307.385681,296.696167 
	C302.882629,295.901917 300.247955,292.801270 297.337952,289.800690 
	C293.565552,285.910889 289.206329,282.590210 284.755432,279.015686 
	C282.192505,277.888428 282.750336,274.184448 279.326935,273.724121 
	C276.094696,270.187256 273.321686,266.692871 270.067993,263.626526 
	C268.971680,262.593353 267.926727,261.483521 268.764954,259.458557 
	C290.355499,259.119812 311.712433,259.072479 333.533081,259.095856 
	C334.021790,261.235809 335.960785,261.606720 337.078369,262.739685 
	C344.393738,270.155670 352.403534,276.740997 361.136658,283.013428 
	C362.149780,289.797272 358.394165,295.127563 355.925140,300.769440 
	C354.782471,303.380554 353.221069,301.375275 352.417053,299.942169 
	C349.732666,295.157471 347.803558,290.021423 345.670898,284.981628 
	C345.412537,284.371033 345.220337,283.733490 344.989777,283.111298 
	C341.793884,274.486847 338.428619,272.640350 329.541901,274.589417 
	C326.859161,275.177826 325.930420,276.610626 328.040314,278.658722 
	C330.209625,280.764435 330.436737,283.260803 330.451813,285.948700 
	C330.455536,286.615234 330.455231,285.779846 330.451813,286.446381 
	C330.405670,295.410736 331.825989,304.651184 325.278717,312.725006 
z"/>
<path fill="#373737" opacity="1.000000" stroke="none" 
	d="
M22.184395,271.670166 
	C22.584467,266.900452 19.707994,263.599304 18.045006,259.517639 
	C37.688072,259.117950 57.379509,259.069855 77.534515,259.094482 
	C77.948624,264.077789 82.622696,267.132202 82.995026,272.241760 
	C78.182228,279.166748 76.687851,287.191681 73.386780,294.420319 
	C72.902840,295.480072 72.573601,296.608795 72.090210,297.667328 
	C71.417740,299.139954 71.092934,301.189636 69.086395,301.251678 
	C66.841324,301.321106 66.254433,299.196869 65.543739,297.560822 
	C63.022240,291.756165 60.925999,285.774902 58.355629,279.990265 
	C56.158730,275.046173 47.915928,272.310486 43.213806,274.894073 
	C41.331902,275.928101 41.829090,277.250061 42.713322,278.643616 
	C47.402992,286.034729 45.637592,293.878296 43.960052,301.846924 
	C41.774265,301.720184 40.663094,300.480835 40.013847,298.944092 
	C38.281494,294.843658 35.717701,291.283051 33.039787,287.412933 
	C35.558189,283.442474 34.815304,280.720703 31.428770,277.773468 
	C28.629362,275.337250 25.234684,274.116882 22.184395,271.670166 
z"/>
<path fill="#414141" opacity="1.000000" stroke="none" 
	d="
M268.534943,259.094971 
	C268.796204,262.574677 272.088043,263.588257 273.792358,265.496765 
	C275.637207,267.562683 277.404602,269.613586 278.933716,272.272705 
	C276.826538,275.579163 273.545471,274.098541 270.767822,274.615021 
	C268.027649,275.124542 267.156860,276.332855 269.252106,278.539032 
	C274.203949,283.753113 272.931152,289.666046 270.962219,295.823334 
	C266.602478,296.277771 264.902649,292.478119 261.511963,291.047363 
	C259.729431,290.147278 259.616455,288.562927 259.119507,287.199799 
	C254.612854,274.838898 243.685150,270.275238 231.757446,275.792206 
	C230.859589,276.207458 229.991638,276.687622 228.602249,276.653259 
	C225.960556,271.273926 221.656845,267.466797 218.129532,263.095062 
	C217.296875,262.063110 216.501801,261.105743 216.043350,259.509094 
	C233.355042,259.118103 250.713165,259.070465 268.534943,259.094971 
z"/>
<path fill="#3AB48A" opacity="1.000000" stroke="none" 
	d="
M212.643372,5.044961 
	C213.504410,4.880498 213.939102,4.928982 214.699402,5.021449 
	C215.337921,5.320308 215.688614,5.505125 216.349762,5.744099 
	C217.569305,6.213069 218.524094,6.517664 219.791489,6.782127 
	C220.053177,6.933195 220.031555,6.991035 220.048431,6.960938 
	C222.753342,9.202132 225.931473,10.697598 228.906998,12.513498 
	C232.797516,14.887801 234.840286,17.925112 233.942856,22.862358 
	C232.657669,29.932690 234.035156,37.172531 233.018295,44.674671 
	C232.414078,46.151031 231.436707,46.682686 230.525497,45.989944 
	C226.972351,43.288681 225.246201,45.796436 223.397141,48.258102 
	C221.211761,51.167492 219.141266,54.171993 216.781433,56.938385 
	C215.582275,58.344135 214.314743,60.465931 211.732788,57.986122 
	C210.335999,55.338085 210.376862,52.840748 210.370026,50.368408 
	C210.335342,37.819122 210.320297,25.269629 210.381989,12.720519 
	C210.394775,10.117498 210.090149,7.370306 212.643372,5.044961 
z"/>
<path fill="#22A99A" opacity="1.000000" stroke="none" 
	d="
M184.553635,8.892484 
	C186.106094,6.691813 188.222855,6.102581 190.387558,4.997875 
	C190.929199,4.788900 191.148834,4.700560 191.716141,4.683465 
	C194.154205,9.277291 193.525970,14.158859 193.590729,18.856560 
	C193.814453,35.088486 193.689713,51.325531 193.639084,67.560341 
	C193.618927,74.021217 194.689636,80.447205 194.103470,87.293098 
	C192.906479,91.329521 190.461533,94.224876 188.269958,97.245003 
	C187.373947,98.479759 186.250717,100.039742 183.988068,98.326141 
	C182.344833,95.740616 182.371246,93.223015 182.370102,90.739006 
	C182.358383,65.177422 182.285889,39.615784 182.394302,13.588342 
	C182.136108,11.415983 182.824844,10.125208 184.553635,8.892484 
z"/>
<path fill="#2FAF91" opacity="1.000000" stroke="none" 
	d="
M192.362823,5.289343 
	C191.780823,5.003973 191.565918,4.985888 191.030304,4.922522 
	C197.926239,1.087502 205.275208,1.417357 212.885880,4.501466 
	C212.137939,6.478497 211.979477,8.258386 211.983688,10.120386 
	C212.016052,24.407948 212.022079,38.695679 211.976730,52.983170 
	C211.970810,54.852383 212.312408,56.600845 213.000336,58.753860 
	C212.174713,65.637894 207.421921,69.570663 203.335083,73.911430 
	C202.749435,74.533432 201.801300,74.207603 201.098907,72.985962 
	C200.005966,68.987488 200.406235,65.304840 200.395172,61.653851 
	C200.348755,46.327862 200.376465,31.001652 200.375198,15.675523 
	C200.374496,7.257593 200.372833,7.257593 192.362823,5.289343 
z"/>
<path fill="#54C375" opacity="1.000000" stroke="none" 
	d="
M248.789490,29.195787 
	C259.261810,38.044811 268.017670,48.506054 276.406677,59.691628 
	C276.129974,60.370930 275.646576,60.595703 274.681641,60.602921 
	C272.080414,59.820320 271.028503,57.814903 269.530975,56.290440 
	C268.535614,55.277191 267.678497,53.505775 265.959625,54.218613 
	C264.367767,54.878784 264.545013,56.734097 264.510101,58.192860 
	C264.339081,65.337189 264.482422,72.483978 264.423523,79.629456 
	C264.403076,82.113213 264.655212,84.621635 263.759155,87.422745 
	C261.796326,89.616035 260.473846,88.168953 259.482941,86.945229 
	C256.257904,82.962593 252.991470,78.977654 251.213898,73.621170 
	C252.005280,61.798595 250.860382,50.355534 251.911301,38.957195 
	C252.077133,37.158588 250.917145,35.863152 249.951233,34.521328 
	C248.876266,33.028015 247.783920,31.539783 248.789490,29.195787 
z"/>
<path fill="#46BB81" opacity="1.000000" stroke="none" 
	d="
M231.554977,47.117561 
	C231.758621,39.952209 230.710495,32.890095 232.273743,26.463150 
	C234.571838,17.015024 229.566910,13.209933 222.646439,9.812182 
	C221.643478,9.319758 220.435318,8.964445 220.098846,7.277598 
	C230.341522,11.170731 238.470596,18.291460 246.064819,26.576679 
	C244.064041,31.593763 244.698822,36.570511 244.514236,41.475876 
	C244.311340,46.867611 245.381256,52.344784 243.324097,57.995964 
	C241.710693,60.066254 240.094543,59.809235 238.935852,58.332909 
	C236.229385,54.884548 232.583496,52.055866 231.554977,47.117561 
z"/>
<path fill="#6DB559" opacity="1.000000" stroke="none" 
	d="
M274.738586,60.303108 
	C275.311798,59.998627 275.661835,59.996204 276.273193,59.984509 
	C295.376160,85.332382 310.521057,112.557449 314.459503,144.382675 
	C316.896149,164.072678 316.223816,183.907166 307.006104,202.732483 
	C306.619751,203.321320 306.424194,203.597122 306.139221,204.109467 
	C306.051819,204.347443 306.086670,204.711975 305.972656,204.855286 
	C305.002502,205.542435 304.282440,206.393005 302.823425,205.942413 
	C301.751678,204.040497 302.384125,202.514938 303.002991,200.594055 
	C315.854706,171.615036 313.154816,143.049606 302.752502,114.173164 
	C300.983734,108.750854 298.318146,104.143471 296.049744,98.962631 
	C294.008942,92.940750 290.353973,88.177223 287.503967,82.590958 
	C283.951569,76.107635 280.319061,70.102249 275.480225,64.459106 
	C274.666199,63.049683 274.177795,61.915001 274.738586,60.303108 
z"/>
<path fill="#4DBF7B" opacity="1.000000" stroke="none" 
	d="
M241.579285,60.008545 
	C244.349014,50.741879 242.456741,41.601223 242.964569,32.576717 
	C243.087631,30.389713 242.818100,28.200583 245.792267,27.077923 
	C247.295959,26.875219 248.059250,27.556942 248.924896,28.589733 
	C249.208282,29.832438 248.995987,31.306702 249.544312,31.688488 
	C254.325241,35.017216 253.481003,39.569324 253.107681,44.434090 
	C252.375351,53.976624 253.762650,63.599838 252.197525,73.521622 
	C246.608566,70.863655 243.878830,65.739288 241.579285,60.008545 
z"/>
<path fill="#138993" opacity="1.000000" stroke="none" 
	d="
M184.640503,8.724314 
	C184.376175,9.604554 183.800140,10.540991 183.104279,11.736112 
	C180.911560,16.199421 177.271652,19.468758 175.647308,24.367367 
	C171.682480,32.210625 169.700211,40.289520 167.996613,48.863945 
	C164.907394,60.584843 162.367981,72.038445 159.405746,83.799156 
	C157.066071,94.131813 155.106628,104.142326 152.273102,114.357643 
	C150.572052,118.038902 151.043076,122.106781 147.975510,125.174332 
	C147.361633,125.386047 147.096680,125.405258 146.491852,125.216522 
	C148.683899,110.472549 152.529785,96.231834 156.045639,81.925728 
	C160.298370,64.621277 163.150635,46.957439 169.063385,30.075144 
	C171.104889,24.246193 173.805145,18.719488 177.920486,14.029871 
	C179.751022,11.943872 181.311661,9.450143 184.640503,8.724314 
z"/>
<path fill="#2B775F" opacity="1.000000" stroke="none" 
	d="
M243.013916,251.426056 
	C208.839844,257.250031 181.496368,245.438004 159.734772,218.810913 
	C159.629379,218.256577 159.659836,218.005920 160.037201,217.606995 
	C163.318710,217.461746 164.379349,220.015762 166.354996,221.917786 
	C170.043015,226.269547 173.973358,229.754257 179.181412,232.202484 
	C183.794113,235.278442 187.874680,238.572113 193.273468,240.325699 
	C198.957764,243.609619 204.845413,245.098007 211.247620,246.301025 
	C218.745575,249.504578 226.196259,249.981186 233.772278,249.064682 
	C236.068497,248.786911 238.323059,248.513412 241.023834,248.995438 
	C242.261353,249.497955 242.807648,250.121414 243.013916,251.426056 
z"/>
<path fill="#428654" opacity="1.000000" stroke="none" 
	d="
M302.657288,206.064682 
	C303.746948,205.681503 304.498047,205.373154 305.553894,205.031693 
	C294.427643,228.625122 275.380219,242.921326 250.556961,250.142288 
	C249.622696,250.414047 248.690033,250.691360 247.365631,250.944366 
	C246.626846,250.524902 246.359177,250.079056 246.115463,249.196442 
	C246.078339,248.283829 246.193176,247.782227 246.629974,246.994553 
	C249.988846,244.710770 254.004486,245.115295 257.352417,242.705185 
	C261.732605,240.722015 266.357666,240.098541 270.005981,236.595825 
	C274.443176,233.961121 278.835724,231.874695 282.319458,227.892334 
	C287.560272,224.318268 291.446228,219.877930 295.254333,214.876022 
	C298.675934,212.532288 299.323547,208.384399 302.657288,206.064682 
z"/>
<path fill="#04798C" opacity="1.000000" stroke="none" 
	d="
M161.374084,217.645905 
	C160.883575,218.026352 160.621841,218.108414 159.979523,218.348862 
	C159.598923,218.507248 159.613113,218.461243 159.609192,218.437622 
	C159.797195,217.952621 159.666138,217.594223 158.934723,217.241547 
	C158.300858,217.089600 158.094101,216.904297 157.955750,216.389709 
	C157.581924,215.624786 157.540451,214.959808 156.926666,214.330475 
	C156.613922,214.266968 156.732544,214.203888 156.719131,214.269714 
	C156.799561,213.932068 156.668091,213.613419 156.095612,213.221909 
	C147.470886,200.902695 142.666290,187.475800 142.002136,172.686829 
	C141.406586,159.425781 142.070663,146.207428 144.048370,133.070786 
	C144.166290,132.287476 144.639877,131.557693 145.056549,130.407562 
	C145.452484,129.960358 145.739807,129.908600 146.328583,130.173996 
	C148.726608,135.942368 146.722305,141.322510 146.179703,146.678894 
	C144.401703,164.230957 145.382599,181.407272 152.289658,198.311981 
	C153.774628,201.696808 155.146439,204.684204 157.504578,207.546906 
	C158.665985,211.165237 162.145218,213.431244 161.374084,217.645905 
z"/>
<path fill="#2B775F" opacity="1.000000" stroke="none" 
	d="
M246.580002,248.635544 
	C246.934875,249.307449 246.959457,249.768585 246.979340,250.576172 
	C246.570358,250.971191 246.166092,251.019760 245.451538,251.068665 
	C244.128952,251.570648 243.781876,250.904358 243.533630,249.741577 
	C243.714493,249.132385 243.857193,248.913147 244.351440,248.518906 
	C245.225677,248.234283 245.741272,248.261215 246.580002,248.635544 
z"/>
<path fill="#46BB81" opacity="1.000000" stroke="none" 
	d="
M219.850449,6.676097 
	C218.860962,6.799908 217.668762,6.666622 216.229279,6.269706 
	C215.859879,5.854790 215.737778,5.703505 215.798340,5.324888 
	C217.203232,5.538037 218.425476,5.978519 219.850449,6.676097 
z"/>
<path fill="#04798C" opacity="1.000000" stroke="none" 
	d="
M146.049866,125.338120 
	C146.151962,125.008568 146.615265,124.999275 146.846954,124.996399 
	C148.207260,126.155243 148.061600,127.416832 147.066986,128.987885 
	C146.499084,129.305984 146.234955,129.357315 145.629456,129.193298 
	C145.507996,127.874512 145.727875,126.771095 146.049866,125.338120 
z"/>
<path fill="#428654" opacity="1.000000" stroke="none" 
	d="
M243.733582,248.794678 
	C244.201813,249.580353 244.406921,250.156235 244.876648,250.900558 
	C244.853775,251.754578 244.301941,251.987122 243.282974,251.910614 
	C242.687607,251.358612 242.411804,250.862717 242.027710,250.104248 
	C241.857468,249.626419 241.795547,249.411179 241.946716,248.935791 
	C242.587097,248.506790 243.024445,248.483444 243.733582,248.794678 
z"/>
<path fill="#2B775F" opacity="1.000000" stroke="none" 
	d="
M156.697510,214.556519 
	C157.355942,214.359512 157.769165,214.790298 157.908722,215.845428 
	C157.540512,215.732956 157.160797,215.289520 156.697510,214.556519 
z"/>
<path fill="#428654" opacity="1.000000" stroke="none" 
	d="
M306.246338,204.170944 
	C306.179565,204.029663 306.307312,203.711884 306.624207,203.219116 
	C306.689178,203.360886 306.565033,203.677658 306.246338,204.170944 
z"/>
<path fill="#2FAF91" opacity="1.000000" stroke="none" 
	d="
M215.744598,5.012381 
	C215.980988,5.097554 215.991455,5.551763 215.986725,5.778919 
	C215.679977,5.905002 215.431580,5.728483 215.130920,5.270975 
	C215.186111,5.019357 215.347168,4.973282 215.744598,5.012381 
z"/>
<path fill="#2B775F" opacity="1.000000" stroke="none" 
	d="
M155.906128,213.340027 
	C156.122742,213.309006 156.395752,213.542450 156.687241,214.055725 
	C156.457993,214.091858 156.210266,213.848160 155.906128,213.340027 
z"/>
<path fill="#2B775F" opacity="1.000000" stroke="none" 
	d="
M158.710480,217.418365 
	C158.937576,217.371643 159.263580,217.584351 159.597427,218.105530 
	C159.339981,218.168594 159.074692,217.923203 158.710480,217.418365 
z"/>
<path fill="#138993" opacity="1.000000" stroke="none" 
	d="
M145.180847,129.227386 
	C145.288101,128.977936 145.660721,128.974289 145.846909,128.981445 
	C146.135757,129.151718 146.238419,129.314835 146.185593,129.721710 
	C146.030106,129.965454 145.597656,129.990082 145.381409,130.001099 
	C145.134628,129.833694 145.104111,129.655258 145.180847,129.227386 
z"/>
<path fill="#E5FAF7" opacity="1.000000" stroke="none" 
	d="
M43.686646,302.411896 
	C43.669373,295.702484 43.760860,289.401031 43.799553,283.099243 
	C43.806259,282.007355 44.131733,280.466705 42.485611,280.325317 
	C37.709404,279.915070 39.921570,276.281982 40.047558,274.281921 
	C40.212929,271.656708 42.937485,272.906158 44.487835,272.882660 
	C56.818455,272.695587 56.816399,272.744781 61.536972,284.202698 
	C63.844765,289.804291 66.165115,295.400726 68.965965,302.175446 
	C72.570427,292.818237 75.745262,284.569397 78.926720,276.323120 
	C79.550880,274.705353 79.617554,272.551758 82.614388,272.697144 
	C86.647141,272.677917 90.298752,272.708435 93.946342,272.845917 
	C95.169479,272.892029 96.984047,272.219971 97.320808,274.005463 
	C97.648514,275.743011 97.799469,278.982513 97.186623,279.200897 
	C91.261887,281.311737 94.789764,286.134491 93.873703,289.600708 
	C93.832977,289.754791 93.877556,289.931427 93.975555,290.549316 
	C93.998871,295.135712 93.900307,299.270142 93.876732,303.404999 
	C93.869652,304.646179 93.504982,306.037415 95.483391,306.457642 
	C99.046844,307.214661 97.449234,310.159973 97.403992,312.128082 
	C97.345261,314.682922 95.002808,313.744080 93.530617,313.823151 
	C91.218582,313.947205 88.884979,313.985504 86.579803,313.808655 
	C85.079330,313.693573 82.621170,314.855652 82.295059,312.781860 
	C81.972633,310.731445 80.897789,308.416412 83.560715,306.168060 
	C86.599495,303.602386 84.198235,299.358521 84.691315,295.459106 
	C83.432091,293.121063 83.436470,291.096863 83.973373,288.668091 
	C84.143822,287.899231 84.331177,287.497620 84.397888,287.081848 
	C84.461876,286.683044 84.366531,286.658295 84.259918,287.292847 
	C83.579689,289.632568 82.805656,291.638550 81.094055,293.483276 
	C78.790504,298.354279 76.895409,303.131561 74.753204,307.795319 
	C73.553131,310.407928 73.549500,313.773987 68.802704,313.761658 
	C64.278145,313.749878 63.795868,310.925140 62.598568,308.087616 
	C59.458412,300.645721 56.283684,293.218384 52.183605,285.960449 
	C52.183605,291.833832 52.174728,297.707275 52.191372,303.580597 
	C52.194561,304.706024 52.024284,305.821350 53.517471,306.428345 
	C56.627449,307.692566 55.166031,310.484772 54.967167,312.483002 
	C54.720474,314.961853 52.259464,313.398438 50.425896,313.975647 
	C48.040146,313.999969 46.064369,314.066345 44.129009,313.817902 
	C42.595821,313.621124 39.941593,314.985046 39.964611,312.069061 
	C39.980049,310.113098 37.979076,306.881836 42.270691,306.361908 
	C44.477974,306.094452 43.633511,304.163055 43.686646,302.411896 
z"/>
<path fill="#E4F9F6" opacity="1.000000" stroke="none" 
	d="
M112.464249,312.022552 
	C107.721870,308.469543 104.318565,304.301056 102.856247,298.356049 
	C102.065285,291.149567 102.192009,284.325470 107.286453,279.027466 
	C115.400917,270.588776 125.633720,269.606445 134.114929,276.019135 
	C142.357300,282.251251 144.754745,295.048065 139.421585,304.344025 
	C133.878693,314.005493 123.498901,317.024170 112.464249,312.022552 
z"/>
<path fill="#E5FAF7" opacity="1.000000" stroke="none" 
	d="
M147.685822,275.439636 
	C147.784500,272.570770 149.556122,272.808990 151.231339,272.818878 
	C154.728317,272.839569 158.226212,272.783966 161.722336,272.842499 
	C163.418427,272.870880 165.800827,272.192169 165.499649,275.221680 
	C165.305618,277.173279 166.976334,280.282318 162.794662,280.218933 
	C160.302414,280.181152 161.057281,282.214569 161.042770,283.520630 
	C160.972473,289.847961 161.143784,296.180664 160.948471,302.502747 
	C160.859055,305.397247 161.449081,307.034424 164.704636,306.457092 
	C167.581573,305.946899 172.111374,308.208191 171.931091,302.465088 
	C171.845871,299.751282 172.537582,298.881165 175.439728,298.696594 
	C179.768188,298.421326 181.661957,299.608429 180.895630,304.141174 
	C180.621918,305.760193 180.630280,307.500488 180.894867,309.122620 
	C181.584045,313.348053 179.482422,314.373688 175.420929,313.975952 
	C167.207520,313.998718 159.415955,313.965790 151.626358,313.824921 
	C150.178665,313.798737 147.803879,314.672852 147.931885,311.981812 
	C148.023804,310.049866 146.198181,306.942688 150.000397,306.498505 
	C152.326614,306.226807 151.972275,304.746674 151.975540,303.314575 
	C151.990631,296.679169 151.973160,290.043671 151.987122,283.408234 
	C151.990707,281.703979 152.164108,280.188293 149.580597,280.108612 
	C146.471115,280.012726 148.347687,277.321655 147.685822,275.439636 
z"/>
<path fill="#0AC288" opacity="1.000000" stroke="none" 
	d="
M197.045990,340.351074 
	C196.115250,336.959290 195.282745,333.923737 194.528900,330.868744 
	C194.244553,329.716400 193.084854,328.111725 195.220566,327.668549 
	C196.962814,327.307037 196.709106,328.998444 196.977844,330.045959 
	C197.868317,333.516998 198.761887,336.987244 200.003815,341.817139 
	C201.588943,337.087860 202.760162,333.691406 203.855469,330.270660 
	C204.222763,329.123566 204.491531,327.947296 205.985825,327.943665 
	C207.488937,327.940033 207.737152,329.085327 208.078278,330.266510 
	C209.079620,333.733795 210.195251,337.168121 211.403519,341.057648 
	C214.416016,336.840271 213.427200,331.372986 216.693481,327.877167 
	C217.195541,328.052032 217.697617,328.226898 218.199692,328.401764 
	C216.441940,333.953308 214.938858,339.605896 212.796539,345.004852 
	C211.981552,347.058746 210.453400,345.971527 209.897583,344.157013 
	C208.789719,340.540344 207.686859,336.922089 206.337448,332.503967 
	C203.690201,336.846039 203.242630,341.095398 201.959534,345.425995 
	C197.318726,346.912537 198.494125,342.645874 197.045990,340.351074 
z"/>
<path fill="#0AC288" opacity="1.000000" stroke="none" 
	d="
M176.502426,345.471863 
	C175.265839,341.051147 171.888855,342.271362 169.099411,341.695923 
	C165.362976,340.925110 165.476639,345.607056 161.713837,345.959045 
	C164.349548,339.881439 166.680038,334.321930 169.190063,328.844666 
	C169.853638,327.396637 171.314468,326.885162 172.148575,328.717804 
	C174.480911,333.842224 176.719757,339.015259 178.781738,344.253265 
	C179.472397,346.007721 178.089081,346.089050 176.502426,345.471863 
z"/>
<path fill="#E5FAF7" opacity="1.000000" stroke="none" 
	d="
M21.590120,271.407837 
	C27.384888,271.948578 30.730917,276.122955 34.926498,278.766785 
	C36.901897,280.011566 36.042206,285.151642 33.389954,286.971863 
	C29.416700,286.854736 25.495928,287.754791 24.575134,282.220612 
	C24.240713,280.210632 21.305676,279.691345 18.994844,279.895020 
	C17.049604,280.066467 15.325788,280.606964 14.964275,282.847382 
	C14.614804,285.013184 15.772008,286.320068 17.724588,286.984497 
	C20.870640,288.055023 24.038750,289.060638 27.186594,290.126038 
	C31.450548,291.569183 34.381069,294.306274 35.042084,298.901520 
	C35.748585,303.812958 34.609566,308.174957 30.542673,311.409821 
	C23.926538,316.672363 13.228728,315.842621 8.190991,309.090698 
	C6.915508,307.381226 3.611496,307.951447 4.057344,305.125092 
	C4.379402,303.083435 2.534144,299.441223 5.427849,299.322876 
	C8.271384,299.206573 13.213331,295.859436 14.347865,302.547150 
	C14.911137,305.867432 20.133947,307.279449 23.108553,305.522766 
	C25.826918,303.917328 25.766951,300.274170 22.786427,298.789551 
	C20.427685,297.614594 17.822943,296.924927 15.311168,296.067383 
	C7.964746,293.559235 4.487448,289.051971 5.043304,282.710907 
	C5.593217,276.437622 9.996890,272.566254 17.691607,271.635254 
	C18.843885,271.495880 20.013649,271.501007 21.590120,271.407837 
z"/>
<path fill="#E4F9F6" opacity="1.000000" stroke="none" 
	d="
M185.602814,272.742554 
	C192.153519,272.680664 198.312424,272.656281 204.463150,272.868744 
	C210.964859,273.093353 216.264267,277.034119 217.680786,282.416504 
	C219.147659,287.990173 216.302109,293.788330 210.159668,297.551575 
	C207.470230,298.057312 204.982407,298.214752 202.530396,298.600128 
	C200.944168,298.849487 198.233627,297.470490 198.092041,300.083008 
	C197.977280,302.200439 195.962036,305.316925 200.123550,306.647430 
	C202.898300,307.534607 201.420288,310.376556 201.409683,312.327850 
	C201.399155,314.267181 199.587326,313.831573 198.335724,313.843872 
	C194.680252,313.879822 191.023895,313.827332 187.368454,313.864746 
	C185.576309,313.883087 183.820129,313.815765 184.188721,311.349274 
	C184.459305,309.538635 182.751984,306.587311 186.484940,306.476501 
	C189.039978,306.400696 188.821075,304.720245 188.818268,303.032257 
	C188.807510,296.551453 188.838806,290.070404 188.787186,283.589996 
	C188.777512,282.376282 189.349365,280.630493 187.458359,280.320557 
	C181.517868,279.346924 184.430222,275.817902 185.602814,272.742554 
z"/>
<path fill="#0AC288" opacity="1.000000" stroke="none" 
	d="
M239.022568,330.380157 
	C240.805679,327.453400 242.313416,326.906555 243.724335,330.336517 
	C245.663895,335.051575 247.747253,339.707458 249.968857,344.694580 
	C249.332123,346.355255 248.356552,346.242310 247.341492,345.234497 
	C242.301392,340.230316 239.427124,340.339081 234.523804,345.696320 
	C234.365173,345.869629 233.905579,345.767456 232.987595,345.842865 
	C234.154419,340.332581 237.224289,335.774414 239.022568,330.380157 
z"/>
<path fill="#383838" opacity="1.000000" stroke="none" 
	d="
M84.332474,286.753571 
	C84.659698,289.378143 84.722794,291.756134 84.692528,294.571716 
	C83.416733,294.932098 82.150368,295.225067 80.982178,293.928680 
	C81.533569,291.530945 82.278206,289.437378 83.217560,287.076935 
	C83.630959,286.709015 83.849648,286.608002 84.332474,286.753571 
z"/>
<path fill="#E4F9F6" opacity="1.000000" stroke="none" 
	d="
M325.208496,313.247192 
	C325.891876,310.626221 323.214600,306.680328 328.252411,306.046844 
	C329.580963,305.879761 328.939545,304.023163 328.953217,302.953644 
	C329.021179,297.625946 329.196960,292.284576 328.891144,286.973541 
	C328.741455,284.373383 331.046875,280.519104 325.714722,279.627502 
	C324.456451,279.417114 325.173035,276.274170 325.209778,274.486115 
	C325.251312,272.465485 326.940155,272.931885 328.185455,272.820984 
	C328.515930,272.791565 328.851227,272.820648 329.184113,272.813293 
	C342.213379,272.524841 342.192322,272.533203 347.067993,284.591919 
	C349.363983,290.270416 351.758423,295.909088 354.388153,302.239685 
	C356.867279,295.628082 359.069946,289.753662 361.376770,283.509888 
	C363.113342,274.556427 367.947418,271.549072 376.816040,272.540985 
	C381.747681,273.092590 383.790344,273.986877 382.900299,279.393372 
	C379.830780,279.742249 378.771454,281.135925 378.943542,284.296265 
	C379.222443,289.417603 378.873840,294.570923 379.074951,299.699585 
	C379.181274,302.410217 377.366333,305.946777 382.232178,307.112793 
	C383.661499,307.455292 382.917694,310.452484 382.759033,312.185547 
	C382.520233,314.793549 380.237671,313.517731 378.411407,313.982239 
	C376.377625,314.002350 374.711517,313.658295 373.142731,313.913239 
	C368.193298,314.717651 366.195129,312.819702 367.096985,307.440796 
	C369.548645,301.065674 368.056915,294.711914 368.823975,289.742371 
	C366.727295,294.335144 365.702698,300.594543 361.398865,305.781372 
	C360.469696,307.336578 359.593933,308.611694 359.228699,310.019257 
	C358.538208,312.680450 357.147919,313.708771 354.296112,313.671112 
	C351.481171,313.633911 349.856415,312.983673 348.736481,310.128845 
	C345.622009,302.189636 342.133240,294.397247 337.872864,286.687988 
	C337.872864,292.531097 337.935516,298.375214 337.844086,304.216888 
	C337.803711,306.798645 341.922943,306.698517 341.047729,310.170197 
	C340.436981,312.592926 340.375183,314.147919 337.368164,313.908844 
	C334.566711,313.686127 331.732025,313.881226 328.455566,313.982971 
	C327.142517,313.880371 326.285950,313.687225 325.208496,313.247192 
z"/>
<path fill="#E5FAF7" opacity="1.000000" stroke="none" 
	d="
M443.827026,313.227661 
	C440.068970,313.714020 436.263153,313.482910 432.540527,313.935608 
	C427.622009,314.533752 425.441833,312.940582 426.386902,307.438141 
	C430.230591,306.952667 431.117554,304.830292 430.893311,301.266052 
	C430.590912,296.459473 430.991119,291.610809 430.747955,286.797485 
	C430.613739,284.140747 432.616943,280.425629 427.287323,279.689423 
	C425.563385,279.451263 426.429443,276.139221 426.580994,274.257782 
	C426.737549,272.313995 428.530151,272.850708 429.747345,272.840668 
	C435.737335,272.791260 441.728394,272.861786 447.718231,272.804077 
	C453.669922,272.746704 458.581268,274.522186 461.036682,280.414612 
	C463.214508,285.640900 461.743896,289.506531 455.791260,294.726746 
	C458.070923,296.845764 459.022369,299.661530 459.799500,302.570923 
	C460.123322,303.783234 459.872650,305.422424 461.669830,305.709656 
	C466.244934,306.440948 463.700409,309.938721 463.837921,312.032227 
	C464.034607,315.026886 461.195709,313.756561 459.676208,313.799500 
	C452.101440,314.013336 452.137665,313.937103 450.737640,306.169098 
	C450.034119,302.265686 449.805542,297.829041 444.268616,297.662964 
	C442.807007,297.619080 440.447540,296.592041 440.071716,298.884583 
	C439.690582,301.209290 438.726868,305.263397 440.634918,305.799866 
	C445.262939,307.101044 443.511749,310.193726 443.827026,313.227661 
z"/>
<path fill="#E5FAF7" opacity="1.000000" stroke="none" 
	d="
M421.978516,306.564972 
	C421.615234,313.860138 421.615234,313.860535 414.485657,313.859650 
	C407.154083,313.858765 399.822357,313.878723 392.490997,313.837921 
	C390.957489,313.829376 388.698456,314.435181 389.064850,311.694366 
	C389.307190,309.881470 387.416931,306.935394 390.944824,306.511780 
	C393.560303,306.197754 393.122925,304.505981 393.128174,302.919495 
	C393.145874,297.587677 393.117035,292.255676 393.017822,286.462463 
	C392.968170,283.757965 394.396881,281.351593 390.124481,280.678558 
	C387.594147,280.279999 389.320953,276.676086 389.068756,274.544281 
	C388.822510,272.462646 390.647461,272.842285 391.886322,272.838379 
	C400.867523,272.809967 409.849579,272.886078 418.829620,272.779114 
	C421.291168,272.749786 422.055908,273.724030 421.885925,276.022034 
	C421.751312,277.841583 421.863312,279.679047 421.859314,281.508575 
	C421.848297,286.571320 419.302551,288.362335 414.459351,286.839691 
	C413.502075,286.538696 413.207947,286.061096 412.979309,285.179474 
	C412.615845,283.778107 414.144806,281.419556 411.565643,281.134827 
	C408.781281,280.827484 405.671997,280.448914 403.183899,281.381104 
	C401.006714,282.196869 402.304962,285.234100 402.264740,287.264587 
	C402.217072,289.672089 404.316132,289.007812 405.615784,288.938354 
	C408.749695,288.770996 411.003632,288.855194 410.706818,293.226410 
	C410.498016,296.301056 409.689362,297.579559 406.681427,296.995239 
	C402.121704,296.109528 402.211975,298.835876 402.072754,302.160950 
	C401.918365,305.846832 403.379395,306.552795 406.692352,306.542664 
	C410.590790,306.530731 413.925110,306.907867 413.106201,301.170135 
	C412.666168,298.086914 415.611053,299.180511 417.103882,299.242401 
	C418.772369,299.311615 421.435272,297.836823 421.804047,301.143280 
	C421.987457,302.787811 421.869781,304.465912 421.978516,306.564972 
z"/>
<path fill="#444444" opacity="1.000000" stroke="none" 
	d="
M361.497894,306.002136 
	C363.759613,299.160858 366.404266,292.320007 369.048920,285.479187 
	C369.410004,285.544739 369.771057,285.610291 370.132141,285.675842 
	C370.132141,291.839264 370.078461,298.003448 370.165649,304.165619 
	C370.191010,305.956940 369.214355,306.429077 367.432159,306.833282 
	C365.338715,306.669128 363.609741,306.335846 361.497894,306.002136 
z"/>
<path fill="#E3F7F4" opacity="1.000000" stroke="none" 
	d="
M270.679810,296.448303 
	C270.660828,291.727844 270.753052,287.454132 270.788544,283.179962 
	C270.799103,281.909058 271.058472,280.330139 269.083618,280.248535 
	C264.670624,280.066132 266.583710,276.714935 266.549988,274.732483 
	C266.499695,271.780212 269.122345,272.969757 270.680878,272.854401 
	C273.137451,272.672577 275.615784,272.784882 278.541443,272.683838 
	C283.193787,272.121155 285.072601,273.837372 284.319519,278.567413 
	C279.442993,279.855469 279.648163,283.421021 279.813263,287.260193 
	C280.033691,292.384552 279.894257,297.525726 279.854004,302.659271 
	C279.837708,304.737335 279.704865,306.969971 282.765594,306.380371 
	C285.597076,305.834961 290.621033,308.549103 290.572510,303.242432 
	C290.515076,296.961578 295.032623,297.985657 297.334839,299.070038 
	C302.293793,301.405823 298.550476,306.561646 299.512909,310.373322 
	C299.974609,312.201752 299.653168,314.081360 296.847839,313.891418 
	C294.870514,313.757507 292.875458,313.886566 290.443817,313.987152 
	C283.399811,314.006409 276.799774,313.966827 270.201233,313.844116 
	C268.707794,313.816315 266.420837,314.559021 266.534973,311.923218 
	C266.619507,309.970734 264.876068,306.885559 268.691315,306.466675 
	C271.303986,306.179810 270.757202,304.393341 270.790497,302.838806 
	C270.832886,300.858582 270.780701,298.876312 270.679810,296.448303 
z"/>
<path fill="#DDF1EE" opacity="1.000000" stroke="none" 
	d="
M307.221436,297.448578 
	C307.198975,292.362885 307.302643,287.727783 307.363251,283.092102 
	C307.378296,281.942139 307.419373,280.479309 305.897552,280.372162 
	C301.167908,280.039215 303.187134,276.469116 303.305328,274.396667 
	C303.462128,271.647858 306.144714,272.946991 307.717163,272.846649 
	C310.856293,272.646362 314.019653,272.714661 317.168060,272.819916 
	C318.635132,272.868988 321.008026,272.058472 320.783356,274.762634 
	C320.624908,276.669952 322.595276,279.750336 318.706207,280.223785 
	C316.517426,280.490234 316.632935,281.985443 316.628845,283.476959 
	C316.610657,290.112518 316.608337,296.748199 316.626770,303.383759 
	C316.629425,304.338684 316.415497,305.898102 317.458221,305.975006 
	C321.938049,306.305389 320.766571,309.541901 320.971863,312.571930 
	C315.771576,314.900970 310.329437,313.441132 304.986145,313.845795 
	C303.817505,313.934265 303.084900,313.204315 303.166595,312.032501 
	C303.288147,310.289703 302.245667,307.374908 303.830444,307.007172 
	C309.961823,305.584595 306.467072,300.999023 307.221436,297.448578 
z"/>
<path fill="#0AC288" opacity="1.000000" stroke="none" 
	d="
M306.330444,330.009705 
	C304.338074,330.068542 302.675812,330.038239 301.015747,329.960815 
	C299.255798,329.878693 298.123138,330.371735 298.221832,332.446014 
	C298.309906,334.297272 299.205841,334.978149 301.004700,335.219055 
	C302.972992,335.482574 306.533234,334.042236 306.532928,336.506012 
	C306.532654,338.944611 302.963867,337.562622 300.992920,337.785522 
	C298.375458,338.081512 298.349976,339.854431 298.235382,341.717163 
	C298.095184,343.996002 299.696564,343.845154 301.237305,343.952606 
	C303.404144,344.103760 305.720642,343.407410 309.008026,345.217896 
	C304.519836,346.564972 301.128021,345.909149 297.821198,345.983734 
	C296.920959,346.004028 296.177277,345.459473 296.172607,344.479523 
	C296.147278,339.160217 296.123230,333.839447 296.238525,328.522217 
	C296.258453,327.602295 297.380829,327.478546 298.612610,327.362549 
	C301.240204,327.352234 303.480560,327.293915 305.709808,327.425079 
	C307.612030,327.536987 308.856995,328.111572 306.330444,330.009705 
z"/>
<path fill="#E4F9F6" opacity="1.000000" stroke="none" 
	d="
M228.075012,276.861694 
	C241.943848,266.168549 258.840088,274.673187 261.083221,290.618774 
	C261.006927,301.170990 257.687225,309.425232 247.247253,313.743591 
	C235.278961,315.337219 228.222916,312.236786 223.769348,303.779846 
	C219.090363,294.894836 220.539581,285.583557 228.075012,276.861694 
z"/>
<path fill="#0AC288" opacity="1.000000" stroke="none" 
	d="
M278.306580,345.678131 
	C274.529022,345.695526 274.411041,341.967072 272.586792,339.811951 
	C271.845886,338.936676 271.376862,337.675629 269.894714,338.222839 
	C268.654144,338.680847 269.062103,339.868896 268.977295,340.793488 
	C268.901642,341.618195 269.012909,342.460052 268.937592,343.284851 
	C268.839935,344.354614 269.213959,345.932098 267.418152,345.778687 
	C266.145355,345.669952 266.228516,344.374939 266.215790,343.399384 
	C266.174591,340.240692 266.174042,337.081451 266.104919,333.460938 
	C266.844879,331.215637 264.717285,328.024658 267.851959,327.589355 
	C271.216522,327.122131 274.930878,327.212738 277.604279,329.953278 
	C278.754852,331.132812 279.593536,333.614502 278.238007,334.470612 
	C272.142700,338.320129 277.516479,341.725342 278.306580,345.678131 
z"/>
<path fill="#EEFFFA" opacity="1.000000" stroke="none" 
	d="
M241.407593,59.438347 
	C244.942764,64.286217 248.207306,68.912262 251.748474,73.716827 
	C255.357391,78.783516 258.689667,83.671700 262.299133,88.793144 
	C266.257812,90.659378 267.087311,94.540810 269.156738,97.435959 
	C270.413635,99.194359 271.531494,101.057175 272.957733,103.135025 
	C276.986755,110.014221 281.012726,116.487839 284.745605,123.551407 
	C287.767639,129.909286 290.889435,135.810562 293.992859,142.158554 
	C296.840851,150.716095 300.141022,158.711823 300.434265,167.571808 
	C300.864197,180.562256 297.675201,192.604477 291.668213,204.414993 
	C288.053986,210.081223 284.429474,215.260880 280.021790,220.310059 
	C276.153870,224.355331 271.952026,227.426758 267.390564,230.629242 
	C262.830658,233.288284 258.584198,235.767731 253.765594,238.011230 
	C246.945358,240.612244 240.253967,241.974670 232.942276,242.432312 
	C225.498352,242.794083 218.508850,242.594696 211.148163,241.250702 
	C208.526108,240.533508 206.308487,239.951767 204.104828,238.328125 
	C204.739044,234.818909 207.514069,235.579849 209.591843,235.637619 
	C214.691940,235.779373 219.465591,234.753189 224.421646,232.538513 
	C227.658554,231.227509 230.174194,229.432816 232.978394,227.450256 
	C236.360199,224.844223 238.783066,221.840240 241.142120,218.316437 
	C243.538361,214.764191 244.169678,210.976166 245.022659,206.871857 
	C246.103104,202.317673 245.209900,198.293091 243.963501,193.894821 
	C243.297867,190.175949 243.524948,186.824799 243.551926,183.071960 
	C243.732620,179.691910 244.518341,176.865433 245.672516,173.735107 
	C246.957504,171.209396 248.377426,169.218521 249.973022,166.920944 
	C252.108398,164.664886 253.702332,162.447372 255.250488,159.768372 
	C257.115601,157.216232 258.088562,154.642258 258.858276,151.595215 
	C259.568176,149.142242 259.695557,146.984894 259.584503,144.432373 
	C259.248108,140.509628 258.097626,137.169891 256.813354,133.465469 
	C254.950623,126.748390 250.770172,123.943146 244.265152,122.662872 
	C226.614197,119.188950 209.044403,115.273155 191.486267,111.332596 
	C188.062286,110.564163 184.634354,109.929520 180.748413,109.627457 
	C177.950668,104.679070 182.268860,102.552765 184.735825,99.392609 
	C187.716629,95.453102 190.326553,91.656685 193.005676,87.527069 
	C194.952042,82.354874 197.635681,78.045418 201.762253,74.346573 
	C205.685135,69.424263 209.277298,64.621574 212.967834,59.499210 
	C216.468719,54.901035 219.911697,50.653938 223.263077,46.335773 
	C227.083694,41.413017 227.048218,41.385479 231.391815,46.479202 
	C234.804993,50.892372 237.970993,55.054451 241.407593,59.438347 
z"/>
<path fill="#1CA59E" opacity="1.000000" stroke="none" 
	d="
M185.031342,98.818253 
	C183.362930,102.268600 181.619156,105.287682 179.792694,108.660904 
	C180.143402,111.543282 178.992371,112.393074 176.268524,111.613022 
	C174.558868,109.440086 174.398529,107.270187 174.389603,105.108391 
	C174.284546,79.701302 174.326126,54.294044 174.377029,28.886898 
	C174.379654,27.572227 174.469482,26.229055 174.907349,24.462036 
	C176.029846,19.192039 178.611221,15.365366 182.684204,12.144323 
	C184.710281,13.638203 183.961929,15.764135 183.965912,17.669847 
	C184.017410,42.293346 184.009033,66.917000 183.985413,91.540581 
	C183.983170,93.882904 184.004211,96.193260 185.031342,98.818253 
z"/>
<path fill="#28AC96" opacity="1.000000" stroke="none" 
	d="
M202.064560,73.742813 
	C199.278030,78.423828 196.463074,82.620712 193.361511,87.005722 
	C192.716309,60.098351 192.357712,33.002838 191.997421,5.464693 
	C192.661743,5.011596 193.331146,5.040935 193.993256,4.984611 
	C202.000061,4.303499 201.996613,4.300210 202.000626,12.309942 
	C202.010803,32.626190 202.024094,52.942440 202.064560,73.742813 
z"/>
<path fill="#5CC770" opacity="1.000000" stroke="none" 
	d="
M272.620483,104.183029 
	C269.038147,99.185966 265.885712,94.384750 262.654816,89.304977 
	C263.496002,79.058250 262.776611,69.066978 262.991882,59.088688 
	C263.052246,56.290398 262.472870,52.472797 265.216644,51.525837 
	C268.104828,50.529030 269.559509,54.415073 271.538330,56.273148 
	C272.608612,57.278099 273.435272,58.542496 274.666809,59.845451 
	C275.291962,61.097363 275.622131,62.193676 275.988831,63.633514 
	C275.343140,75.974213 275.840454,87.988792 275.474335,99.989403 
	C275.420715,101.746552 275.299347,103.717072 272.620483,104.183029 
z"/>
<path fill="#72D261" opacity="1.000000" stroke="none" 
	d="
M290.027527,205.376984 
	C300.655090,184.751663 302.214386,164.116150 292.627563,142.609253 
	C292.280212,130.513809 292.201752,118.782310 292.454834,107.057648 
	C292.528870,103.626892 291.895477,99.576637 296.560608,97.803131 
	C298.693390,102.864212 302.391693,106.880966 303.010101,112.586792 
	C304.311615,127.240120 303.918701,141.555161 303.347076,155.811447 
	C302.953522,165.627090 302.354095,175.363724 303.473724,185.162216 
	C304.038757,190.107040 303.470398,195.120483 303.870850,200.550079 
	C303.661987,202.419510 303.327637,203.836807 302.994568,205.621979 
	C300.840698,208.867828 300.305450,212.899338 296.437500,214.919174 
	C292.918793,216.693619 291.617950,214.802078 290.848663,212.118301 
	C290.258301,210.058792 290.566956,207.878128 290.027527,205.376984 
z"/>
<path fill="#76D45C" opacity="1.000000" stroke="none" 
	d="
M304.264648,200.776520 
	C301.897766,200.720978 302.041351,199.141464 301.995300,197.621582 
	C301.674377,187.028381 300.534729,176.386398 301.185242,165.854416 
	C302.189362,149.596863 301.754852,133.360092 302.028198,117.116356 
	C302.047180,115.988396 302.451996,114.866928 302.848206,113.356583 
	C306.550781,116.224976 306.909332,120.920685 308.044220,125.082207 
	C314.008453,146.952148 315.440430,168.949997 308.473450,190.926468 
	C307.429352,194.219986 305.859589,197.346848 304.264648,200.776520 
z"/>
<path fill="#65CB6A" opacity="1.000000" stroke="none" 
	d="
M272.271454,104.313721 
	C274.844757,103.315910 273.950958,101.130127 273.964081,99.494751 
	C274.038269,90.248909 274.050812,81.001709 273.967041,71.756027 
	C273.943878,69.202751 274.276886,66.834618 275.860870,64.329147 
	C281.579865,68.654564 284.622711,75.072693 288.009460,81.626816 
	C287.223328,93.025604 287.843536,104.073845 287.581299,115.109940 
	C287.504272,118.352371 287.848022,121.812187 284.286743,124.123474 
	C279.996124,117.611595 276.174194,111.125931 272.271454,104.313721 
z"/>
<path fill="#6CD065" opacity="1.000000" stroke="none" 
	d="
M283.917358,124.441826 
	C285.927307,121.880295 286.008301,119.103966 286.004730,116.287964 
	C285.992401,106.567024 285.957367,96.845688 286.040710,87.125450 
	C286.055054,85.450134 285.193787,83.429680 287.621277,82.090469 
	C291.813263,86.608887 294.318665,91.973625 296.959900,97.641449 
	C293.580597,99.824547 294.118011,103.235970 294.067688,106.147087 
	C293.893311,116.232857 294.024719,126.323608 293.976959,136.412170 
	C293.968536,138.185730 294.467255,140.069992 292.897339,141.970856 
	C289.690430,136.423096 286.853577,130.604736 283.917358,124.441826 
z"/>
<path fill="#0B9CAB" opacity="1.000000" stroke="none" 
	d="
M157.302460,208.234802 
	C154.080200,206.409653 153.203949,203.471725 152.038559,200.350159 
	C150.713760,195.664841 150.296982,191.245270 150.313278,186.723145 
	C150.383423,167.272614 150.382080,147.821548 150.312286,128.371002 
	C150.297333,124.204926 150.789688,120.087479 150.991577,115.466049 
	C153.293823,104.918610 155.599289,94.849945 157.960236,84.389099 
	C162.037064,83.238083 161.182922,86.496094 161.337891,88.403778 
	C162.052414,97.200272 161.686569,106.027336 161.775497,114.842606 
	C161.845901,121.822479 161.324402,128.826385 162.703873,136.144836 
	C163.014664,137.315903 163.047455,138.113129 162.925201,139.302094 
	C161.890610,142.267853 161.116959,144.915405 160.142990,147.889221 
	C159.518845,149.653229 159.271103,151.122299 158.962860,152.969849 
	C158.051880,156.345215 157.389099,159.376389 157.199768,162.895386 
	C156.429672,166.431091 156.384369,169.617859 156.507263,173.215134 
	C157.035858,176.219742 157.460281,178.840439 157.539551,181.898529 
	C158.109329,185.072525 158.922653,187.798523 159.465881,190.980438 
	C160.295013,194.119400 161.827148,196.649292 161.968292,199.998474 
	C160.984421,203.328445 162.063339,207.352661 157.302460,208.234802 
z"/>
<path fill="#16A2A2" opacity="1.000000" stroke="none" 
	d="
M174.663940,24.156780 
	C176.709076,25.619585 175.962326,27.744513 175.966217,29.647114 
	C176.017059,54.568737 176.006348,79.490501 175.989563,104.412216 
	C175.987991,106.744423 175.937042,109.063614 176.975891,111.675194 
	C177.383774,112.465736 177.566528,112.907074 177.556244,113.777008 
	C176.106323,116.804832 174.422165,119.266563 172.127243,121.774536 
	C171.020447,122.438019 170.209229,122.590286 168.986038,122.014503 
	C167.030441,119.357201 167.377106,116.640228 167.370377,114.018425 
	C167.329483,98.107201 167.278809,82.195328 167.390793,66.284813 
	C167.429214,60.825970 166.189316,55.408482 166.990402,49.465771 
	C167.857574,40.296787 170.191437,32.039318 174.663940,24.156780 
z"/>
<path fill="#119FA6" opacity="1.000000" stroke="none" 
	d="
M166.714294,49.246422 
	C168.518372,53.364616 168.954178,57.924610 168.971741,62.496506 
	C169.040619,80.430679 168.985367,98.365288 169.022705,116.299644 
	C169.026413,118.081543 168.536819,119.968590 170.051270,121.877838 
	C171.252487,125.681168 168.081787,127.682480 167.013611,130.875763 
	C165.559219,133.167191 165.063736,135.680756 162.529510,137.050034 
	C159.128525,133.564835 160.322144,129.176575 160.181122,125.316772 
	C159.843643,116.078331 160.917389,106.777138 160.379547,97.562088 
	C160.122711,93.161674 161.394943,88.371590 158.404785,84.092781 
	C160.824570,72.498474 163.633423,61.000034 166.714294,49.246422 
z"/>
<path fill="#0597AB" opacity="1.000000" stroke="none" 
	d="
M150.719315,115.237915 
	C152.703781,116.637291 151.961884,118.763489 151.966232,120.673058 
	C152.018433,143.657913 151.979477,166.642975 152.023071,189.627853 
	C152.029312,192.915375 152.345673,196.202316 152.261047,199.743500 
	C147.936432,193.019089 146.304276,185.308472 144.954834,177.454987 
	C142.272125,161.842194 145.218323,146.397507 146.031937,130.426590 
	C146.030106,129.965454 146.029221,129.477264 146.031158,129.232925 
	C147.239975,128.171432 146.978394,126.896309 147.064728,125.359436 
	C149.665710,122.344231 149.080963,118.569817 150.719315,115.237915 
z"/>
<path fill="#3AB48A" opacity="1.000000" stroke="none" 
	d="
M209.786407,239.924316 
	C217.376038,240.955368 224.701691,241.278381 232.526978,241.117035 
	C233.408600,246.808578 238.487427,246.454315 241.939774,248.506897 
	C241.914001,248.856644 241.916992,249.350769 241.918198,249.596207 
	C233.857620,250.290054 225.831741,251.794418 217.708847,250.050186 
	C215.419479,249.558578 213.122040,249.494370 211.132294,247.463135 
	C209.200684,245.122940 208.264725,242.916458 209.786407,239.924316 
z"/>
<path fill="#28AC96" opacity="1.000000" stroke="none" 
	d="
M209.836273,239.408447 
	C209.540054,241.939636 210.775513,244.056992 210.948334,246.732300 
	C204.559235,246.978836 198.719345,245.059616 193.126816,241.445099 
	C191.536072,239.356598 191.406052,237.356750 192.147446,234.841705 
	C196.961777,231.850937 200.191498,235.117645 203.943909,237.537445 
	C205.969528,238.333054 207.761169,238.777878 209.836273,239.408447 
z"/>
<path fill="#119FA6" opacity="1.000000" stroke="none" 
	d="
M156.962067,208.393112 
	C161.180710,207.075531 159.161896,202.927048 160.886017,200.263367 
	C163.207779,199.744431 163.371750,201.757278 164.484039,203.218475 
	C164.761505,203.710938 164.868408,203.909454 165.125992,204.409119 
	C166.391983,207.370239 167.564468,209.998688 169.605164,212.543396 
	C170.217422,213.682968 170.528442,214.568390 170.720428,215.864838 
	C170.400833,219.013245 169.142914,221.280075 166.529755,222.949905 
	C164.105606,221.950348 163.160782,219.864120 161.380829,218.161560 
	C161.239365,214.210693 157.254593,212.327194 156.962067,208.393112 
z"/>
<path fill="#16A2A2" opacity="1.000000" stroke="none" 
	d="
M166.262543,223.237183 
	C167.366501,220.792572 168.566956,218.666656 169.907074,216.211395 
	C173.612579,215.758347 174.358536,219.148758 176.627319,221.213974 
	C178.249146,223.137161 180.523300,224.128296 180.746078,227.027496 
	C180.471680,229.159607 180.442734,230.970200 179.269989,232.843414 
	C173.636948,231.431549 169.835678,227.708405 166.262543,223.237183 
z"/>
<path fill="#22A99A" opacity="1.000000" stroke="none" 
	d="
M179.144730,233.397766 
	C179.201645,231.205475 178.515564,229.208115 179.928162,227.158752 
	C185.546036,226.850540 188.919708,230.554443 192.885559,233.667816 
	C192.992172,236.092606 192.987732,238.166794 192.964249,240.693573 
	C187.456436,240.382721 183.578934,236.670563 179.144730,233.397766 
z"/>
<path fill="#6CD065" opacity="1.000000" stroke="none" 
	d="
M289.605011,205.132050 
	C293.157928,205.660065 291.822540,208.284805 291.947876,210.154587 
	C292.108246,212.547592 291.991577,214.890579 295.718750,215.034058 
	C293.208954,220.489441 289.092010,224.786819 283.525177,228.095810 
	C278.452362,227.577011 279.889130,223.431854 278.839081,220.300140 
	C282.503418,215.174576 286.677368,210.790482 289.605011,205.132050 
z"/>
<path fill="#4DBF7B" opacity="1.000000" stroke="none" 
	d="
M242.260559,248.895996 
	C241.049988,247.853027 239.773987,247.729813 238.757172,248.052338 
	C232.600677,250.005142 232.540863,246.293945 232.993576,241.598145 
	C239.883469,240.479980 246.636444,239.160278 253.507965,236.568100 
	C255.740051,238.093689 255.777420,240.916550 257.977295,242.752213 
	C255.604324,246.720413 251.426956,246.105347 247.437927,247.034332 
	C246.544052,247.471878 246.060806,247.917542 245.291534,248.534973 
	C244.862595,248.785568 244.689636,248.830093 244.256683,248.939545 
	C243.533508,248.981430 243.070312,248.958374 242.260559,248.895996 
z"/>
<path fill="#5CC770" opacity="1.000000" stroke="none" 
	d="
M278.509644,220.049088 
	C282.007812,221.589905 279.813995,225.827454 282.846466,227.958832 
	C280.810822,232.958618 276.002502,234.517014 271.393433,236.908188 
	C265.980804,237.412811 268.004364,232.899551 266.705750,230.249100 
	C270.547119,226.620728 274.382477,223.410339 278.509644,220.049088 
z"/>
<path fill="#54C375" opacity="1.000000" stroke="none" 
	d="
M266.370117,229.884567 
	C269.786194,231.222778 267.804565,235.212936 270.704895,236.966400 
	C267.948364,240.940887 263.483795,242.118958 258.522766,243.067642 
	C254.131760,243.083664 254.107559,240.163925 253.914795,236.906403 
	C257.934753,234.289154 261.981659,232.113586 266.370117,229.884567 
z"/>
<path fill="#3AB48A" opacity="1.000000" stroke="none" 
	d="
M245.344238,248.805740 
	C245.124588,247.875427 245.508270,247.256927 246.727814,247.057892 
	C247.006836,247.435257 246.982513,247.839859 246.934235,248.545380 
	C246.491180,248.854340 246.072052,248.862396 245.344238,248.805740 
z"/>
<path fill="#373737" opacity="1.000000" stroke="none" 
	d="
M84.686485,286.709869 
	C84.398872,286.970978 84.201141,286.941864 83.707848,286.861389 
	C83.761520,286.125702 84.110764,285.441406 84.460007,284.757080 
	C84.565453,285.311249 84.670906,285.865448 84.686485,286.709869 
z"/>
<path fill="#3D3D3D" opacity="1.000000" stroke="none" 
	d="
M111.845215,294.725830 
	C111.559868,288.545807 113.234383,283.671021 118.836288,281.260986 
	C122.651077,279.619781 126.496414,280.491028 129.300217,283.605743 
	C133.313217,288.063751 133.960358,293.336395 131.892303,298.904297 
	C130.155960,303.579132 126.146965,306.276367 121.627151,305.987396 
	C116.650200,305.669220 113.234604,301.882233 111.845215,294.725830 
z"/>
<path fill="#3D3E3E" opacity="1.000000" stroke="none" 
	d="
M172.550522,338.775024 
	C170.789825,339.096436 169.240738,339.755432 168.137589,338.349579 
	C167.537643,337.585022 168.375061,335.814423 170.763229,332.300354 
	C172.238052,334.167145 173.295502,336.095612 172.550522,338.775024 
z"/>
<path fill="#444444" opacity="1.000000" stroke="none" 
	d="
M206.192505,281.687073 
	C208.492218,284.290100 208.739502,286.840637 206.783722,289.189514 
	C204.869858,291.488037 201.986511,291.371857 199.359482,291.062500 
	C196.747787,290.754944 197.933655,288.446228 197.892548,287.047089 
	C197.657440,279.043304 198.261475,278.659760 206.192505,281.687073 
z"/>
<path fill="#464747" opacity="1.000000" stroke="none" 
	d="
M242.335953,333.039673 
	C243.175903,335.173798 243.863724,336.998444 244.722595,339.276855 
	C242.314102,339.506897 239.265839,340.868683 238.531143,338.606140 
	C237.857208,336.530762 239.658951,333.708374 241.387711,331.670074 
	C241.653091,332.023438 241.918457,332.376831 242.335953,333.039673 
z"/>
<path fill="#4A4B4B" opacity="1.000000" stroke="none" 
	d="
M440.292114,289.645325 
	C439.934601,288.304504 439.736145,287.290344 439.877777,286.326080 
	C440.173706,284.310638 438.620880,281.316559 440.951447,280.476471 
	C443.642456,279.506470 446.882935,279.750366 449.635986,281.267487 
	C451.384918,282.231262 452.159851,283.865906 451.933258,285.864655 
	C451.671600,288.172577 450.075653,289.482452 448.021698,289.778198 
	C445.589569,290.128387 443.080750,289.946045 440.292114,289.645325 
z"/>
<path fill="#434343" opacity="1.000000" stroke="none" 
	d="
M243.374817,305.791534 
	C236.864838,305.937195 233.246567,303.657532 231.392502,298.588959 
	C229.345627,292.993195 231.020996,285.799255 235.112488,282.615662 
	C239.797791,278.969971 246.555710,280.353821 249.723358,285.607574 
	C254.152649,292.953857 251.533951,301.765381 243.374817,305.791534 
z"/>
<path fill="#434343" opacity="1.000000" stroke="none" 
	d="
M269.090576,331.242096 
	C269.742615,330.552368 270.299744,330.056854 270.872986,330.037476 
	C273.017639,329.964966 275.605286,329.693268 275.792603,332.724731 
	C275.930054,334.949188 274.045227,335.606262 272.049072,335.812866 
	C268.583862,336.171600 268.870178,333.879120 269.090576,331.242096 
z"/>
<path fill="#91E8BC" opacity="1.000000" stroke="none" 
	d="
M244.542175,181.780975 
	C244.945816,185.694061 245.076263,189.339691 245.239319,193.437622 
	C243.316956,195.987640 240.956375,195.062210 238.711456,194.716141 
	C232.963181,193.830063 227.442612,191.662048 221.152069,191.662933 
	C218.045944,191.684280 216.320099,189.591019 214.117325,188.509644 
	C211.877441,187.410065 209.716263,185.973297 206.763397,187.657928 
	C201.420853,187.838623 196.645767,186.603409 191.521881,185.221558 
	C188.094238,183.130157 185.165771,180.732025 180.729553,181.810242 
	C174.717651,180.597260 168.609100,180.961746 163.673721,176.568756 
	C165.956406,171.887650 170.559814,171.550140 174.936066,170.022110 
	C188.002731,171.745895 200.301071,175.247528 212.801376,177.778534 
	C217.671219,178.764557 222.496582,179.978928 227.788422,180.844833 
	C231.809799,183.349564 235.082031,180.894608 238.854919,180.097504 
	C241.034012,180.100525 242.759277,180.435165 244.542175,181.780975 
z"/>
<path fill="#E3FCF3" opacity="1.000000" stroke="none" 
	d="
M176.810791,114.210236 
	C176.914978,113.424606 176.948883,113.044899 177.010193,112.380524 
	C177.772156,111.190353 178.506744,110.284851 179.475677,109.197189 
	C186.508469,107.100243 192.674255,110.360054 199.018311,111.619423 
	C214.877457,114.767685 230.546692,118.938484 246.467804,121.678009 
	C253.354630,122.863014 255.929581,126.788460 257.959839,132.643250 
	C255.318359,135.135651 252.524139,133.628754 249.864029,133.098679 
	C239.592163,131.051804 229.487274,128.169754 218.641571,127.019333 
	C214.630829,126.963333 211.824677,124.741524 208.679276,123.427116 
	C206.676132,122.590042 204.558777,122.410225 202.062103,122.003448 
	C195.332809,119.979820 188.781601,118.957375 182.382721,117.304138 
	C180.354553,116.780121 178.057449,116.687775 176.810791,114.210236 
z"/>
<path fill="#ACEECE" opacity="1.000000" stroke="none" 
	d="
M158.021210,153.263977 
	C157.896759,151.446747 158.054443,149.942505 158.483658,148.178406 
	C160.701508,146.427933 162.825958,147.012177 164.929916,147.393982 
	C169.139999,148.157944 173.249176,149.473022 177.940033,149.782333 
	C181.579498,153.764282 185.353760,150.036423 189.204987,150.691696 
	C198.618134,154.391266 208.286896,155.464188 217.663544,157.703918 
	C226.737015,159.871262 235.918777,161.582260 245.024033,163.627960 
	C247.130890,164.101303 249.309906,164.453552 250.956757,166.660980 
	C249.944870,168.927063 248.778503,170.813431 247.361694,172.914993 
	C239.154373,172.706055 231.645813,169.944458 223.853195,168.652298 
	C221.581299,168.275574 219.356964,167.604889 216.664185,167.252151 
	C213.198837,166.444702 210.534256,164.401901 206.831879,164.363281 
	C190.390305,160.726990 174.116547,158.181168 158.021210,153.263977 
z"/>
<path fill="#5BDA97" opacity="1.000000" stroke="none" 
	d="
M176.429626,222.099548 
	C174.243088,220.050156 172.435364,218.134216 170.337189,216.050186 
	C169.694656,215.145294 169.342590,214.408493 168.936401,213.368042 
	C170.384857,210.163071 172.878403,211.400101 175.032227,211.712402 
	C179.763000,212.398392 184.284348,214.422562 189.600204,213.870163 
	C191.067429,213.715652 192.125702,213.786835 193.538452,214.187424 
	C198.071930,217.571198 203.501862,216.911469 208.385300,219.073242 
	C210.015579,220.480209 210.885376,222.839218 213.747086,221.016205 
	C220.116714,220.539322 225.780365,222.317444 231.479080,223.786865 
	C233.094482,224.203400 234.493256,225.172958 234.194092,227.578949 
	C231.891388,230.074402 229.305420,231.483521 226.409836,232.987595 
	C209.701035,229.199005 193.260147,225.691330 176.429626,222.099548 
z"/>
<path fill="#B4F0D4" opacity="1.000000" stroke="none" 
	d="
M251.398041,166.877914 
	C239.837524,163.238556 228.048767,161.651489 216.502304,159.025223 
	C208.317352,157.163513 200.075348,155.553726 191.872284,153.769455 
	C190.765106,153.528625 189.643845,153.052780 189.081451,151.468109 
	C189.590775,148.947586 191.310623,147.730362 193.280396,146.252075 
	C201.325928,145.326843 208.360397,148.412827 216.020752,149.953217 
	C218.310684,151.615326 218.603836,156.493073 223.213928,153.213562 
	C227.115906,152.938980 230.461411,154.036423 234.208313,154.924133 
	C238.043869,157.652542 241.246246,154.348663 244.966553,154.641479 
	C248.382065,157.281982 253.007507,156.268997 255.970917,159.687500 
	C255.307144,162.708862 253.640915,164.807709 251.398041,166.877914 
z"/>
<path fill="#CAF6E2" opacity="1.000000" stroke="none" 
	d="
M260.666290,143.727875 
	C260.814301,146.452515 261.495239,148.959488 260.110687,151.654083 
	C256.932037,153.700058 254.205444,151.571167 251.336609,151.347351 
	C249.537735,151.207016 247.791840,150.559021 245.583527,150.736389 
	C241.742218,150.819214 238.867737,148.033875 234.880249,148.646042 
	C228.904266,147.179092 223.176804,146.346176 217.598404,144.849274 
	C215.542877,144.297714 213.359650,143.985474 211.736115,141.794739 
	C211.775970,138.257507 214.558289,137.901093 216.654953,136.928009 
	C218.559128,136.044281 220.394180,134.960510 222.867188,134.406769 
	C234.268967,136.242813 245.034729,139.203918 255.986435,141.288757 
	C257.610962,141.598007 259.251373,142.035110 260.666290,143.727875 
z"/>
<path fill="#53D892" opacity="1.000000" stroke="none" 
	d="
M176.184967,222.269684 
	C180.625504,219.544174 184.755219,222.620636 188.960236,223.334610 
	C199.647659,225.149231 210.201340,227.764114 220.786072,230.158035 
	C222.499329,230.545532 224.406509,230.863190 225.771973,232.827545 
	C219.561020,237.498016 212.091003,237.141174 204.450867,237.593933 
	C200.697601,236.622406 197.217316,235.356583 193.366821,234.054581 
	C188.964294,231.688522 184.932007,229.358643 180.573349,226.970779 
	C179.665878,224.807190 177.268311,224.345734 176.184967,222.269684 
z"/>
<path fill="#D6F9EA" opacity="1.000000" stroke="none" 
	d="
M260.959686,143.625793 
	C248.417023,141.138763 235.882370,138.256058 223.105576,135.064087 
	C221.502563,131.874756 219.559067,129.369461 217.769806,126.441399 
	C224.156342,124.752281 229.962921,127.615738 235.998917,128.588425 
	C243.106689,129.733841 250.114288,131.500870 257.580811,133.000854 
	C259.537018,136.252411 260.234406,139.746490 260.959686,143.625793 
z"/>
<path fill="#66DD9E" opacity="1.000000" stroke="none" 
	d="
M208.993500,220.019867 
	C203.880508,218.328064 198.218933,219.666489 194.062012,215.323410 
	C195.260086,212.342712 198.173325,211.537796 200.319702,209.340454 
	C206.902817,208.795364 212.699860,211.029846 218.679581,212.151154 
	C221.117889,212.608368 223.544830,213.127060 226.376099,213.660553 
	C228.564804,214.147018 230.361374,214.554916 232.588318,214.816803 
	C235.891296,216.039154 239.105820,216.438293 241.927246,218.694183 
	C239.941452,222.196381 237.830154,225.442612 234.294312,227.836182 
	C233.890167,226.457306 233.223557,225.384109 231.705765,225.111832 
	C225.905899,224.071411 220.254440,222.199173 213.903168,221.994843 
	C211.742401,222.142731 210.756454,220.622925 208.993500,220.019867 
z"/>
<path fill="#85E5B4" opacity="1.000000" stroke="none" 
	d="
M219.704285,191.280823 
	C223.700928,188.408432 227.271423,191.065842 230.832153,191.546082 
	C235.361069,192.156921 239.710983,193.932800 244.820938,193.924652 
	C246.995148,197.906097 247.332001,202.089752 246.590927,206.735107 
	C245.448059,207.610504 244.521591,208.205902 242.970703,208.143890 
	C237.709946,206.544174 233.675262,203.100662 228.283722,201.784866 
	C224.847702,199.034378 220.392349,199.545685 217.076935,196.672379 
	C216.454941,194.088257 218.436127,193.061646 219.704285,191.280823 
z"/>
<path fill="#A4ECC9" opacity="1.000000" stroke="none" 
	d="
M215.790939,166.317932 
	C226.363922,167.316101 236.543930,169.660339 246.860901,172.833633 
	C246.401169,175.844284 245.691086,178.558365 244.898178,181.660461 
	C243.050781,181.708023 241.286209,181.367599 239.132477,180.973770 
	C236.225571,177.976624 234.026321,174.351318 228.808533,176.555298 
	C223.899353,176.518280 219.453217,175.923477 215.286835,173.038696 
	C213.995193,170.601364 215.661011,168.692627 215.790939,166.317932 
z"/>
<path fill="#BDF1DA" opacity="1.000000" stroke="none" 
	d="
M244.805786,150.584396 
	C247.836487,147.412292 250.675354,150.539200 253.569962,150.453842 
	C255.424377,150.399170 257.309479,151.386002 259.562439,151.961899 
	C259.301270,154.761887 258.746552,157.543381 256.390259,159.857239 
	C252.857224,157.500290 247.831467,159.429977 245.029724,155.263412 
	C244.304382,153.603287 244.597809,152.243896 244.805786,150.584396 
z"/>
<path fill="#71E0A7" opacity="1.000000" stroke="none" 
	d="
M241.627167,207.285248 
	C243.087555,207.039337 244.286423,207.038147 245.943085,207.063232 
	C245.692062,211.094452 244.902649,215.073364 242.415009,218.809677 
	C239.249359,218.220688 236.186127,217.943085 233.241791,216.106766 
	C232.907974,213.545364 234.979904,213.203598 236.541489,212.640823 
	C239.092911,211.721359 240.545258,209.976257 241.627167,207.285248 
z"/>
<path fill="#BDF1DA" opacity="1.000000" stroke="none" 
	d="
M211.550293,140.474548 
	C216.946579,144.815201 223.472015,144.279465 229.323593,145.923508 
	C231.204697,146.451996 233.140823,146.698135 235.020630,148.156189 
	C236.798828,150.674103 236.608994,152.971695 235.415771,155.661835 
	C231.358765,155.343307 227.589325,154.681229 223.414917,154.010376 
	C220.917297,153.619934 219.070221,152.700821 217.118454,151.206604 
	C210.801117,150.656158 205.121063,148.400696 199.167175,147.572159 
	C197.401749,147.326477 195.621384,147.188095 193.413208,147.000427 
	C191.545761,146.880264 190.661194,145.800278 189.575180,145.067261 
	C184.295166,141.503555 183.148773,141.587265 178.561523,145.905609 
	C174.021301,145.994064 170.059708,144.758804 166.043793,143.887100 
	C164.086563,143.462265 162.240387,142.659927 161.696686,140.022141 
	C161.894440,138.973450 161.997147,138.332016 162.134705,137.367188 
	C163.181702,135.146149 164.193832,133.248535 165.442276,131.125046 
	C167.590317,129.670639 169.526245,130.463455 171.448364,130.846649 
	C180.861084,132.723221 190.112000,135.377670 200.017334,136.792969 
	C200.927368,137.279602 200.503952,136.524872 200.829620,137.065475 
	C203.355637,141.258530 207.167542,141.166977 211.550293,140.474548 
z"/>
<path fill="#71E0A7" opacity="1.000000" stroke="none" 
	d="
M227.418442,214.621765 
	C219.191360,214.332214 211.673080,211.649292 203.865128,210.460495 
	C202.730988,210.287811 201.583679,210.201782 200.000397,210.117889 
	C196.264450,209.543594 193.539825,206.434219 189.400635,208.003632 
	C182.958252,207.959366 177.100998,206.702896 171.101532,204.426147 
	C167.099823,199.888031 167.020660,199.882568 164.147995,203.958679 
	C163.090973,202.872986 162.314713,201.596313 161.288361,200.115814 
	C160.172653,197.496323 159.307053,195.080627 158.395813,192.325684 
	C159.844818,190.433762 161.712753,190.744308 163.482101,191.117844 
	C183.919342,195.432373 204.332214,199.860001 224.705887,204.466461 
	C225.515732,204.649567 226.262650,205.029160 227.262878,205.828629 
	C228.830856,208.837082 228.825806,211.543839 227.418442,214.621765 
z"/>
<path fill="#7CE2AE" opacity="1.000000" stroke="none" 
	d="
M227.340973,205.746643 
	C215.078995,204.364700 203.465256,201.000122 191.629608,198.704697 
	C180.772720,196.599091 169.965027,194.239838 158.742920,191.989380 
	C157.709595,189.233337 157.069016,186.480225 156.360229,183.362122 
	C158.178497,181.259720 160.317078,182.137299 162.359589,182.480682 
	C168.169724,183.457443 173.847504,185.110306 180.060242,186.047073 
	C182.444427,188.390961 185.043152,188.243408 188.049210,188.002960 
	C194.210342,190.424500 200.604599,190.553375 206.698044,193.114716 
	C209.043625,198.467163 213.121750,194.966141 216.527771,195.703964 
	C220.181900,198.222656 224.952393,197.127258 227.998581,200.806396 
	C229.145767,202.738510 228.417709,204.118301 227.340973,205.746643 
z"/>
<path fill="#A4ECC9" opacity="1.000000" stroke="none" 
	d="
M157.518677,153.249939 
	C167.123077,153.627991 176.014023,156.830353 185.252533,158.323456 
	C192.365540,159.473007 199.347610,161.432877 206.802124,163.068130 
	C208.672226,164.969604 208.534256,167.019653 207.708405,169.516479 
	C203.961868,172.539413 200.518082,170.883377 196.739471,169.470886 
	C194.485931,168.131241 193.441284,164.125305 189.859131,167.526276 
	C186.002090,168.713104 182.829224,166.768875 179.452667,166.410294 
	C177.673935,166.221405 175.939301,165.569641 173.741486,165.949066 
	C170.963974,166.085648 168.947250,164.933975 166.925125,163.885178 
	C164.766052,162.765366 162.636856,162.325424 160.037994,163.710876 
	C158.631927,164.088943 157.615982,164.044373 156.353973,163.257965 
	C155.617599,159.735260 156.738220,156.678894 157.518677,153.249939 
z"/>
<path fill="#85E5B4" opacity="1.000000" stroke="none" 
	d="
M181.147430,186.668808 
	C172.613983,187.218170 165.058319,183.836334 156.683075,182.999207 
	C155.953842,180.254868 155.615662,177.512619 155.345917,174.376831 
	C156.373505,172.846405 157.654404,172.889191 159.327362,173.101715 
	C161.080887,173.742706 162.369095,174.462341 163.754028,175.706589 
	C168.742188,179.662094 174.920853,178.628906 180.478897,180.930847 
	C182.590347,182.583878 182.454529,184.416550 181.147430,186.668808 
z"/>
<path fill="#B4F0D4" opacity="1.000000" stroke="none" 
	d="
M161.539276,139.888763 
	C163.014328,142.357285 165.708740,142.413544 168.072159,142.952255 
	C171.453781,143.723053 174.874619,144.321823 178.691742,145.010391 
	C180.570602,146.625031 180.451614,148.408737 179.413025,150.618835 
	C172.358810,151.625763 166.201874,148.435486 159.190063,147.943207 
	C159.599060,145.333252 160.442932,142.747971 161.539276,139.888763 
z"/>
<path fill="#91E8BC" opacity="1.000000" stroke="none" 
	d="
M160.211807,173.687042 
	C158.610260,174.011505 157.375656,174.000107 155.777679,173.985992 
	C155.002625,170.552704 154.702103,167.125198 155.878082,163.365143 
	C157.083069,163.000534 158.108841,163.004501 159.519577,163.014450 
	C162.420563,166.314468 161.911484,169.805939 160.211807,173.687042 
z"/>
<path fill="#CAF6E2" opacity="1.000000" stroke="none" 
	d="
M201.446228,137.630310 
	C189.277954,137.248459 178.011139,133.539810 166.091461,130.962799 
	C166.429886,127.795624 168.764786,125.561287 170.267410,122.463860 
	C170.758575,121.778870 171.109970,121.423447 171.687164,120.953773 
	C181.635834,123.074104 191.477936,124.797638 201.351227,127.972397 
	C202.883621,131.282684 202.871063,134.274246 201.446228,137.630310 
z"/>
<path fill="#D6F9EA" opacity="1.000000" stroke="none" 
	d="
M201.405731,127.763649 
	C191.234573,127.082825 181.582809,125.061699 172.093613,121.178406 
	C173.377625,118.611473 174.842300,116.383438 176.594009,113.979858 
	C183.075302,116.964478 190.032791,117.233521 196.603531,118.967514 
	C198.506531,119.469711 200.451447,119.710114 202.195328,121.451569 
	C203.425156,123.878235 202.686661,125.710068 201.405731,127.763649 
z"/>
<path fill="#66DD9E" opacity="1.000000" stroke="none" 
	d="
M170.532349,202.658020 
	C176.525833,205.765701 182.840591,205.910812 189.345581,206.985458 
	C192.019547,209.179169 191.764206,211.652954 190.245392,214.621597 
	C186.836670,216.813477 183.941055,214.806503 180.977188,214.441513 
	C177.165421,213.972122 173.572617,211.989807 169.224792,212.915680 
	C166.411377,211.139175 165.597107,208.182724 164.156296,205.227890 
	C165.882889,203.488190 167.994705,202.944168 170.532349,202.658020 
z"/>
<path fill="#E3FCF3" opacity="1.000000" stroke="none" 
	d="
M170.806900,202.414825 
	C169.037247,203.935501 167.209442,205.202271 164.462128,204.938263 
	C164.091690,204.879715 163.978027,204.514343 163.922623,204.332001 
	C164.652542,202.503494 162.873047,199.647385 165.554016,199.120285 
	C167.617264,198.714661 169.660263,199.938202 170.806900,202.414825 
z"/>
<path fill="#99E9C2" opacity="1.000000" stroke="none" 
	d="
M172.747070,165.398453 
	C176.458252,163.204117 179.777588,165.281967 183.209702,165.884811 
	C185.132614,166.222565 187.042664,166.633545 189.355591,167.020752 
	C191.538620,168.253754 193.507324,167.872681 195.746201,167.845810 
	C199.203751,169.275970 202.442551,170.176743 206.305939,169.985840 
	C208.792007,172.548386 211.646576,171.174042 214.448105,171.664520 
	C218.828247,174.490128 223.717163,174.484528 228.572601,175.945328 
	C230.557587,177.601501 230.461807,179.410553 229.261932,181.654236 
	C220.203247,181.943756 212.089310,178.740173 203.679306,177.075470 
	C194.284882,175.215912 184.948853,173.061493 175.180023,170.970337 
	C173.517258,169.410263 173.110443,167.568817 172.747070,165.398453 
z"/>
<path fill="#EEFFFA" opacity="1.000000" stroke="none" 
	d="
M172.483963,164.998779 
	C173.940399,166.595428 175.424667,167.987396 174.831375,170.547409 
	C171.336212,172.425583 167.899811,173.945892 164.230682,175.723663 
	C162.562134,176.011078 161.094940,176.131027 160.014740,174.337738 
	C159.881699,170.659454 159.918533,167.296005 159.929947,163.476486 
	C161.240173,160.517883 163.165848,160.582520 165.396011,161.701080 
	C167.625015,162.819092 169.889786,163.865814 172.483963,164.998779 
z"/>
<path fill="#EEFFFA" opacity="1.000000" stroke="none" 
	d="
M217.040741,195.641052 
	C214.826294,196.574707 212.869934,197.329102 210.862045,197.903397 
	C208.228073,198.656784 206.793518,197.700516 206.894867,194.415390 
	C205.421402,192.027908 205.284332,189.946365 206.639923,187.391815 
	C207.582779,184.365021 209.302597,184.782394 211.092056,185.626129 
	C214.038925,187.015610 217.123337,188.193726 219.685654,190.871048 
	C220.321915,193.268234 219.250565,194.606354 217.040741,195.641052 
z"/>
<path fill="#85E5B4" opacity="1.000000" stroke="none" 
	d="
M206.520554,186.997726 
	C206.933899,189.055450 206.947403,191.097977 206.902344,193.575089 
	C200.803864,192.097885 194.200607,192.337799 188.128326,189.049072 
	C187.897690,186.892746 189.561874,185.818207 190.826660,184.153717 
	C196.123413,184.983337 201.122055,185.982941 206.520554,186.997726 
z"/>
<path fill="#529ACB" opacity="1.000000" stroke="none" 
	d="
M190.914474,183.699615 
	C191.383057,186.234589 190.187927,187.545059 188.024658,188.643036 
	C185.555420,188.128555 182.465546,192.600250 180.849457,187.374008 
	C180.828140,185.273041 180.879166,183.556137 180.894043,181.410095 
	C185.022232,178.224289 187.646500,181.696381 190.914474,183.699615 
z"/>
<path fill="#343434" opacity="1.000000" stroke="none" 
	d="
M229.095322,182.313416 
	C228.978195,180.280258 229.030685,178.563599 229.022400,176.420959 
	C229.310181,174.572693 230.131668,173.277603 231.634842,174.129410 
	C234.392319,175.692001 238.700119,175.552094 238.828903,180.557526 
	C235.487396,180.955246 233.090302,185.752014 229.095322,182.313416 
z"/>
<path fill="#529ACB" opacity="1.000000" stroke="none" 
	d="
M201.178772,128.469284 
	C201.481400,126.161926 201.832062,124.304565 202.291931,122.135132 
	C205.005463,119.795197 207.299362,121.376320 209.628922,122.454605 
	C212.130051,123.612305 214.621796,124.790276 217.459946,126.028198 
	C220.091751,128.357895 223.388657,129.974091 222.870483,134.391083 
	C220.000305,137.788818 215.729935,138.120850 212.119476,140.433990 
	C210.496643,141.117767 209.073685,141.459961 207.778656,142.072556 
	C203.980301,143.869247 201.967499,142.676941 201.344666,138.273010 
	C201.170441,134.960800 201.198624,131.940048 201.178772,128.469284 
z"/>
<path fill="#343434" opacity="1.000000" stroke="none" 
	d="
M179.282837,151.265518 
	C179.181946,149.267181 179.255402,147.561111 179.216827,145.440887 
	C180.399887,139.216980 180.390579,139.237411 185.939468,141.765472 
	C188.455887,142.911926 191.077438,143.875702 192.748016,146.750763 
	C192.288422,148.664093 191.277679,150.026978 189.262695,150.899475 
	C186.422775,151.844040 183.797928,152.460434 181.266418,153.344208 
	C179.147751,154.083878 180.202637,151.990952 179.282837,151.265518 
z"/>
<path fill="#529ACB" opacity="1.000000" stroke="none" 
	d="
M214.940125,171.608734 
	C213.349762,172.296036 211.913742,172.567032 210.624420,173.158035 
	C207.959778,174.379440 207.099319,173.101654 206.795471,170.347961 
	C206.835114,167.970993 206.957733,165.960876 207.148346,163.527313 
	C210.399490,162.506424 212.702469,164.589050 215.633606,165.886230 
	C217.571579,168.069687 217.191956,169.827774 214.940125,171.608734 
z"/>
<path fill="#343434" opacity="1.000000" stroke="none" 
	d="
M190.342987,215.104034 
	C189.899582,212.631470 189.857071,210.251450 189.785278,207.426086 
	C193.997299,203.999710 196.249283,207.879883 199.329865,209.925217 
	C199.554169,213.554184 196.302826,213.184921 194.257050,214.733780 
	C192.914047,215.036072 191.828964,215.116333 190.342987,215.104034 
z"/>
<path fill="#343434" opacity="1.000000" stroke="none" 
	d="
M208.716156,220.374619 
	C210.814468,218.329727 211.889618,220.237198 213.352325,221.676147 
	C211.508499,223.193756 208.962311,226.530411 208.716156,220.374619 
z"/>
<path fill="#529ACB" opacity="1.000000" stroke="none" 
	d="
M235.301300,156.294983 
	C235.164490,153.766281 235.200760,151.527145 235.236664,148.892273 
	C238.916275,145.005463 241.284760,149.291107 244.593170,150.143188 
	C245.622971,151.573151 246.594131,152.855301 245.104965,154.606232 
	C241.731827,155.075516 239.298996,159.738098 235.301300,156.294983 
z"/>
<path fill="#EEFFFA" opacity="1.000000" stroke="none" 
	d="
M216.878998,151.391968 
	C219.181290,150.843872 221.115662,151.656067 222.839355,153.695526 
	C221.486511,155.471710 219.603455,157.072571 217.623550,156.274582 
	C216.175293,155.690872 217.141937,153.344269 216.878998,151.391968 
z"/>
<path fill="#529ACB" opacity="1.000000" stroke="none" 
	d="
M227.063217,206.450043 
	C227.353195,204.622772 227.658020,203.244659 228.017059,201.521240 
	C233.363403,200.914261 237.186356,204.163559 241.595520,206.876556 
	C242.839752,210.645828 240.989792,212.455490 237.831421,213.532944 
	C236.307526,214.052826 234.856674,214.786819 233.138275,215.691406 
	C231.172302,215.886185 229.357513,216.498581 227.432663,215.152710 
	C227.097092,212.280914 227.087570,209.590073 227.063217,206.450043 
z"/>
<path fill="#EEFFFA" opacity="1.000000" stroke="none" 
	d="
M195.995758,167.650299 
	C193.989075,167.905563 191.743408,172.596207 189.820801,167.394928 
	C190.140442,165.918655 189.683228,164.006363 191.546692,164.160660 
	C193.456650,164.318832 195.329285,165.063019 195.995758,167.650299 
z"/>
</svg>